solid CSWARCMOD1E.ork_finset_wind3_11ms
facet normal 0.00000 -0.70711 0.70711
  outer loop
    vertex 575.00000 22.27386 24.39518
    vertex 705.00000 22.27386 24.39518
    vertex 685.00000 47.71120 49.83252
  endloop
endfacet
facet normal 0.00000 -0.70711 0.70711
  outer loop
    vertex 575.00000 22.27386 24.39518
    vertex 685.00000 47.71120 49.83252
    vertex 630.00000 47.71120 49.83252
  endloop
endfacet
facet normal 0.00000 0.70711 -0.70711
  outer loop
    vertex 630.00000 49.83252 47.71120
    vertex 685.00000 49.83252 47.71120
    vertex 705.00000 24.39518 22.27386
  endloop
endfacet
facet normal 0.00000 0.70711 -0.70711
  outer loop
    vertex 630.00000 49.83252 47.71120
    vertex 705.00000 24.39518 22.27386
    vertex 575.00000 24.39518 22.27386
  endloop
endfacet
facet normal 0.54738 -0.59177 -0.59177
  outer loop
    vertex 575.00000 24.39518 22.27386
    vertex 630.00000 49.83252 47.71120
    vertex 630.00000 47.71120 49.83252
  endloop
endfacet
facet normal 0.54738 -0.59177 -0.59177
  outer loop
    vertex 575.00000 24.39518 22.27386
    vertex 630.00000 47.71120 49.83252
    vertex 575.00000 22.27386 24.39518
  endloop
endfacet
facet normal -0.87401 -0.34359 -0.34359
  outer loop
    vertex 705.00000 22.27386 24.39518
    vertex 685.00000 47.71120 49.83252
    vertex 685.00000 49.83252 47.71120
  endloop
endfacet
facet normal -0.87401 -0.34359 -0.34359
  outer loop
    vertex 705.00000 22.27386 24.39518
    vertex 685.00000 49.83252 47.71120
    vertex 705.00000 24.39518 22.27386
  endloop
endfacet
facet normal 0.00000 -0.70711 -0.70711
  outer loop
    vertex 630.00000 49.83252 47.71120
    vertex 685.00000 49.83252 47.71120
    vertex 685.00000 47.71120 49.83252
  endloop
endfacet
facet normal 0.00000 -0.70711 -0.70711
  outer loop
    vertex 630.00000 49.83252 47.71120
    vertex 685.00000 47.71120 49.83252
    vertex 630.00000 47.71120 49.83252
  endloop
endfacet
facet normal -0.00000 0.70711 0.70711
  outer loop
    vertex 575.00000 22.27386 24.39518
    vertex 705.00000 22.27386 24.39518
    vertex 705.00000 24.39518 22.27386
  endloop
endfacet
facet normal 0.00000 0.70711 0.70711
  outer loop
    vertex 575.00000 22.27386 24.39518
    vertex 705.00000 24.39518 22.27386
    vertex 575.00000 24.39518 22.27386
  endloop
endfacet
facet normal 0.00000 -0.70711 -0.70711
  outer loop
    vertex 575.00000 -24.39518 22.27386
    vertex 705.00000 -24.39518 22.27386
    vertex 685.00000 -49.83252 47.71120
  endloop
endfacet
facet normal 0.00000 -0.70711 -0.70711
  outer loop
    vertex 575.00000 -24.39518 22.27386
    vertex 685.00000 -49.83252 47.71120
    vertex 630.00000 -49.83252 47.71120
  endloop
endfacet
facet normal -0.00000 0.70711 0.70711
  outer loop
    vertex 630.00000 -47.71120 49.83252
    vertex 685.00000 -47.71120 49.83252
    vertex 705.00000 -22.27386 24.39518
  endloop
endfacet
facet normal 0.00000 0.70711 0.70711
  outer loop
    vertex 630.00000 -47.71120 49.83252
    vertex 705.00000 -22.27386 24.39518
    vertex 575.00000 -22.27386 24.39518
  endloop
endfacet
facet normal 0.54738 0.59177 -0.59177
  outer loop
    vertex 575.00000 -22.27386 24.39518
    vertex 630.00000 -47.71120 49.83252
    vertex 630.00000 -49.83252 47.71120
  endloop
endfacet
facet normal 0.54738 0.59177 -0.59177
  outer loop
    vertex 575.00000 -22.27386 24.39518
    vertex 630.00000 -49.83252 47.71120
    vertex 575.00000 -24.39518 22.27386
  endloop
endfacet
facet normal -0.87401 0.34359 -0.34359
  outer loop
    vertex 705.00000 -24.39518 22.27386
    vertex 685.00000 -49.83252 47.71120
    vertex 685.00000 -47.71120 49.83252
  endloop
endfacet
facet normal -0.87401 0.34359 -0.34359
  outer loop
    vertex 705.00000 -24.39518 22.27386
    vertex 685.00000 -47.71120 49.83252
    vertex 705.00000 -22.27386 24.39518
  endloop
endfacet
facet normal 0.00000 0.70711 -0.70711
  outer loop
    vertex 630.00000 -47.71120 49.83252
    vertex 685.00000 -47.71120 49.83252
    vertex 685.00000 -49.83252 47.71120
  endloop
endfacet
facet normal 0.00000 0.70711 -0.70711
  outer loop
    vertex 630.00000 -47.71120 49.83252
    vertex 685.00000 -49.83252 47.71120
    vertex 630.00000 -49.83252 47.71120
  endloop
endfacet
facet normal 0.00000 -0.70711 0.70711
  outer loop
    vertex 575.00000 -24.39518 22.27386
    vertex 705.00000 -24.39518 22.27386
    vertex 705.00000 -22.27386 24.39518
  endloop
endfacet
facet normal 0.00000 -0.70711 0.70711
  outer loop
    vertex 575.00000 -24.39518 22.27386
    vertex 705.00000 -22.27386 24.39518
    vertex 575.00000 -22.27386 24.39518
  endloop
endfacet
facet normal 0.00000 0.70711 -0.70711
  outer loop
    vertex 575.00000 -22.27386 -24.39518
    vertex 705.00000 -22.27386 -24.39518
    vertex 685.00000 -47.71120 -49.83252
  endloop
endfacet
facet normal 0.00000 0.70711 -0.70711
  outer loop
    vertex 575.00000 -22.27386 -24.39518
    vertex 685.00000 -47.71120 -49.83252
    vertex 630.00000 -47.71120 -49.83252
  endloop
endfacet
facet normal 0.00000 -0.70711 0.70711
  outer loop
    vertex 630.00000 -49.83252 -47.71120
    vertex 685.00000 -49.83252 -47.71120
    vertex 705.00000 -24.39518 -22.27386
  endloop
endfacet
facet normal 0.00000 -0.70711 0.70711
  outer loop
    vertex 630.00000 -49.83252 -47.71120
    vertex 705.00000 -24.39518 -22.27386
    vertex 575.00000 -24.39518 -22.27386
  endloop
endfacet
facet normal 0.54738 0.59177 0.59177
  outer loop
    vertex 575.00000 -24.39518 -22.27386
    vertex 630.00000 -49.83252 -47.71120
    vertex 630.00000 -47.71120 -49.83252
  endloop
endfacet
facet normal 0.54738 0.59177 0.59177
  outer loop
    vertex 575.00000 -24.39518 -22.27386
    vertex 630.00000 -47.71120 -49.83252
    vertex 575.00000 -22.27386 -24.39518
  endloop
endfacet
facet normal -0.87401 0.34359 0.34359
  outer loop
    vertex 705.00000 -22.27386 -24.39518
    vertex 685.00000 -47.71120 -49.83252
    vertex 685.00000 -49.83252 -47.71120
  endloop
endfacet
facet normal -0.87401 0.34359 0.34359
  outer loop
    vertex 705.00000 -22.27386 -24.39518
    vertex 685.00000 -49.83252 -47.71120
    vertex 705.00000 -24.39518 -22.27386
  endloop
endfacet
facet normal -0.00000 0.70711 0.70711
  outer loop
    vertex 630.00000 -49.83252 -47.71120
    vertex 685.00000 -49.83252 -47.71120
    vertex 685.00000 -47.71120 -49.83252
  endloop
endfacet
facet normal 0.00000 0.70711 0.70711
  outer loop
    vertex 630.00000 -49.83252 -47.71120
    vertex 685.00000 -47.71120 -49.83252
    vertex 630.00000 -47.71120 -49.83252
  endloop
endfacet
facet normal 0.00000 -0.70711 -0.70711
  outer loop
    vertex 575.00000 -22.27386 -24.39518
    vertex 705.00000 -22.27386 -24.39518
    vertex 705.00000 -24.39518 -22.27386
  endloop
endfacet
facet normal 0.00000 -0.70711 -0.70711
  outer loop
    vertex 575.00000 -22.27386 -24.39518
    vertex 705.00000 -24.39518 -22.27386
    vertex 575.00000 -24.39518 -22.27386
  endloop
endfacet
facet normal -0.00000 0.70711 0.70711
  outer loop
    vertex 575.00000 24.39518 -22.27386
    vertex 705.00000 24.39518 -22.27386
    vertex 685.00000 49.83252 -47.71120
  endloop
endfacet
facet normal 0.00000 0.70711 0.70711
  outer loop
    vertex 575.00000 24.39518 -22.27386
    vertex 685.00000 49.83252 -47.71120
    vertex 630.00000 49.83252 -47.71120
  endloop
endfacet
facet normal 0.00000 -0.70711 -0.70711
  outer loop
    vertex 630.00000 47.71120 -49.83252
    vertex 685.00000 47.71120 -49.83252
    vertex 705.00000 22.27386 -24.39518
  endloop
endfacet
facet normal 0.00000 -0.70711 -0.70711
  outer loop
    vertex 630.00000 47.71120 -49.83252
    vertex 705.00000 22.27386 -24.39518
    vertex 575.00000 22.27386 -24.39518
  endloop
endfacet
facet normal 0.54738 -0.59177 0.59177
  outer loop
    vertex 575.00000 22.27386 -24.39518
    vertex 630.00000 47.71120 -49.83252
    vertex 630.00000 49.83252 -47.71120
  endloop
endfacet
facet normal 0.54738 -0.59177 0.59177
  outer loop
    vertex 575.00000 22.27386 -24.39518
    vertex 630.00000 49.83252 -47.71120
    vertex 575.00000 24.39518 -22.27386
  endloop
endfacet
facet normal -0.87401 -0.34359 0.34359
  outer loop
    vertex 705.00000 24.39518 -22.27386
    vertex 685.00000 49.83252 -47.71120
    vertex 685.00000 47.71120 -49.83252
  endloop
endfacet
facet normal -0.87401 -0.34359 0.34359
  outer loop
    vertex 705.00000 24.39518 -22.27386
    vertex 685.00000 47.71120 -49.83252
    vertex 705.00000 22.27386 -24.39518
  endloop
endfacet
facet normal 0.00000 -0.70711 0.70711
  outer loop
    vertex 630.00000 47.71120 -49.83252
    vertex 685.00000 47.71120 -49.83252
    vertex 685.00000 49.83252 -47.71120
  endloop
endfacet
facet normal 0.00000 -0.70711 0.70711
  outer loop
    vertex 630.00000 47.71120 -49.83252
    vertex 685.00000 49.83252 -47.71120
    vertex 630.00000 49.83252 -47.71120
  endloop
endfacet
facet normal 0.00000 0.70711 -0.70711
  outer loop
    vertex 575.00000 24.39518 -22.27386
    vertex 705.00000 24.39518 -22.27386
    vertex 705.00000 22.27386 -24.39518
  endloop
endfacet
facet normal 0.00000 0.70711 -0.70711
  outer loop
    vertex 575.00000 24.39518 -22.27386
    vertex 705.00000 22.27386 -24.39518
    vertex 575.00000 22.27386 -24.39518
  endloop
endfacet
endsolid CSWARCMOD1E.ork_finset_wind3_11ms
