solid CSWARCMOD1E.ork_finset_wind1_77ms
facet normal 0.00000 -0.70711 0.70711
  outer loop
    vertex 575.00000 22.27386 24.39518
    vertex 705.00000 22.27386 24.39518
    vertex 685.00000 144.72625 146.84757
  endloop
endfacet
facet normal 0.00000 -0.70711 0.70711
  outer loop
    vertex 575.00000 22.27386 24.39518
    vertex 685.00000 144.72625 146.84757
    vertex 630.00000 144.72625 146.84757
  endloop
endfacet
facet normal 0.00000 0.70711 -0.70711
  outer loop
    vertex 630.00000 146.84757 144.72625
    vertex 685.00000 146.84757 144.72625
    vertex 705.00000 24.39518 22.27386
  endloop
endfacet
facet normal 0.00000 0.70711 -0.70711
  outer loop
    vertex 630.00000 146.84757 144.72625
    vertex 705.00000 24.39518 22.27386
    vertex 575.00000 24.39518 22.27386
  endloop
endfacet
facet normal 0.95309 -0.21404 -0.21404
  outer loop
    vertex 575.00000 24.39518 22.27386
    vertex 630.00000 146.84757 144.72625
    vertex 630.00000 144.72625 146.84757
  endloop
endfacet
facet normal 0.95309 -0.21404 -0.21404
  outer loop
    vertex 575.00000 24.39518 22.27386
    vertex 630.00000 144.72625 146.84757
    vertex 575.00000 22.27386 24.39518
  endloop
endfacet
facet normal -0.99340 -0.08113 -0.08113
  outer loop
    vertex 705.00000 22.27386 24.39518
    vertex 685.00000 144.72625 146.84757
    vertex 685.00000 146.84757 144.72625
  endloop
endfacet
facet normal -0.99340 -0.08113 -0.08113
  outer loop
    vertex 705.00000 22.27386 24.39518
    vertex 685.00000 146.84757 144.72625
    vertex 705.00000 24.39518 22.27386
  endloop
endfacet
facet normal 0.00000 -0.70711 -0.70711
  outer loop
    vertex 630.00000 146.84757 144.72625
    vertex 685.00000 146.84757 144.72625
    vertex 685.00000 144.72625 146.84757
  endloop
endfacet
facet normal 0.00000 -0.70711 -0.70711
  outer loop
    vertex 630.00000 146.84757 144.72625
    vertex 685.00000 144.72625 146.84757
    vertex 630.00000 144.72625 146.84757
  endloop
endfacet
facet normal -0.00000 0.70711 0.70711
  outer loop
    vertex 575.00000 22.27386 24.39518
    vertex 705.00000 22.27386 24.39518
    vertex 705.00000 24.39518 22.27386
  endloop
endfacet
facet normal 0.00000 0.70711 0.70711
  outer loop
    vertex 575.00000 22.27386 24.39518
    vertex 705.00000 24.39518 22.27386
    vertex 575.00000 24.39518 22.27386
  endloop
endfacet
facet normal 0.00000 -0.70711 -0.70711
  outer loop
    vertex 575.00000 -24.39518 22.27386
    vertex 705.00000 -24.39518 22.27386
    vertex 685.00000 -146.84757 144.72625
  endloop
endfacet
facet normal 0.00000 -0.70711 -0.70711
  outer loop
    vertex 575.00000 -24.39518 22.27386
    vertex 685.00000 -146.84757 144.72625
    vertex 630.00000 -146.84757 144.72625
  endloop
endfacet
facet normal -0.00000 0.70711 0.70711
  outer loop
    vertex 630.00000 -144.72625 146.84757
    vertex 685.00000 -144.72625 146.84757
    vertex 705.00000 -22.27386 24.39518
  endloop
endfacet
facet normal 0.00000 0.70711 0.70711
  outer loop
    vertex 630.00000 -144.72625 146.84757
    vertex 705.00000 -22.27386 24.39518
    vertex 575.00000 -22.27386 24.39518
  endloop
endfacet
facet normal 0.95309 0.21404 -0.21404
  outer loop
    vertex 575.00000 -22.27386 24.39518
    vertex 630.00000 -144.72625 146.84757
    vertex 630.00000 -146.84757 144.72625
  endloop
endfacet
facet normal 0.95309 0.21404 -0.21404
  outer loop
    vertex 575.00000 -22.27386 24.39518
    vertex 630.00000 -146.84757 144.72625
    vertex 575.00000 -24.39518 22.27386
  endloop
endfacet
facet normal -0.99340 0.08113 -0.08113
  outer loop
    vertex 705.00000 -24.39518 22.27386
    vertex 685.00000 -146.84757 144.72625
    vertex 685.00000 -144.72625 146.84757
  endloop
endfacet
facet normal -0.99340 0.08113 -0.08113
  outer loop
    vertex 705.00000 -24.39518 22.27386
    vertex 685.00000 -144.72625 146.84757
    vertex 705.00000 -22.27386 24.39518
  endloop
endfacet
facet normal 0.00000 0.70711 -0.70711
  outer loop
    vertex 630.00000 -144.72625 146.84757
    vertex 685.00000 -144.72625 146.84757
    vertex 685.00000 -146.84757 144.72625
  endloop
endfacet
facet normal 0.00000 0.70711 -0.70711
  outer loop
    vertex 630.00000 -144.72625 146.84757
    vertex 685.00000 -146.84757 144.72625
    vertex 630.00000 -146.84757 144.72625
  endloop
endfacet
facet normal 0.00000 -0.70711 0.70711
  outer loop
    vertex 575.00000 -24.39518 22.27386
    vertex 705.00000 -24.39518 22.27386
    vertex 705.00000 -22.27386 24.39518
  endloop
endfacet
facet normal 0.00000 -0.70711 0.70711
  outer loop
    vertex 575.00000 -24.39518 22.27386
    vertex 705.00000 -22.27386 24.39518
    vertex 575.00000 -22.27386 24.39518
  endloop
endfacet
facet normal 0.00000 0.70711 -0.70711
  outer loop
    vertex 575.00000 -22.27386 -24.39518
    vertex 705.00000 -22.27386 -24.39518
    vertex 685.00000 -144.72625 -146.84757
  endloop
endfacet
facet normal 0.00000 0.70711 -0.70711
  outer loop
    vertex 575.00000 -22.27386 -24.39518
    vertex 685.00000 -144.72625 -146.84757
    vertex 630.00000 -144.72625 -146.84757
  endloop
endfacet
facet normal 0.00000 -0.70711 0.70711
  outer loop
    vertex 630.00000 -146.84757 -144.72625
    vertex 685.00000 -146.84757 -144.72625
    vertex 705.00000 -24.39518 -22.27386
  endloop
endfacet
facet normal 0.00000 -0.70711 0.70711
  outer loop
    vertex 630.00000 -146.84757 -144.72625
    vertex 705.00000 -24.39518 -22.27386
    vertex 575.00000 -24.39518 -22.27386
  endloop
endfacet
facet normal 0.95309 0.21404 0.21404
  outer loop
    vertex 575.00000 -24.39518 -22.27386
    vertex 630.00000 -146.84757 -144.72625
    vertex 630.00000 -144.72625 -146.84757
  endloop
endfacet
facet normal 0.95309 0.21404 0.21404
  outer loop
    vertex 575.00000 -24.39518 -22.27386
    vertex 630.00000 -144.72625 -146.84757
    vertex 575.00000 -22.27386 -24.39518
  endloop
endfacet
facet normal -0.99340 0.08113 0.08113
  outer loop
    vertex 705.00000 -22.27386 -24.39518
    vertex 685.00000 -144.72625 -146.84757
    vertex 685.00000 -146.84757 -144.72625
  endloop
endfacet
facet normal -0.99340 0.08113 0.08113
  outer loop
    vertex 705.00000 -22.27386 -24.39518
    vertex 685.00000 -146.84757 -144.72625
    vertex 705.00000 -24.39518 -22.27386
  endloop
endfacet
facet normal -0.00000 0.70711 0.70711
  outer loop
    vertex 630.00000 -146.84757 -144.72625
    vertex 685.00000 -146.84757 -144.72625
    vertex 685.00000 -144.72625 -146.84757
  endloop
endfacet
facet normal 0.00000 0.70711 0.70711
  outer loop
    vertex 630.00000 -146.84757 -144.72625
    vertex 685.00000 -144.72625 -146.84757
    vertex 630.00000 -144.72625 -146.84757
  endloop
endfacet
facet normal 0.00000 -0.70711 -0.70711
  outer loop
    vertex 575.00000 -22.27386 -24.39518
    vertex 705.00000 -22.27386 -24.39518
    vertex 705.00000 -24.39518 -22.27386
  endloop
endfacet
facet normal 0.00000 -0.70711 -0.70711
  outer loop
    vertex 575.00000 -22.27386 -24.39518
    vertex 705.00000 -24.39518 -22.27386
    vertex 575.00000 -24.39518 -22.27386
  endloop
endfacet
facet normal -0.00000 0.70711 0.70711
  outer loop
    vertex 575.00000 24.39518 -22.27386
    vertex 705.00000 24.39518 -22.27386
    vertex 685.00000 146.84757 -144.72625
  endloop
endfacet
facet normal 0.00000 0.70711 0.70711
  outer loop
    vertex 575.00000 24.39518 -22.27386
    vertex 685.00000 146.84757 -144.72625
    vertex 630.00000 146.84757 -144.72625
  endloop
endfacet
facet normal 0.00000 -0.70711 -0.70711
  outer loop
    vertex 630.00000 144.72625 -146.84757
    vertex 685.00000 144.72625 -146.84757
    vertex 705.00000 22.27386 -24.39518
  endloop
endfacet
facet normal 0.00000 -0.70711 -0.70711
  outer loop
    vertex 630.00000 144.72625 -146.84757
    vertex 705.00000 22.27386 -24.39518
    vertex 575.00000 22.27386 -24.39518
  endloop
endfacet
facet normal 0.95309 -0.21404 0.21404
  outer loop
    vertex 575.00000 22.27386 -24.39518
    vertex 630.00000 144.72625 -146.84757
    vertex 630.00000 146.84757 -144.72625
  endloop
endfacet
facet normal 0.95309 -0.21404 0.21404
  outer loop
    vertex 575.00000 22.27386 -24.39518
    vertex 630.00000 146.84757 -144.72625
    vertex 575.00000 24.39518 -22.27386
  endloop
endfacet
facet normal -0.99340 -0.08113 0.08113
  outer loop
    vertex 705.00000 24.39518 -22.27386
    vertex 685.00000 146.84757 -144.72625
    vertex 685.00000 144.72625 -146.84757
  endloop
endfacet
facet normal -0.99340 -0.08113 0.08113
  outer loop
    vertex 705.00000 24.39518 -22.27386
    vertex 685.00000 144.72625 -146.84757
    vertex 705.00000 22.27386 -24.39518
  endloop
endfacet
facet normal 0.00000 -0.70711 0.70711
  outer loop
    vertex 630.00000 144.72625 -146.84757
    vertex 685.00000 144.72625 -146.84757
    vertex 685.00000 146.84757 -144.72625
  endloop
endfacet
facet normal 0.00000 -0.70711 0.70711
  outer loop
    vertex 630.00000 144.72625 -146.84757
    vertex 685.00000 146.84757 -144.72625
    vertex 630.00000 146.84757 -144.72625
  endloop
endfacet
facet normal 0.00000 0.70711 -0.70711
  outer loop
    vertex 575.00000 24.39518 -22.27386
    vertex 705.00000 24.39518 -22.27386
    vertex 705.00000 22.27386 -24.39518
  endloop
endfacet
facet normal 0.00000 0.70711 -0.70711
  outer loop
    vertex 575.00000 24.39518 -22.27386
    vertex 705.00000 22.27386 -24.39518
    vertex 575.00000 22.27386 -24.39518
  endloop
endfacet
endsolid CSWARCMOD1E.ork_finset_wind1_77ms
