solid CSWARCMOD1E.ork_finset_wind2_01ms
facet normal 0.00000 -0.70711 0.70711
  outer loop
    vertex 575.00000 22.27386 24.39518
    vertex 705.00000 22.27386 24.39518
    vertex 685.00000 141.00427 143.12559
  endloop
endfacet
facet normal 0.00000 -0.70711 0.70711
  outer loop
    vertex 575.00000 22.27386 24.39518
    vertex 685.00000 141.00427 143.12559
    vertex 630.00000 141.00427 143.12559
  endloop
endfacet
facet normal 0.00000 0.70711 -0.70711
  outer loop
    vertex 630.00000 143.12559 141.00427
    vertex 685.00000 143.12559 141.00427
    vertex 705.00000 24.39518 22.27386
  endloop
endfacet
facet normal 0.00000 0.70711 -0.70711
  outer loop
    vertex 630.00000 143.12559 141.00427
    vertex 705.00000 24.39518 22.27386
    vertex 575.00000 24.39518 22.27386
  endloop
endfacet
facet normal 0.95032 -0.22011 -0.22011
  outer loop
    vertex 575.00000 24.39518 22.27386
    vertex 630.00000 143.12559 141.00427
    vertex 630.00000 141.00427 143.12559
  endloop
endfacet
facet normal 0.95032 -0.22011 -0.22011
  outer loop
    vertex 575.00000 24.39518 22.27386
    vertex 630.00000 141.00427 143.12559
    vertex 575.00000 22.27386 24.39518
  endloop
endfacet
facet normal -0.99298 -0.08363 -0.08363
  outer loop
    vertex 705.00000 22.27386 24.39518
    vertex 685.00000 141.00427 143.12559
    vertex 685.00000 143.12559 141.00427
  endloop
endfacet
facet normal -0.99298 -0.08363 -0.08363
  outer loop
    vertex 705.00000 22.27386 24.39518
    vertex 685.00000 143.12559 141.00427
    vertex 705.00000 24.39518 22.27386
  endloop
endfacet
facet normal 0.00000 -0.70711 -0.70711
  outer loop
    vertex 630.00000 143.12559 141.00427
    vertex 685.00000 143.12559 141.00427
    vertex 685.00000 141.00427 143.12559
  endloop
endfacet
facet normal 0.00000 -0.70711 -0.70711
  outer loop
    vertex 630.00000 143.12559 141.00427
    vertex 685.00000 141.00427 143.12559
    vertex 630.00000 141.00427 143.12559
  endloop
endfacet
facet normal -0.00000 0.70711 0.70711
  outer loop
    vertex 575.00000 22.27386 24.39518
    vertex 705.00000 22.27386 24.39518
    vertex 705.00000 24.39518 22.27386
  endloop
endfacet
facet normal 0.00000 0.70711 0.70711
  outer loop
    vertex 575.00000 22.27386 24.39518
    vertex 705.00000 24.39518 22.27386
    vertex 575.00000 24.39518 22.27386
  endloop
endfacet
facet normal 0.00000 -0.70711 -0.70711
  outer loop
    vertex 575.00000 -24.39518 22.27386
    vertex 705.00000 -24.39518 22.27386
    vertex 685.00000 -143.12559 141.00427
  endloop
endfacet
facet normal 0.00000 -0.70711 -0.70711
  outer loop
    vertex 575.00000 -24.39518 22.27386
    vertex 685.00000 -143.12559 141.00427
    vertex 630.00000 -143.12559 141.00427
  endloop
endfacet
facet normal -0.00000 0.70711 0.70711
  outer loop
    vertex 630.00000 -141.00427 143.12559
    vertex 685.00000 -141.00427 143.12559
    vertex 705.00000 -22.27386 24.39518
  endloop
endfacet
facet normal 0.00000 0.70711 0.70711
  outer loop
    vertex 630.00000 -141.00427 143.12559
    vertex 705.00000 -22.27386 24.39518
    vertex 575.00000 -22.27386 24.39518
  endloop
endfacet
facet normal 0.95032 0.22011 -0.22011
  outer loop
    vertex 575.00000 -22.27386 24.39518
    vertex 630.00000 -141.00427 143.12559
    vertex 630.00000 -143.12559 141.00427
  endloop
endfacet
facet normal 0.95032 0.22011 -0.22011
  outer loop
    vertex 575.00000 -22.27386 24.39518
    vertex 630.00000 -143.12559 141.00427
    vertex 575.00000 -24.39518 22.27386
  endloop
endfacet
facet normal -0.99298 0.08363 -0.08363
  outer loop
    vertex 705.00000 -24.39518 22.27386
    vertex 685.00000 -143.12559 141.00427
    vertex 685.00000 -141.00427 143.12559
  endloop
endfacet
facet normal -0.99298 0.08363 -0.08363
  outer loop
    vertex 705.00000 -24.39518 22.27386
    vertex 685.00000 -141.00427 143.12559
    vertex 705.00000 -22.27386 24.39518
  endloop
endfacet
facet normal 0.00000 0.70711 -0.70711
  outer loop
    vertex 630.00000 -141.00427 143.12559
    vertex 685.00000 -141.00427 143.12559
    vertex 685.00000 -143.12559 141.00427
  endloop
endfacet
facet normal 0.00000 0.70711 -0.70711
  outer loop
    vertex 630.00000 -141.00427 143.12559
    vertex 685.00000 -143.12559 141.00427
    vertex 630.00000 -143.12559 141.00427
  endloop
endfacet
facet normal 0.00000 -0.70711 0.70711
  outer loop
    vertex 575.00000 -24.39518 22.27386
    vertex 705.00000 -24.39518 22.27386
    vertex 705.00000 -22.27386 24.39518
  endloop
endfacet
facet normal 0.00000 -0.70711 0.70711
  outer loop
    vertex 575.00000 -24.39518 22.27386
    vertex 705.00000 -22.27386 24.39518
    vertex 575.00000 -22.27386 24.39518
  endloop
endfacet
facet normal 0.00000 0.70711 -0.70711
  outer loop
    vertex 575.00000 -22.27386 -24.39518
    vertex 705.00000 -22.27386 -24.39518
    vertex 685.00000 -141.00427 -143.12559
  endloop
endfacet
facet normal 0.00000 0.70711 -0.70711
  outer loop
    vertex 575.00000 -22.27386 -24.39518
    vertex 685.00000 -141.00427 -143.12559
    vertex 630.00000 -141.00427 -143.12559
  endloop
endfacet
facet normal 0.00000 -0.70711 0.70711
  outer loop
    vertex 630.00000 -143.12559 -141.00427
    vertex 685.00000 -143.12559 -141.00427
    vertex 705.00000 -24.39518 -22.27386
  endloop
endfacet
facet normal 0.00000 -0.70711 0.70711
  outer loop
    vertex 630.00000 -143.12559 -141.00427
    vertex 705.00000 -24.39518 -22.27386
    vertex 575.00000 -24.39518 -22.27386
  endloop
endfacet
facet normal 0.95032 0.22011 0.22011
  outer loop
    vertex 575.00000 -24.39518 -22.27386
    vertex 630.00000 -143.12559 -141.00427
    vertex 630.00000 -141.00427 -143.12559
  endloop
endfacet
facet normal 0.95032 0.22011 0.22011
  outer loop
    vertex 575.00000 -24.39518 -22.27386
    vertex 630.00000 -141.00427 -143.12559
    vertex 575.00000 -22.27386 -24.39518
  endloop
endfacet
facet normal -0.99298 0.08363 0.08363
  outer loop
    vertex 705.00000 -22.27386 -24.39518
    vertex 685.00000 -141.00427 -143.12559
    vertex 685.00000 -143.12559 -141.00427
  endloop
endfacet
facet normal -0.99298 0.08363 0.08363
  outer loop
    vertex 705.00000 -22.27386 -24.39518
    vertex 685.00000 -143.12559 -141.00427
    vertex 705.00000 -24.39518 -22.27386
  endloop
endfacet
facet normal -0.00000 0.70711 0.70711
  outer loop
    vertex 630.00000 -143.12559 -141.00427
    vertex 685.00000 -143.12559 -141.00427
    vertex 685.00000 -141.00427 -143.12559
  endloop
endfacet
facet normal 0.00000 0.70711 0.70711
  outer loop
    vertex 630.00000 -143.12559 -141.00427
    vertex 685.00000 -141.00427 -143.12559
    vertex 630.00000 -141.00427 -143.12559
  endloop
endfacet
facet normal 0.00000 -0.70711 -0.70711
  outer loop
    vertex 575.00000 -22.27386 -24.39518
    vertex 705.00000 -22.27386 -24.39518
    vertex 705.00000 -24.39518 -22.27386
  endloop
endfacet
facet normal 0.00000 -0.70711 -0.70711
  outer loop
    vertex 575.00000 -22.27386 -24.39518
    vertex 705.00000 -24.39518 -22.27386
    vertex 575.00000 -24.39518 -22.27386
  endloop
endfacet
facet normal -0.00000 0.70711 0.70711
  outer loop
    vertex 575.00000 24.39518 -22.27386
    vertex 705.00000 24.39518 -22.27386
    vertex 685.00000 143.12559 -141.00427
  endloop
endfacet
facet normal 0.00000 0.70711 0.70711
  outer loop
    vertex 575.00000 24.39518 -22.27386
    vertex 685.00000 143.12559 -141.00427
    vertex 630.00000 143.12559 -141.00427
  endloop
endfacet
facet normal 0.00000 -0.70711 -0.70711
  outer loop
    vertex 630.00000 141.00427 -143.12559
    vertex 685.00000 141.00427 -143.12559
    vertex 705.00000 22.27386 -24.39518
  endloop
endfacet
facet normal 0.00000 -0.70711 -0.70711
  outer loop
    vertex 630.00000 141.00427 -143.12559
    vertex 705.00000 22.27386 -24.39518
    vertex 575.00000 22.27386 -24.39518
  endloop
endfacet
facet normal 0.95032 -0.22011 0.22011
  outer loop
    vertex 575.00000 22.27386 -24.39518
    vertex 630.00000 141.00427 -143.12559
    vertex 630.00000 143.12559 -141.00427
  endloop
endfacet
facet normal 0.95032 -0.22011 0.22011
  outer loop
    vertex 575.00000 22.27386 -24.39518
    vertex 630.00000 143.12559 -141.00427
    vertex 575.00000 24.39518 -22.27386
  endloop
endfacet
facet normal -0.99298 -0.08363 0.08363
  outer loop
    vertex 705.00000 24.39518 -22.27386
    vertex 685.00000 143.12559 -141.00427
    vertex 685.00000 141.00427 -143.12559
  endloop
endfacet
facet normal -0.99298 -0.08363 0.08363
  outer loop
    vertex 705.00000 24.39518 -22.27386
    vertex 685.00000 141.00427 -143.12559
    vertex 705.00000 22.27386 -24.39518
  endloop
endfacet
facet normal 0.00000 -0.70711 0.70711
  outer loop
    vertex 630.00000 141.00427 -143.12559
    vertex 685.00000 141.00427 -143.12559
    vertex 685.00000 143.12559 -141.00427
  endloop
endfacet
facet normal 0.00000 -0.70711 0.70711
  outer loop
    vertex 630.00000 141.00427 -143.12559
    vertex 685.00000 143.12559 -141.00427
    vertex 630.00000 143.12559 -141.00427
  endloop
endfacet
facet normal 0.00000 0.70711 -0.70711
  outer loop
    vertex 575.00000 24.39518 -22.27386
    vertex 705.00000 24.39518 -22.27386
    vertex 705.00000 22.27386 -24.39518
  endloop
endfacet
facet normal 0.00000 0.70711 -0.70711
  outer loop
    vertex 575.00000 24.39518 -22.27386
    vertex 705.00000 22.27386 -24.39518
    vertex 575.00000 22.27386 -24.39518
  endloop
endfacet
endsolid CSWARCMOD1E.ork_finset_wind2_01ms
