solid CSWARCMOD1E.ork_finset_wind1_83ms
facet normal 0.00000 -0.70711 0.70711
  outer loop
    vertex 575.00000 22.27386 24.39518
    vertex 705.00000 22.27386 24.39518
    vertex 685.00000 143.71117 145.83249
  endloop
endfacet
facet normal 0.00000 -0.70711 0.70711
  outer loop
    vertex 575.00000 22.27386 24.39518
    vertex 685.00000 143.71117 145.83249
    vertex 630.00000 143.71117 145.83249
  endloop
endfacet
facet normal 0.00000 0.70711 -0.70711
  outer loop
    vertex 630.00000 145.83249 143.71117
    vertex 685.00000 145.83249 143.71117
    vertex 705.00000 24.39518 22.27386
  endloop
endfacet
facet normal 0.00000 0.70711 -0.70711
  outer loop
    vertex 630.00000 145.83249 143.71117
    vertex 705.00000 24.39518 22.27386
    vertex 575.00000 24.39518 22.27386
  endloop
endfacet
facet normal 0.95235 -0.21566 -0.21566
  outer loop
    vertex 575.00000 24.39518 22.27386
    vertex 630.00000 145.83249 143.71117
    vertex 630.00000 143.71117 145.83249
  endloop
endfacet
facet normal 0.95235 -0.21566 -0.21566
  outer loop
    vertex 575.00000 24.39518 22.27386
    vertex 630.00000 143.71117 145.83249
    vertex 575.00000 22.27386 24.39518
  endloop
endfacet
facet normal -0.99329 -0.08179 -0.08179
  outer loop
    vertex 705.00000 22.27386 24.39518
    vertex 685.00000 143.71117 145.83249
    vertex 685.00000 145.83249 143.71117
  endloop
endfacet
facet normal -0.99329 -0.08179 -0.08179
  outer loop
    vertex 705.00000 22.27386 24.39518
    vertex 685.00000 145.83249 143.71117
    vertex 705.00000 24.39518 22.27386
  endloop
endfacet
facet normal 0.00000 -0.70711 -0.70711
  outer loop
    vertex 630.00000 145.83249 143.71117
    vertex 685.00000 145.83249 143.71117
    vertex 685.00000 143.71117 145.83249
  endloop
endfacet
facet normal 0.00000 -0.70711 -0.70711
  outer loop
    vertex 630.00000 145.83249 143.71117
    vertex 685.00000 143.71117 145.83249
    vertex 630.00000 143.71117 145.83249
  endloop
endfacet
facet normal -0.00000 0.70711 0.70711
  outer loop
    vertex 575.00000 22.27386 24.39518
    vertex 705.00000 22.27386 24.39518
    vertex 705.00000 24.39518 22.27386
  endloop
endfacet
facet normal 0.00000 0.70711 0.70711
  outer loop
    vertex 575.00000 22.27386 24.39518
    vertex 705.00000 24.39518 22.27386
    vertex 575.00000 24.39518 22.27386
  endloop
endfacet
facet normal 0.00000 -0.70711 -0.70711
  outer loop
    vertex 575.00000 -24.39518 22.27386
    vertex 705.00000 -24.39518 22.27386
    vertex 685.00000 -145.83249 143.71117
  endloop
endfacet
facet normal 0.00000 -0.70711 -0.70711
  outer loop
    vertex 575.00000 -24.39518 22.27386
    vertex 685.00000 -145.83249 143.71117
    vertex 630.00000 -145.83249 143.71117
  endloop
endfacet
facet normal -0.00000 0.70711 0.70711
  outer loop
    vertex 630.00000 -143.71117 145.83249
    vertex 685.00000 -143.71117 145.83249
    vertex 705.00000 -22.27386 24.39518
  endloop
endfacet
facet normal 0.00000 0.70711 0.70711
  outer loop
    vertex 630.00000 -143.71117 145.83249
    vertex 705.00000 -22.27386 24.39518
    vertex 575.00000 -22.27386 24.39518
  endloop
endfacet
facet normal 0.95235 0.21566 -0.21566
  outer loop
    vertex 575.00000 -22.27386 24.39518
    vertex 630.00000 -143.71117 145.83249
    vertex 630.00000 -145.83249 143.71117
  endloop
endfacet
facet normal 0.95235 0.21566 -0.21566
  outer loop
    vertex 575.00000 -22.27386 24.39518
    vertex 630.00000 -145.83249 143.71117
    vertex 575.00000 -24.39518 22.27386
  endloop
endfacet
facet normal -0.99329 0.08179 -0.08179
  outer loop
    vertex 705.00000 -24.39518 22.27386
    vertex 685.00000 -145.83249 143.71117
    vertex 685.00000 -143.71117 145.83249
  endloop
endfacet
facet normal -0.99329 0.08179 -0.08179
  outer loop
    vertex 705.00000 -24.39518 22.27386
    vertex 685.00000 -143.71117 145.83249
    vertex 705.00000 -22.27386 24.39518
  endloop
endfacet
facet normal 0.00000 0.70711 -0.70711
  outer loop
    vertex 630.00000 -143.71117 145.83249
    vertex 685.00000 -143.71117 145.83249
    vertex 685.00000 -145.83249 143.71117
  endloop
endfacet
facet normal 0.00000 0.70711 -0.70711
  outer loop
    vertex 630.00000 -143.71117 145.83249
    vertex 685.00000 -145.83249 143.71117
    vertex 630.00000 -145.83249 143.71117
  endloop
endfacet
facet normal 0.00000 -0.70711 0.70711
  outer loop
    vertex 575.00000 -24.39518 22.27386
    vertex 705.00000 -24.39518 22.27386
    vertex 705.00000 -22.27386 24.39518
  endloop
endfacet
facet normal 0.00000 -0.70711 0.70711
  outer loop
    vertex 575.00000 -24.39518 22.27386
    vertex 705.00000 -22.27386 24.39518
    vertex 575.00000 -22.27386 24.39518
  endloop
endfacet
facet normal 0.00000 0.70711 -0.70711
  outer loop
    vertex 575.00000 -22.27386 -24.39518
    vertex 705.00000 -22.27386 -24.39518
    vertex 685.00000 -143.71117 -145.83249
  endloop
endfacet
facet normal 0.00000 0.70711 -0.70711
  outer loop
    vertex 575.00000 -22.27386 -24.39518
    vertex 685.00000 -143.71117 -145.83249
    vertex 630.00000 -143.71117 -145.83249
  endloop
endfacet
facet normal 0.00000 -0.70711 0.70711
  outer loop
    vertex 630.00000 -145.83249 -143.71117
    vertex 685.00000 -145.83249 -143.71117
    vertex 705.00000 -24.39518 -22.27386
  endloop
endfacet
facet normal 0.00000 -0.70711 0.70711
  outer loop
    vertex 630.00000 -145.83249 -143.71117
    vertex 705.00000 -24.39518 -22.27386
    vertex 575.00000 -24.39518 -22.27386
  endloop
endfacet
facet normal 0.95235 0.21566 0.21566
  outer loop
    vertex 575.00000 -24.39518 -22.27386
    vertex 630.00000 -145.83249 -143.71117
    vertex 630.00000 -143.71117 -145.83249
  endloop
endfacet
facet normal 0.95235 0.21566 0.21566
  outer loop
    vertex 575.00000 -24.39518 -22.27386
    vertex 630.00000 -143.71117 -145.83249
    vertex 575.00000 -22.27386 -24.39518
  endloop
endfacet
facet normal -0.99329 0.08179 0.08179
  outer loop
    vertex 705.00000 -22.27386 -24.39518
    vertex 685.00000 -143.71117 -145.83249
    vertex 685.00000 -145.83249 -143.71117
  endloop
endfacet
facet normal -0.99329 0.08179 0.08179
  outer loop
    vertex 705.00000 -22.27386 -24.39518
    vertex 685.00000 -145.83249 -143.71117
    vertex 705.00000 -24.39518 -22.27386
  endloop
endfacet
facet normal -0.00000 0.70711 0.70711
  outer loop
    vertex 630.00000 -145.83249 -143.71117
    vertex 685.00000 -145.83249 -143.71117
    vertex 685.00000 -143.71117 -145.83249
  endloop
endfacet
facet normal 0.00000 0.70711 0.70711
  outer loop
    vertex 630.00000 -145.83249 -143.71117
    vertex 685.00000 -143.71117 -145.83249
    vertex 630.00000 -143.71117 -145.83249
  endloop
endfacet
facet normal 0.00000 -0.70711 -0.70711
  outer loop
    vertex 575.00000 -22.27386 -24.39518
    vertex 705.00000 -22.27386 -24.39518
    vertex 705.00000 -24.39518 -22.27386
  endloop
endfacet
facet normal 0.00000 -0.70711 -0.70711
  outer loop
    vertex 575.00000 -22.27386 -24.39518
    vertex 705.00000 -24.39518 -22.27386
    vertex 575.00000 -24.39518 -22.27386
  endloop
endfacet
facet normal -0.00000 0.70711 0.70711
  outer loop
    vertex 575.00000 24.39518 -22.27386
    vertex 705.00000 24.39518 -22.27386
    vertex 685.00000 145.83249 -143.71117
  endloop
endfacet
facet normal 0.00000 0.70711 0.70711
  outer loop
    vertex 575.00000 24.39518 -22.27386
    vertex 685.00000 145.83249 -143.71117
    vertex 630.00000 145.83249 -143.71117
  endloop
endfacet
facet normal 0.00000 -0.70711 -0.70711
  outer loop
    vertex 630.00000 143.71117 -145.83249
    vertex 685.00000 143.71117 -145.83249
    vertex 705.00000 22.27386 -24.39518
  endloop
endfacet
facet normal 0.00000 -0.70711 -0.70711
  outer loop
    vertex 630.00000 143.71117 -145.83249
    vertex 705.00000 22.27386 -24.39518
    vertex 575.00000 22.27386 -24.39518
  endloop
endfacet
facet normal 0.95235 -0.21566 0.21566
  outer loop
    vertex 575.00000 22.27386 -24.39518
    vertex 630.00000 143.71117 -145.83249
    vertex 630.00000 145.83249 -143.71117
  endloop
endfacet
facet normal 0.95235 -0.21566 0.21566
  outer loop
    vertex 575.00000 22.27386 -24.39518
    vertex 630.00000 145.83249 -143.71117
    vertex 575.00000 24.39518 -22.27386
  endloop
endfacet
facet normal -0.99329 -0.08179 0.08179
  outer loop
    vertex 705.00000 24.39518 -22.27386
    vertex 685.00000 145.83249 -143.71117
    vertex 685.00000 143.71117 -145.83249
  endloop
endfacet
facet normal -0.99329 -0.08179 0.08179
  outer loop
    vertex 705.00000 24.39518 -22.27386
    vertex 685.00000 143.71117 -145.83249
    vertex 705.00000 22.27386 -24.39518
  endloop
endfacet
facet normal 0.00000 -0.70711 0.70711
  outer loop
    vertex 630.00000 143.71117 -145.83249
    vertex 685.00000 143.71117 -145.83249
    vertex 685.00000 145.83249 -143.71117
  endloop
endfacet
facet normal 0.00000 -0.70711 0.70711
  outer loop
    vertex 630.00000 143.71117 -145.83249
    vertex 685.00000 145.83249 -143.71117
    vertex 630.00000 145.83249 -143.71117
  endloop
endfacet
facet normal 0.00000 0.70711 -0.70711
  outer loop
    vertex 575.00000 24.39518 -22.27386
    vertex 705.00000 24.39518 -22.27386
    vertex 705.00000 22.27386 -24.39518
  endloop
endfacet
facet normal 0.00000 0.70711 -0.70711
  outer loop
    vertex 575.00000 24.39518 -22.27386
    vertex 705.00000 22.27386 -24.39518
    vertex 575.00000 22.27386 -24.39518
  endloop
endfacet
endsolid CSWARCMOD1E.ork_finset_wind1_83ms
