solid CSWARCMOD1E.ork_finset_wind1_95ms
facet normal 0.00000 -0.70711 0.70711
  outer loop
    vertex 575.00000 22.27386 24.39518
    vertex 705.00000 22.27386 24.39518
    vertex 685.00000 141.68100 143.80232
  endloop
endfacet
facet normal 0.00000 -0.70711 0.70711
  outer loop
    vertex 575.00000 22.27386 24.39518
    vertex 685.00000 141.68100 143.80232
    vertex 630.00000 141.68100 143.80232
  endloop
endfacet
facet normal 0.00000 0.70711 -0.70711
  outer loop
    vertex 630.00000 143.80232 141.68100
    vertex 685.00000 143.80232 141.68100
    vertex 705.00000 24.39518 22.27386
  endloop
endfacet
facet normal 0.00000 0.70711 -0.70711
  outer loop
    vertex 630.00000 143.80232 141.68100
    vertex 705.00000 24.39518 22.27386
    vertex 575.00000 24.39518 22.27386
  endloop
endfacet
facet normal 0.95084 -0.21898 -0.21898
  outer loop
    vertex 575.00000 24.39518 22.27386
    vertex 630.00000 143.80232 141.68100
    vertex 630.00000 141.68100 143.80232
  endloop
endfacet
facet normal 0.95084 -0.21898 -0.21898
  outer loop
    vertex 575.00000 24.39518 22.27386
    vertex 630.00000 141.68100 143.80232
    vertex 575.00000 22.27386 24.39518
  endloop
endfacet
facet normal -0.99306 -0.08317 -0.08317
  outer loop
    vertex 705.00000 22.27386 24.39518
    vertex 685.00000 141.68100 143.80232
    vertex 685.00000 143.80232 141.68100
  endloop
endfacet
facet normal -0.99306 -0.08317 -0.08317
  outer loop
    vertex 705.00000 22.27386 24.39518
    vertex 685.00000 143.80232 141.68100
    vertex 705.00000 24.39518 22.27386
  endloop
endfacet
facet normal 0.00000 -0.70711 -0.70711
  outer loop
    vertex 630.00000 143.80232 141.68100
    vertex 685.00000 143.80232 141.68100
    vertex 685.00000 141.68100 143.80232
  endloop
endfacet
facet normal 0.00000 -0.70711 -0.70711
  outer loop
    vertex 630.00000 143.80232 141.68100
    vertex 685.00000 141.68100 143.80232
    vertex 630.00000 141.68100 143.80232
  endloop
endfacet
facet normal -0.00000 0.70711 0.70711
  outer loop
    vertex 575.00000 22.27386 24.39518
    vertex 705.00000 22.27386 24.39518
    vertex 705.00000 24.39518 22.27386
  endloop
endfacet
facet normal 0.00000 0.70711 0.70711
  outer loop
    vertex 575.00000 22.27386 24.39518
    vertex 705.00000 24.39518 22.27386
    vertex 575.00000 24.39518 22.27386
  endloop
endfacet
facet normal 0.00000 -0.70711 -0.70711
  outer loop
    vertex 575.00000 -24.39518 22.27386
    vertex 705.00000 -24.39518 22.27386
    vertex 685.00000 -143.80232 141.68100
  endloop
endfacet
facet normal 0.00000 -0.70711 -0.70711
  outer loop
    vertex 575.00000 -24.39518 22.27386
    vertex 685.00000 -143.80232 141.68100
    vertex 630.00000 -143.80232 141.68100
  endloop
endfacet
facet normal -0.00000 0.70711 0.70711
  outer loop
    vertex 630.00000 -141.68100 143.80232
    vertex 685.00000 -141.68100 143.80232
    vertex 705.00000 -22.27386 24.39518
  endloop
endfacet
facet normal 0.00000 0.70711 0.70711
  outer loop
    vertex 630.00000 -141.68100 143.80232
    vertex 705.00000 -22.27386 24.39518
    vertex 575.00000 -22.27386 24.39518
  endloop
endfacet
facet normal 0.95084 0.21898 -0.21898
  outer loop
    vertex 575.00000 -22.27386 24.39518
    vertex 630.00000 -141.68100 143.80232
    vertex 630.00000 -143.80232 141.68100
  endloop
endfacet
facet normal 0.95084 0.21898 -0.21898
  outer loop
    vertex 575.00000 -22.27386 24.39518
    vertex 630.00000 -143.80232 141.68100
    vertex 575.00000 -24.39518 22.27386
  endloop
endfacet
facet normal -0.99306 0.08317 -0.08317
  outer loop
    vertex 705.00000 -24.39518 22.27386
    vertex 685.00000 -143.80232 141.68100
    vertex 685.00000 -141.68100 143.80232
  endloop
endfacet
facet normal -0.99306 0.08317 -0.08317
  outer loop
    vertex 705.00000 -24.39518 22.27386
    vertex 685.00000 -141.68100 143.80232
    vertex 705.00000 -22.27386 24.39518
  endloop
endfacet
facet normal 0.00000 0.70711 -0.70711
  outer loop
    vertex 630.00000 -141.68100 143.80232
    vertex 685.00000 -141.68100 143.80232
    vertex 685.00000 -143.80232 141.68100
  endloop
endfacet
facet normal 0.00000 0.70711 -0.70711
  outer loop
    vertex 630.00000 -141.68100 143.80232
    vertex 685.00000 -143.80232 141.68100
    vertex 630.00000 -143.80232 141.68100
  endloop
endfacet
facet normal 0.00000 -0.70711 0.70711
  outer loop
    vertex 575.00000 -24.39518 22.27386
    vertex 705.00000 -24.39518 22.27386
    vertex 705.00000 -22.27386 24.39518
  endloop
endfacet
facet normal 0.00000 -0.70711 0.70711
  outer loop
    vertex 575.00000 -24.39518 22.27386
    vertex 705.00000 -22.27386 24.39518
    vertex 575.00000 -22.27386 24.39518
  endloop
endfacet
facet normal 0.00000 0.70711 -0.70711
  outer loop
    vertex 575.00000 -22.27386 -24.39518
    vertex 705.00000 -22.27386 -24.39518
    vertex 685.00000 -141.68100 -143.80232
  endloop
endfacet
facet normal 0.00000 0.70711 -0.70711
  outer loop
    vertex 575.00000 -22.27386 -24.39518
    vertex 685.00000 -141.68100 -143.80232
    vertex 630.00000 -141.68100 -143.80232
  endloop
endfacet
facet normal 0.00000 -0.70711 0.70711
  outer loop
    vertex 630.00000 -143.80232 -141.68100
    vertex 685.00000 -143.80232 -141.68100
    vertex 705.00000 -24.39518 -22.27386
  endloop
endfacet
facet normal 0.00000 -0.70711 0.70711
  outer loop
    vertex 630.00000 -143.80232 -141.68100
    vertex 705.00000 -24.39518 -22.27386
    vertex 575.00000 -24.39518 -22.27386
  endloop
endfacet
facet normal 0.95084 0.21898 0.21898
  outer loop
    vertex 575.00000 -24.39518 -22.27386
    vertex 630.00000 -143.80232 -141.68100
    vertex 630.00000 -141.68100 -143.80232
  endloop
endfacet
facet normal 0.95084 0.21898 0.21898
  outer loop
    vertex 575.00000 -24.39518 -22.27386
    vertex 630.00000 -141.68100 -143.80232
    vertex 575.00000 -22.27386 -24.39518
  endloop
endfacet
facet normal -0.99306 0.08317 0.08317
  outer loop
    vertex 705.00000 -22.27386 -24.39518
    vertex 685.00000 -141.68100 -143.80232
    vertex 685.00000 -143.80232 -141.68100
  endloop
endfacet
facet normal -0.99306 0.08317 0.08317
  outer loop
    vertex 705.00000 -22.27386 -24.39518
    vertex 685.00000 -143.80232 -141.68100
    vertex 705.00000 -24.39518 -22.27386
  endloop
endfacet
facet normal -0.00000 0.70711 0.70711
  outer loop
    vertex 630.00000 -143.80232 -141.68100
    vertex 685.00000 -143.80232 -141.68100
    vertex 685.00000 -141.68100 -143.80232
  endloop
endfacet
facet normal 0.00000 0.70711 0.70711
  outer loop
    vertex 630.00000 -143.80232 -141.68100
    vertex 685.00000 -141.68100 -143.80232
    vertex 630.00000 -141.68100 -143.80232
  endloop
endfacet
facet normal 0.00000 -0.70711 -0.70711
  outer loop
    vertex 575.00000 -22.27386 -24.39518
    vertex 705.00000 -22.27386 -24.39518
    vertex 705.00000 -24.39518 -22.27386
  endloop
endfacet
facet normal 0.00000 -0.70711 -0.70711
  outer loop
    vertex 575.00000 -22.27386 -24.39518
    vertex 705.00000 -24.39518 -22.27386
    vertex 575.00000 -24.39518 -22.27386
  endloop
endfacet
facet normal -0.00000 0.70711 0.70711
  outer loop
    vertex 575.00000 24.39518 -22.27386
    vertex 705.00000 24.39518 -22.27386
    vertex 685.00000 143.80232 -141.68100
  endloop
endfacet
facet normal 0.00000 0.70711 0.70711
  outer loop
    vertex 575.00000 24.39518 -22.27386
    vertex 685.00000 143.80232 -141.68100
    vertex 630.00000 143.80232 -141.68100
  endloop
endfacet
facet normal 0.00000 -0.70711 -0.70711
  outer loop
    vertex 630.00000 141.68100 -143.80232
    vertex 685.00000 141.68100 -143.80232
    vertex 705.00000 22.27386 -24.39518
  endloop
endfacet
facet normal 0.00000 -0.70711 -0.70711
  outer loop
    vertex 630.00000 141.68100 -143.80232
    vertex 705.00000 22.27386 -24.39518
    vertex 575.00000 22.27386 -24.39518
  endloop
endfacet
facet normal 0.95084 -0.21898 0.21898
  outer loop
    vertex 575.00000 22.27386 -24.39518
    vertex 630.00000 141.68100 -143.80232
    vertex 630.00000 143.80232 -141.68100
  endloop
endfacet
facet normal 0.95084 -0.21898 0.21898
  outer loop
    vertex 575.00000 22.27386 -24.39518
    vertex 630.00000 143.80232 -141.68100
    vertex 575.00000 24.39518 -22.27386
  endloop
endfacet
facet normal -0.99306 -0.08317 0.08317
  outer loop
    vertex 705.00000 24.39518 -22.27386
    vertex 685.00000 143.80232 -141.68100
    vertex 685.00000 141.68100 -143.80232
  endloop
endfacet
facet normal -0.99306 -0.08317 0.08317
  outer loop
    vertex 705.00000 24.39518 -22.27386
    vertex 685.00000 141.68100 -143.80232
    vertex 705.00000 22.27386 -24.39518
  endloop
endfacet
facet normal 0.00000 -0.70711 0.70711
  outer loop
    vertex 630.00000 141.68100 -143.80232
    vertex 685.00000 141.68100 -143.80232
    vertex 685.00000 143.80232 -141.68100
  endloop
endfacet
facet normal 0.00000 -0.70711 0.70711
  outer loop
    vertex 630.00000 141.68100 -143.80232
    vertex 685.00000 143.80232 -141.68100
    vertex 630.00000 143.80232 -141.68100
  endloop
endfacet
facet normal 0.00000 0.70711 -0.70711
  outer loop
    vertex 575.00000 24.39518 -22.27386
    vertex 705.00000 24.39518 -22.27386
    vertex 705.00000 22.27386 -24.39518
  endloop
endfacet
facet normal 0.00000 0.70711 -0.70711
  outer loop
    vertex 575.00000 24.39518 -22.27386
    vertex 705.00000 22.27386 -24.39518
    vertex 575.00000 22.27386 -24.39518
  endloop
endfacet
endsolid CSWARCMOD1E.ork_finset_wind1_95ms
