solid CSWARCMOD1E.ork_finset_wind3_21ms
facet normal 0.00000 -0.70711 0.70711
  outer loop
    vertex 575.00000 22.27386 24.39518
    vertex 705.00000 22.27386 24.39518
    vertex 685.00000 47.67710 49.79842
  endloop
endfacet
facet normal 0.00000 -0.70711 0.70711
  outer loop
    vertex 575.00000 22.27386 24.39518
    vertex 685.00000 47.67710 49.79842
    vertex 630.00000 47.67710 49.79842
  endloop
endfacet
facet normal 0.00000 0.70711 -0.70711
  outer loop
    vertex 630.00000 49.79842 47.67710
    vertex 685.00000 49.79842 47.67710
    vertex 705.00000 24.39518 22.27386
  endloop
endfacet
facet normal 0.00000 0.70711 -0.70711
  outer loop
    vertex 630.00000 49.79842 47.67710
    vertex 705.00000 24.39518 22.27386
    vertex 575.00000 24.39518 22.27386
  endloop
endfacet
facet normal 0.54687 -0.59200 -0.59200
  outer loop
    vertex 575.00000 24.39518 22.27386
    vertex 630.00000 49.79842 47.67710
    vertex 630.00000 47.67710 49.79842
  endloop
endfacet
facet normal 0.54687 -0.59200 -0.59200
  outer loop
    vertex 575.00000 24.39518 22.27386
    vertex 630.00000 47.67710 49.79842
    vertex 575.00000 22.27386 24.39518
  endloop
endfacet
facet normal -0.87373 -0.34394 -0.34394
  outer loop
    vertex 705.00000 22.27386 24.39518
    vertex 685.00000 47.67710 49.79842
    vertex 685.00000 49.79842 47.67710
  endloop
endfacet
facet normal -0.87373 -0.34394 -0.34394
  outer loop
    vertex 705.00000 22.27386 24.39518
    vertex 685.00000 49.79842 47.67710
    vertex 705.00000 24.39518 22.27386
  endloop
endfacet
facet normal 0.00000 -0.70711 -0.70711
  outer loop
    vertex 630.00000 49.79842 47.67710
    vertex 685.00000 49.79842 47.67710
    vertex 685.00000 47.67710 49.79842
  endloop
endfacet
facet normal 0.00000 -0.70711 -0.70711
  outer loop
    vertex 630.00000 49.79842 47.67710
    vertex 685.00000 47.67710 49.79842
    vertex 630.00000 47.67710 49.79842
  endloop
endfacet
facet normal -0.00000 0.70711 0.70711
  outer loop
    vertex 575.00000 22.27386 24.39518
    vertex 705.00000 22.27386 24.39518
    vertex 705.00000 24.39518 22.27386
  endloop
endfacet
facet normal 0.00000 0.70711 0.70711
  outer loop
    vertex 575.00000 22.27386 24.39518
    vertex 705.00000 24.39518 22.27386
    vertex 575.00000 24.39518 22.27386
  endloop
endfacet
facet normal 0.00000 -0.70711 -0.70711
  outer loop
    vertex 575.00000 -24.39518 22.27386
    vertex 705.00000 -24.39518 22.27386
    vertex 685.00000 -49.79842 47.67710
  endloop
endfacet
facet normal 0.00000 -0.70711 -0.70711
  outer loop
    vertex 575.00000 -24.39518 22.27386
    vertex 685.00000 -49.79842 47.67710
    vertex 630.00000 -49.79842 47.67710
  endloop
endfacet
facet normal -0.00000 0.70711 0.70711
  outer loop
    vertex 630.00000 -47.67710 49.79842
    vertex 685.00000 -47.67710 49.79842
    vertex 705.00000 -22.27386 24.39518
  endloop
endfacet
facet normal 0.00000 0.70711 0.70711
  outer loop
    vertex 630.00000 -47.67710 49.79842
    vertex 705.00000 -22.27386 24.39518
    vertex 575.00000 -22.27386 24.39518
  endloop
endfacet
facet normal 0.54687 0.59200 -0.59200
  outer loop
    vertex 575.00000 -22.27386 24.39518
    vertex 630.00000 -47.67710 49.79842
    vertex 630.00000 -49.79842 47.67710
  endloop
endfacet
facet normal 0.54687 0.59200 -0.59200
  outer loop
    vertex 575.00000 -22.27386 24.39518
    vertex 630.00000 -49.79842 47.67710
    vertex 575.00000 -24.39518 22.27386
  endloop
endfacet
facet normal -0.87373 0.34394 -0.34394
  outer loop
    vertex 705.00000 -24.39518 22.27386
    vertex 685.00000 -49.79842 47.67710
    vertex 685.00000 -47.67710 49.79842
  endloop
endfacet
facet normal -0.87373 0.34394 -0.34394
  outer loop
    vertex 705.00000 -24.39518 22.27386
    vertex 685.00000 -47.67710 49.79842
    vertex 705.00000 -22.27386 24.39518
  endloop
endfacet
facet normal 0.00000 0.70711 -0.70711
  outer loop
    vertex 630.00000 -47.67710 49.79842
    vertex 685.00000 -47.67710 49.79842
    vertex 685.00000 -49.79842 47.67710
  endloop
endfacet
facet normal 0.00000 0.70711 -0.70711
  outer loop
    vertex 630.00000 -47.67710 49.79842
    vertex 685.00000 -49.79842 47.67710
    vertex 630.00000 -49.79842 47.67710
  endloop
endfacet
facet normal 0.00000 -0.70711 0.70711
  outer loop
    vertex 575.00000 -24.39518 22.27386
    vertex 705.00000 -24.39518 22.27386
    vertex 705.00000 -22.27386 24.39518
  endloop
endfacet
facet normal 0.00000 -0.70711 0.70711
  outer loop
    vertex 575.00000 -24.39518 22.27386
    vertex 705.00000 -22.27386 24.39518
    vertex 575.00000 -22.27386 24.39518
  endloop
endfacet
facet normal 0.00000 0.70711 -0.70711
  outer loop
    vertex 575.00000 -22.27386 -24.39518
    vertex 705.00000 -22.27386 -24.39518
    vertex 685.00000 -47.67710 -49.79842
  endloop
endfacet
facet normal 0.00000 0.70711 -0.70711
  outer loop
    vertex 575.00000 -22.27386 -24.39518
    vertex 685.00000 -47.67710 -49.79842
    vertex 630.00000 -47.67710 -49.79842
  endloop
endfacet
facet normal 0.00000 -0.70711 0.70711
  outer loop
    vertex 630.00000 -49.79842 -47.67710
    vertex 685.00000 -49.79842 -47.67710
    vertex 705.00000 -24.39518 -22.27386
  endloop
endfacet
facet normal 0.00000 -0.70711 0.70711
  outer loop
    vertex 630.00000 -49.79842 -47.67710
    vertex 705.00000 -24.39518 -22.27386
    vertex 575.00000 -24.39518 -22.27386
  endloop
endfacet
facet normal 0.54687 0.59200 0.59200
  outer loop
    vertex 575.00000 -24.39518 -22.27386
    vertex 630.00000 -49.79842 -47.67710
    vertex 630.00000 -47.67710 -49.79842
  endloop
endfacet
facet normal 0.54687 0.59200 0.59200
  outer loop
    vertex 575.00000 -24.39518 -22.27386
    vertex 630.00000 -47.67710 -49.79842
    vertex 575.00000 -22.27386 -24.39518
  endloop
endfacet
facet normal -0.87373 0.34394 0.34394
  outer loop
    vertex 705.00000 -22.27386 -24.39518
    vertex 685.00000 -47.67710 -49.79842
    vertex 685.00000 -49.79842 -47.67710
  endloop
endfacet
facet normal -0.87373 0.34394 0.34394
  outer loop
    vertex 705.00000 -22.27386 -24.39518
    vertex 685.00000 -49.79842 -47.67710
    vertex 705.00000 -24.39518 -22.27386
  endloop
endfacet
facet normal -0.00000 0.70711 0.70711
  outer loop
    vertex 630.00000 -49.79842 -47.67710
    vertex 685.00000 -49.79842 -47.67710
    vertex 685.00000 -47.67710 -49.79842
  endloop
endfacet
facet normal 0.00000 0.70711 0.70711
  outer loop
    vertex 630.00000 -49.79842 -47.67710
    vertex 685.00000 -47.67710 -49.79842
    vertex 630.00000 -47.67710 -49.79842
  endloop
endfacet
facet normal 0.00000 -0.70711 -0.70711
  outer loop
    vertex 575.00000 -22.27386 -24.39518
    vertex 705.00000 -22.27386 -24.39518
    vertex 705.00000 -24.39518 -22.27386
  endloop
endfacet
facet normal 0.00000 -0.70711 -0.70711
  outer loop
    vertex 575.00000 -22.27386 -24.39518
    vertex 705.00000 -24.39518 -22.27386
    vertex 575.00000 -24.39518 -22.27386
  endloop
endfacet
facet normal -0.00000 0.70711 0.70711
  outer loop
    vertex 575.00000 24.39518 -22.27386
    vertex 705.00000 24.39518 -22.27386
    vertex 685.00000 49.79842 -47.67710
  endloop
endfacet
facet normal 0.00000 0.70711 0.70711
  outer loop
    vertex 575.00000 24.39518 -22.27386
    vertex 685.00000 49.79842 -47.67710
    vertex 630.00000 49.79842 -47.67710
  endloop
endfacet
facet normal 0.00000 -0.70711 -0.70711
  outer loop
    vertex 630.00000 47.67710 -49.79842
    vertex 685.00000 47.67710 -49.79842
    vertex 705.00000 22.27386 -24.39518
  endloop
endfacet
facet normal 0.00000 -0.70711 -0.70711
  outer loop
    vertex 630.00000 47.67710 -49.79842
    vertex 705.00000 22.27386 -24.39518
    vertex 575.00000 22.27386 -24.39518
  endloop
endfacet
facet normal 0.54687 -0.59200 0.59200
  outer loop
    vertex 575.00000 22.27386 -24.39518
    vertex 630.00000 47.67710 -49.79842
    vertex 630.00000 49.79842 -47.67710
  endloop
endfacet
facet normal 0.54687 -0.59200 0.59200
  outer loop
    vertex 575.00000 22.27386 -24.39518
    vertex 630.00000 49.79842 -47.67710
    vertex 575.00000 24.39518 -22.27386
  endloop
endfacet
facet normal -0.87373 -0.34394 0.34394
  outer loop
    vertex 705.00000 24.39518 -22.27386
    vertex 685.00000 49.79842 -47.67710
    vertex 685.00000 47.67710 -49.79842
  endloop
endfacet
facet normal -0.87373 -0.34394 0.34394
  outer loop
    vertex 705.00000 24.39518 -22.27386
    vertex 685.00000 47.67710 -49.79842
    vertex 705.00000 22.27386 -24.39518
  endloop
endfacet
facet normal 0.00000 -0.70711 0.70711
  outer loop
    vertex 630.00000 47.67710 -49.79842
    vertex 685.00000 47.67710 -49.79842
    vertex 685.00000 49.79842 -47.67710
  endloop
endfacet
facet normal 0.00000 -0.70711 0.70711
  outer loop
    vertex 630.00000 47.67710 -49.79842
    vertex 685.00000 49.79842 -47.67710
    vertex 630.00000 49.79842 -47.67710
  endloop
endfacet
facet normal 0.00000 0.70711 -0.70711
  outer loop
    vertex 575.00000 24.39518 -22.27386
    vertex 705.00000 24.39518 -22.27386
    vertex 705.00000 22.27386 -24.39518
  endloop
endfacet
facet normal 0.00000 0.70711 -0.70711
  outer loop
    vertex 575.00000 24.39518 -22.27386
    vertex 705.00000 22.27386 -24.39518
    vertex 575.00000 22.27386 -24.39518
  endloop
endfacet
endsolid CSWARCMOD1E.ork_finset_wind3_21ms
