solid CSWARCMOD1E.ork_finset_wind3_41ms
facet normal 0.00000 -0.70711 0.70711
  outer loop
    vertex 575.00000 22.27386 24.39518
    vertex 705.00000 22.27386 24.39518
    vertex 685.00000 47.77986 49.90119
  endloop
endfacet
facet normal 0.00000 -0.70711 0.70711
  outer loop
    vertex 575.00000 22.27386 24.39518
    vertex 685.00000 47.77986 49.90119
    vertex 630.00000 47.77986 49.90119
  endloop
endfacet
facet normal 0.00000 0.70711 -0.70711
  outer loop
    vertex 630.00000 49.90119 47.77986
    vertex 685.00000 49.90119 47.77986
    vertex 705.00000 24.39518 22.27386
  endloop
endfacet
facet normal 0.00000 0.70711 -0.70711
  outer loop
    vertex 630.00000 49.90119 47.77986
    vertex 705.00000 24.39518 22.27386
    vertex 575.00000 24.39518 22.27386
  endloop
endfacet
facet normal 0.54841 -0.59129 -0.59129
  outer loop
    vertex 575.00000 24.39518 22.27386
    vertex 630.00000 49.90119 47.77986
    vertex 630.00000 47.77986 49.90119
  endloop
endfacet
facet normal 0.54841 -0.59129 -0.59129
  outer loop
    vertex 575.00000 24.39518 22.27386
    vertex 630.00000 47.77986 49.90119
    vertex 575.00000 22.27386 24.39518
  endloop
endfacet
facet normal -0.87456 -0.34289 -0.34289
  outer loop
    vertex 705.00000 22.27386 24.39518
    vertex 685.00000 47.77986 49.90119
    vertex 685.00000 49.90119 47.77986
  endloop
endfacet
facet normal -0.87456 -0.34289 -0.34289
  outer loop
    vertex 705.00000 22.27386 24.39518
    vertex 685.00000 49.90119 47.77986
    vertex 705.00000 24.39518 22.27386
  endloop
endfacet
facet normal 0.00000 -0.70711 -0.70711
  outer loop
    vertex 630.00000 49.90119 47.77986
    vertex 685.00000 49.90119 47.77986
    vertex 685.00000 47.77986 49.90119
  endloop
endfacet
facet normal 0.00000 -0.70711 -0.70711
  outer loop
    vertex 630.00000 49.90119 47.77986
    vertex 685.00000 47.77986 49.90119
    vertex 630.00000 47.77986 49.90119
  endloop
endfacet
facet normal -0.00000 0.70711 0.70711
  outer loop
    vertex 575.00000 22.27386 24.39518
    vertex 705.00000 22.27386 24.39518
    vertex 705.00000 24.39518 22.27386
  endloop
endfacet
facet normal 0.00000 0.70711 0.70711
  outer loop
    vertex 575.00000 22.27386 24.39518
    vertex 705.00000 24.39518 22.27386
    vertex 575.00000 24.39518 22.27386
  endloop
endfacet
facet normal 0.00000 -0.70711 -0.70711
  outer loop
    vertex 575.00000 -24.39518 22.27386
    vertex 705.00000 -24.39518 22.27386
    vertex 685.00000 -49.90119 47.77986
  endloop
endfacet
facet normal 0.00000 -0.70711 -0.70711
  outer loop
    vertex 575.00000 -24.39518 22.27386
    vertex 685.00000 -49.90119 47.77986
    vertex 630.00000 -49.90119 47.77986
  endloop
endfacet
facet normal -0.00000 0.70711 0.70711
  outer loop
    vertex 630.00000 -47.77986 49.90119
    vertex 685.00000 -47.77986 49.90119
    vertex 705.00000 -22.27386 24.39518
  endloop
endfacet
facet normal 0.00000 0.70711 0.70711
  outer loop
    vertex 630.00000 -47.77986 49.90119
    vertex 705.00000 -22.27386 24.39518
    vertex 575.00000 -22.27386 24.39518
  endloop
endfacet
facet normal 0.54841 0.59129 -0.59129
  outer loop
    vertex 575.00000 -22.27386 24.39518
    vertex 630.00000 -47.77986 49.90119
    vertex 630.00000 -49.90119 47.77986
  endloop
endfacet
facet normal 0.54841 0.59129 -0.59129
  outer loop
    vertex 575.00000 -22.27386 24.39518
    vertex 630.00000 -49.90119 47.77986
    vertex 575.00000 -24.39518 22.27386
  endloop
endfacet
facet normal -0.87456 0.34289 -0.34289
  outer loop
    vertex 705.00000 -24.39518 22.27386
    vertex 685.00000 -49.90119 47.77986
    vertex 685.00000 -47.77986 49.90119
  endloop
endfacet
facet normal -0.87456 0.34289 -0.34289
  outer loop
    vertex 705.00000 -24.39518 22.27386
    vertex 685.00000 -47.77986 49.90119
    vertex 705.00000 -22.27386 24.39518
  endloop
endfacet
facet normal 0.00000 0.70711 -0.70711
  outer loop
    vertex 630.00000 -47.77986 49.90119
    vertex 685.00000 -47.77986 49.90119
    vertex 685.00000 -49.90119 47.77986
  endloop
endfacet
facet normal 0.00000 0.70711 -0.70711
  outer loop
    vertex 630.00000 -47.77986 49.90119
    vertex 685.00000 -49.90119 47.77986
    vertex 630.00000 -49.90119 47.77986
  endloop
endfacet
facet normal 0.00000 -0.70711 0.70711
  outer loop
    vertex 575.00000 -24.39518 22.27386
    vertex 705.00000 -24.39518 22.27386
    vertex 705.00000 -22.27386 24.39518
  endloop
endfacet
facet normal 0.00000 -0.70711 0.70711
  outer loop
    vertex 575.00000 -24.39518 22.27386
    vertex 705.00000 -22.27386 24.39518
    vertex 575.00000 -22.27386 24.39518
  endloop
endfacet
facet normal 0.00000 0.70711 -0.70711
  outer loop
    vertex 575.00000 -22.27386 -24.39518
    vertex 705.00000 -22.27386 -24.39518
    vertex 685.00000 -47.77986 -49.90119
  endloop
endfacet
facet normal 0.00000 0.70711 -0.70711
  outer loop
    vertex 575.00000 -22.27386 -24.39518
    vertex 685.00000 -47.77986 -49.90119
    vertex 630.00000 -47.77986 -49.90119
  endloop
endfacet
facet normal 0.00000 -0.70711 0.70711
  outer loop
    vertex 630.00000 -49.90119 -47.77986
    vertex 685.00000 -49.90119 -47.77986
    vertex 705.00000 -24.39518 -22.27386
  endloop
endfacet
facet normal 0.00000 -0.70711 0.70711
  outer loop
    vertex 630.00000 -49.90119 -47.77986
    vertex 705.00000 -24.39518 -22.27386
    vertex 575.00000 -24.39518 -22.27386
  endloop
endfacet
facet normal 0.54841 0.59129 0.59129
  outer loop
    vertex 575.00000 -24.39518 -22.27386
    vertex 630.00000 -49.90119 -47.77986
    vertex 630.00000 -47.77986 -49.90119
  endloop
endfacet
facet normal 0.54841 0.59129 0.59129
  outer loop
    vertex 575.00000 -24.39518 -22.27386
    vertex 630.00000 -47.77986 -49.90119
    vertex 575.00000 -22.27386 -24.39518
  endloop
endfacet
facet normal -0.87456 0.34289 0.34289
  outer loop
    vertex 705.00000 -22.27386 -24.39518
    vertex 685.00000 -47.77986 -49.90119
    vertex 685.00000 -49.90119 -47.77986
  endloop
endfacet
facet normal -0.87456 0.34289 0.34289
  outer loop
    vertex 705.00000 -22.27386 -24.39518
    vertex 685.00000 -49.90119 -47.77986
    vertex 705.00000 -24.39518 -22.27386
  endloop
endfacet
facet normal -0.00000 0.70711 0.70711
  outer loop
    vertex 630.00000 -49.90119 -47.77986
    vertex 685.00000 -49.90119 -47.77986
    vertex 685.00000 -47.77986 -49.90119
  endloop
endfacet
facet normal 0.00000 0.70711 0.70711
  outer loop
    vertex 630.00000 -49.90119 -47.77986
    vertex 685.00000 -47.77986 -49.90119
    vertex 630.00000 -47.77986 -49.90119
  endloop
endfacet
facet normal 0.00000 -0.70711 -0.70711
  outer loop
    vertex 575.00000 -22.27386 -24.39518
    vertex 705.00000 -22.27386 -24.39518
    vertex 705.00000 -24.39518 -22.27386
  endloop
endfacet
facet normal 0.00000 -0.70711 -0.70711
  outer loop
    vertex 575.00000 -22.27386 -24.39518
    vertex 705.00000 -24.39518 -22.27386
    vertex 575.00000 -24.39518 -22.27386
  endloop
endfacet
facet normal -0.00000 0.70711 0.70711
  outer loop
    vertex 575.00000 24.39518 -22.27386
    vertex 705.00000 24.39518 -22.27386
    vertex 685.00000 49.90119 -47.77986
  endloop
endfacet
facet normal 0.00000 0.70711 0.70711
  outer loop
    vertex 575.00000 24.39518 -22.27386
    vertex 685.00000 49.90119 -47.77986
    vertex 630.00000 49.90119 -47.77986
  endloop
endfacet
facet normal 0.00000 -0.70711 -0.70711
  outer loop
    vertex 630.00000 47.77986 -49.90119
    vertex 685.00000 47.77986 -49.90119
    vertex 705.00000 22.27386 -24.39518
  endloop
endfacet
facet normal 0.00000 -0.70711 -0.70711
  outer loop
    vertex 630.00000 47.77986 -49.90119
    vertex 705.00000 22.27386 -24.39518
    vertex 575.00000 22.27386 -24.39518
  endloop
endfacet
facet normal 0.54841 -0.59129 0.59129
  outer loop
    vertex 575.00000 22.27386 -24.39518
    vertex 630.00000 47.77986 -49.90119
    vertex 630.00000 49.90119 -47.77986
  endloop
endfacet
facet normal 0.54841 -0.59129 0.59129
  outer loop
    vertex 575.00000 22.27386 -24.39518
    vertex 630.00000 49.90119 -47.77986
    vertex 575.00000 24.39518 -22.27386
  endloop
endfacet
facet normal -0.87456 -0.34289 0.34289
  outer loop
    vertex 705.00000 24.39518 -22.27386
    vertex 685.00000 49.90119 -47.77986
    vertex 685.00000 47.77986 -49.90119
  endloop
endfacet
facet normal -0.87456 -0.34289 0.34289
  outer loop
    vertex 705.00000 24.39518 -22.27386
    vertex 685.00000 47.77986 -49.90119
    vertex 705.00000 22.27386 -24.39518
  endloop
endfacet
facet normal 0.00000 -0.70711 0.70711
  outer loop
    vertex 630.00000 47.77986 -49.90119
    vertex 685.00000 47.77986 -49.90119
    vertex 685.00000 49.90119 -47.77986
  endloop
endfacet
facet normal 0.00000 -0.70711 0.70711
  outer loop
    vertex 630.00000 47.77986 -49.90119
    vertex 685.00000 49.90119 -47.77986
    vertex 630.00000 49.90119 -47.77986
  endloop
endfacet
facet normal 0.00000 0.70711 -0.70711
  outer loop
    vertex 575.00000 24.39518 -22.27386
    vertex 705.00000 24.39518 -22.27386
    vertex 705.00000 22.27386 -24.39518
  endloop
endfacet
facet normal 0.00000 0.70711 -0.70711
  outer loop
    vertex 575.00000 24.39518 -22.27386
    vertex 705.00000 22.27386 -24.39518
    vertex 575.00000 22.27386 -24.39518
  endloop
endfacet
endsolid CSWARCMOD1E.ork_finset_wind3_41ms
