solid CSWARCMOD1E.ork_finset_wind1_59ms
facet normal 0.00000 -0.70711 0.70711
  outer loop
    vertex 575.00000 22.27386 24.39518
    vertex 705.00000 22.27386 24.39518
    vertex 685.00000 85.51296 87.63428
  endloop
endfacet
facet normal 0.00000 -0.70711 0.70711
  outer loop
    vertex 575.00000 22.27386 24.39518
    vertex 685.00000 85.51296 87.63428
    vertex 630.00000 85.51296 87.63428
  endloop
endfacet
facet normal 0.00000 0.70711 -0.70711
  outer loop
    vertex 630.00000 87.63428 85.51296
    vertex 685.00000 87.63428 85.51296
    vertex 705.00000 24.39518 22.27386
  endloop
endfacet
facet normal 0.00000 0.70711 -0.70711
  outer loop
    vertex 630.00000 87.63428 85.51296
    vertex 705.00000 24.39518 22.27386
    vertex 575.00000 24.39518 22.27386
  endloop
endfacet
facet normal 0.85181 -0.37042 -0.37042
  outer loop
    vertex 575.00000 24.39518 22.27386
    vertex 630.00000 87.63428 85.51296
    vertex 630.00000 85.51296 87.63428
  endloop
endfacet
facet normal 0.85181 -0.37042 -0.37042
  outer loop
    vertex 575.00000 24.39518 22.27386
    vertex 630.00000 85.51296 87.63428
    vertex 575.00000 22.27386 24.39518
  endloop
endfacet
facet normal -0.97590 -0.15432 -0.15432
  outer loop
    vertex 705.00000 22.27386 24.39518
    vertex 685.00000 85.51296 87.63428
    vertex 685.00000 87.63428 85.51296
  endloop
endfacet
facet normal -0.97590 -0.15432 -0.15432
  outer loop
    vertex 705.00000 22.27386 24.39518
    vertex 685.00000 87.63428 85.51296
    vertex 705.00000 24.39518 22.27386
  endloop
endfacet
facet normal 0.00000 -0.70711 -0.70711
  outer loop
    vertex 630.00000 87.63428 85.51296
    vertex 685.00000 87.63428 85.51296
    vertex 685.00000 85.51296 87.63428
  endloop
endfacet
facet normal 0.00000 -0.70711 -0.70711
  outer loop
    vertex 630.00000 87.63428 85.51296
    vertex 685.00000 85.51296 87.63428
    vertex 630.00000 85.51296 87.63428
  endloop
endfacet
facet normal -0.00000 0.70711 0.70711
  outer loop
    vertex 575.00000 22.27386 24.39518
    vertex 705.00000 22.27386 24.39518
    vertex 705.00000 24.39518 22.27386
  endloop
endfacet
facet normal 0.00000 0.70711 0.70711
  outer loop
    vertex 575.00000 22.27386 24.39518
    vertex 705.00000 24.39518 22.27386
    vertex 575.00000 24.39518 22.27386
  endloop
endfacet
facet normal 0.00000 -0.70711 -0.70711
  outer loop
    vertex 575.00000 -24.39518 22.27386
    vertex 705.00000 -24.39518 22.27386
    vertex 685.00000 -87.63428 85.51296
  endloop
endfacet
facet normal 0.00000 -0.70711 -0.70711
  outer loop
    vertex 575.00000 -24.39518 22.27386
    vertex 685.00000 -87.63428 85.51296
    vertex 630.00000 -87.63428 85.51296
  endloop
endfacet
facet normal -0.00000 0.70711 0.70711
  outer loop
    vertex 630.00000 -85.51296 87.63428
    vertex 685.00000 -85.51296 87.63428
    vertex 705.00000 -22.27386 24.39518
  endloop
endfacet
facet normal 0.00000 0.70711 0.70711
  outer loop
    vertex 630.00000 -85.51296 87.63428
    vertex 705.00000 -22.27386 24.39518
    vertex 575.00000 -22.27386 24.39518
  endloop
endfacet
facet normal 0.85181 0.37042 -0.37042
  outer loop
    vertex 575.00000 -22.27386 24.39518
    vertex 630.00000 -85.51296 87.63428
    vertex 630.00000 -87.63428 85.51296
  endloop
endfacet
facet normal 0.85181 0.37042 -0.37042
  outer loop
    vertex 575.00000 -22.27386 24.39518
    vertex 630.00000 -87.63428 85.51296
    vertex 575.00000 -24.39518 22.27386
  endloop
endfacet
facet normal -0.97590 0.15432 -0.15432
  outer loop
    vertex 705.00000 -24.39518 22.27386
    vertex 685.00000 -87.63428 85.51296
    vertex 685.00000 -85.51296 87.63428
  endloop
endfacet
facet normal -0.97590 0.15432 -0.15432
  outer loop
    vertex 705.00000 -24.39518 22.27386
    vertex 685.00000 -85.51296 87.63428
    vertex 705.00000 -22.27386 24.39518
  endloop
endfacet
facet normal 0.00000 0.70711 -0.70711
  outer loop
    vertex 630.00000 -85.51296 87.63428
    vertex 685.00000 -85.51296 87.63428
    vertex 685.00000 -87.63428 85.51296
  endloop
endfacet
facet normal 0.00000 0.70711 -0.70711
  outer loop
    vertex 630.00000 -85.51296 87.63428
    vertex 685.00000 -87.63428 85.51296
    vertex 630.00000 -87.63428 85.51296
  endloop
endfacet
facet normal 0.00000 -0.70711 0.70711
  outer loop
    vertex 575.00000 -24.39518 22.27386
    vertex 705.00000 -24.39518 22.27386
    vertex 705.00000 -22.27386 24.39518
  endloop
endfacet
facet normal 0.00000 -0.70711 0.70711
  outer loop
    vertex 575.00000 -24.39518 22.27386
    vertex 705.00000 -22.27386 24.39518
    vertex 575.00000 -22.27386 24.39518
  endloop
endfacet
facet normal 0.00000 0.70711 -0.70711
  outer loop
    vertex 575.00000 -22.27386 -24.39518
    vertex 705.00000 -22.27386 -24.39518
    vertex 685.00000 -85.51296 -87.63428
  endloop
endfacet
facet normal 0.00000 0.70711 -0.70711
  outer loop
    vertex 575.00000 -22.27386 -24.39518
    vertex 685.00000 -85.51296 -87.63428
    vertex 630.00000 -85.51296 -87.63428
  endloop
endfacet
facet normal 0.00000 -0.70711 0.70711
  outer loop
    vertex 630.00000 -87.63428 -85.51296
    vertex 685.00000 -87.63428 -85.51296
    vertex 705.00000 -24.39518 -22.27386
  endloop
endfacet
facet normal 0.00000 -0.70711 0.70711
  outer loop
    vertex 630.00000 -87.63428 -85.51296
    vertex 705.00000 -24.39518 -22.27386
    vertex 575.00000 -24.39518 -22.27386
  endloop
endfacet
facet normal 0.85181 0.37042 0.37042
  outer loop
    vertex 575.00000 -24.39518 -22.27386
    vertex 630.00000 -87.63428 -85.51296
    vertex 630.00000 -85.51296 -87.63428
  endloop
endfacet
facet normal 0.85181 0.37042 0.37042
  outer loop
    vertex 575.00000 -24.39518 -22.27386
    vertex 630.00000 -85.51296 -87.63428
    vertex 575.00000 -22.27386 -24.39518
  endloop
endfacet
facet normal -0.97590 0.15432 0.15432
  outer loop
    vertex 705.00000 -22.27386 -24.39518
    vertex 685.00000 -85.51296 -87.63428
    vertex 685.00000 -87.63428 -85.51296
  endloop
endfacet
facet normal -0.97590 0.15432 0.15432
  outer loop
    vertex 705.00000 -22.27386 -24.39518
    vertex 685.00000 -87.63428 -85.51296
    vertex 705.00000 -24.39518 -22.27386
  endloop
endfacet
facet normal -0.00000 0.70711 0.70711
  outer loop
    vertex 630.00000 -87.63428 -85.51296
    vertex 685.00000 -87.63428 -85.51296
    vertex 685.00000 -85.51296 -87.63428
  endloop
endfacet
facet normal 0.00000 0.70711 0.70711
  outer loop
    vertex 630.00000 -87.63428 -85.51296
    vertex 685.00000 -85.51296 -87.63428
    vertex 630.00000 -85.51296 -87.63428
  endloop
endfacet
facet normal 0.00000 -0.70711 -0.70711
  outer loop
    vertex 575.00000 -22.27386 -24.39518
    vertex 705.00000 -22.27386 -24.39518
    vertex 705.00000 -24.39518 -22.27386
  endloop
endfacet
facet normal 0.00000 -0.70711 -0.70711
  outer loop
    vertex 575.00000 -22.27386 -24.39518
    vertex 705.00000 -24.39518 -22.27386
    vertex 575.00000 -24.39518 -22.27386
  endloop
endfacet
facet normal -0.00000 0.70711 0.70711
  outer loop
    vertex 575.00000 24.39518 -22.27386
    vertex 705.00000 24.39518 -22.27386
    vertex 685.00000 87.63428 -85.51296
  endloop
endfacet
facet normal 0.00000 0.70711 0.70711
  outer loop
    vertex 575.00000 24.39518 -22.27386
    vertex 685.00000 87.63428 -85.51296
    vertex 630.00000 87.63428 -85.51296
  endloop
endfacet
facet normal 0.00000 -0.70711 -0.70711
  outer loop
    vertex 630.00000 85.51296 -87.63428
    vertex 685.00000 85.51296 -87.63428
    vertex 705.00000 22.27386 -24.39518
  endloop
endfacet
facet normal 0.00000 -0.70711 -0.70711
  outer loop
    vertex 630.00000 85.51296 -87.63428
    vertex 705.00000 22.27386 -24.39518
    vertex 575.00000 22.27386 -24.39518
  endloop
endfacet
facet normal 0.85181 -0.37042 0.37042
  outer loop
    vertex 575.00000 22.27386 -24.39518
    vertex 630.00000 85.51296 -87.63428
    vertex 630.00000 87.63428 -85.51296
  endloop
endfacet
facet normal 0.85181 -0.37042 0.37042
  outer loop
    vertex 575.00000 22.27386 -24.39518
    vertex 630.00000 87.63428 -85.51296
    vertex 575.00000 24.39518 -22.27386
  endloop
endfacet
facet normal -0.97590 -0.15432 0.15432
  outer loop
    vertex 705.00000 24.39518 -22.27386
    vertex 685.00000 87.63428 -85.51296
    vertex 685.00000 85.51296 -87.63428
  endloop
endfacet
facet normal -0.97590 -0.15432 0.15432
  outer loop
    vertex 705.00000 24.39518 -22.27386
    vertex 685.00000 85.51296 -87.63428
    vertex 705.00000 22.27386 -24.39518
  endloop
endfacet
facet normal 0.00000 -0.70711 0.70711
  outer loop
    vertex 630.00000 85.51296 -87.63428
    vertex 685.00000 85.51296 -87.63428
    vertex 685.00000 87.63428 -85.51296
  endloop
endfacet
facet normal 0.00000 -0.70711 0.70711
  outer loop
    vertex 630.00000 85.51296 -87.63428
    vertex 685.00000 87.63428 -85.51296
    vertex 630.00000 87.63428 -85.51296
  endloop
endfacet
facet normal 0.00000 0.70711 -0.70711
  outer loop
    vertex 575.00000 24.39518 -22.27386
    vertex 705.00000 24.39518 -22.27386
    vertex 705.00000 22.27386 -24.39518
  endloop
endfacet
facet normal 0.00000 0.70711 -0.70711
  outer loop
    vertex 575.00000 24.39518 -22.27386
    vertex 705.00000 22.27386 -24.39518
    vertex 575.00000 22.27386 -24.39518
  endloop
endfacet
endsolid CSWARCMOD1E.ork_finset_wind1_59ms
