solid CSWARCMOD1E.ork_finset_wind1_41ms
facet normal 0.00000 -0.70711 0.70711
  outer loop
    vertex 575.00000 22.27386 24.39518
    vertex 705.00000 22.27386 24.39518
    vertex 685.00000 87.88150 90.00282
  endloop
endfacet
facet normal 0.00000 -0.70711 0.70711
  outer loop
    vertex 575.00000 22.27386 24.39518
    vertex 685.00000 87.88150 90.00282
    vertex 630.00000 87.88150 90.00282
  endloop
endfacet
facet normal 0.00000 0.70711 -0.70711
  outer loop
    vertex 630.00000 90.00282 87.88150
    vertex 685.00000 90.00282 87.88150
    vertex 705.00000 24.39518 22.27386
  endloop
endfacet
facet normal 0.00000 0.70711 -0.70711
  outer loop
    vertex 630.00000 90.00282 87.88150
    vertex 705.00000 24.39518 22.27386
    vertex 575.00000 24.39518 22.27386
  endloop
endfacet
facet normal 0.86022 -0.36057 -0.36057
  outer loop
    vertex 575.00000 24.39518 22.27386
    vertex 630.00000 90.00282 87.88150
    vertex 630.00000 87.88150 90.00282
  endloop
endfacet
facet normal 0.86022 -0.36057 -0.36057
  outer loop
    vertex 575.00000 24.39518 22.27386
    vertex 630.00000 87.88150 90.00282
    vertex 575.00000 22.27386 24.39518
  endloop
endfacet
facet normal -0.97755 -0.14900 -0.14900
  outer loop
    vertex 705.00000 22.27386 24.39518
    vertex 685.00000 87.88150 90.00282
    vertex 685.00000 90.00282 87.88150
  endloop
endfacet
facet normal -0.97755 -0.14900 -0.14900
  outer loop
    vertex 705.00000 22.27386 24.39518
    vertex 685.00000 90.00282 87.88150
    vertex 705.00000 24.39518 22.27386
  endloop
endfacet
facet normal 0.00000 -0.70711 -0.70711
  outer loop
    vertex 630.00000 90.00282 87.88150
    vertex 685.00000 90.00282 87.88150
    vertex 685.00000 87.88150 90.00282
  endloop
endfacet
facet normal 0.00000 -0.70711 -0.70711
  outer loop
    vertex 630.00000 90.00282 87.88150
    vertex 685.00000 87.88150 90.00282
    vertex 630.00000 87.88150 90.00282
  endloop
endfacet
facet normal -0.00000 0.70711 0.70711
  outer loop
    vertex 575.00000 22.27386 24.39518
    vertex 705.00000 22.27386 24.39518
    vertex 705.00000 24.39518 22.27386
  endloop
endfacet
facet normal 0.00000 0.70711 0.70711
  outer loop
    vertex 575.00000 22.27386 24.39518
    vertex 705.00000 24.39518 22.27386
    vertex 575.00000 24.39518 22.27386
  endloop
endfacet
facet normal 0.00000 -0.70711 -0.70711
  outer loop
    vertex 575.00000 -24.39518 22.27386
    vertex 705.00000 -24.39518 22.27386
    vertex 685.00000 -90.00282 87.88150
  endloop
endfacet
facet normal 0.00000 -0.70711 -0.70711
  outer loop
    vertex 575.00000 -24.39518 22.27386
    vertex 685.00000 -90.00282 87.88150
    vertex 630.00000 -90.00282 87.88150
  endloop
endfacet
facet normal -0.00000 0.70711 0.70711
  outer loop
    vertex 630.00000 -87.88150 90.00282
    vertex 685.00000 -87.88150 90.00282
    vertex 705.00000 -22.27386 24.39518
  endloop
endfacet
facet normal 0.00000 0.70711 0.70711
  outer loop
    vertex 630.00000 -87.88150 90.00282
    vertex 705.00000 -22.27386 24.39518
    vertex 575.00000 -22.27386 24.39518
  endloop
endfacet
facet normal 0.86022 0.36057 -0.36057
  outer loop
    vertex 575.00000 -22.27386 24.39518
    vertex 630.00000 -87.88150 90.00282
    vertex 630.00000 -90.00282 87.88150
  endloop
endfacet
facet normal 0.86022 0.36057 -0.36057
  outer loop
    vertex 575.00000 -22.27386 24.39518
    vertex 630.00000 -90.00282 87.88150
    vertex 575.00000 -24.39518 22.27386
  endloop
endfacet
facet normal -0.97755 0.14900 -0.14900
  outer loop
    vertex 705.00000 -24.39518 22.27386
    vertex 685.00000 -90.00282 87.88150
    vertex 685.00000 -87.88150 90.00282
  endloop
endfacet
facet normal -0.97755 0.14900 -0.14900
  outer loop
    vertex 705.00000 -24.39518 22.27386
    vertex 685.00000 -87.88150 90.00282
    vertex 705.00000 -22.27386 24.39518
  endloop
endfacet
facet normal 0.00000 0.70711 -0.70711
  outer loop
    vertex 630.00000 -87.88150 90.00282
    vertex 685.00000 -87.88150 90.00282
    vertex 685.00000 -90.00282 87.88150
  endloop
endfacet
facet normal 0.00000 0.70711 -0.70711
  outer loop
    vertex 630.00000 -87.88150 90.00282
    vertex 685.00000 -90.00282 87.88150
    vertex 630.00000 -90.00282 87.88150
  endloop
endfacet
facet normal 0.00000 -0.70711 0.70711
  outer loop
    vertex 575.00000 -24.39518 22.27386
    vertex 705.00000 -24.39518 22.27386
    vertex 705.00000 -22.27386 24.39518
  endloop
endfacet
facet normal 0.00000 -0.70711 0.70711
  outer loop
    vertex 575.00000 -24.39518 22.27386
    vertex 705.00000 -22.27386 24.39518
    vertex 575.00000 -22.27386 24.39518
  endloop
endfacet
facet normal 0.00000 0.70711 -0.70711
  outer loop
    vertex 575.00000 -22.27386 -24.39518
    vertex 705.00000 -22.27386 -24.39518
    vertex 685.00000 -87.88150 -90.00282
  endloop
endfacet
facet normal 0.00000 0.70711 -0.70711
  outer loop
    vertex 575.00000 -22.27386 -24.39518
    vertex 685.00000 -87.88150 -90.00282
    vertex 630.00000 -87.88150 -90.00282
  endloop
endfacet
facet normal 0.00000 -0.70711 0.70711
  outer loop
    vertex 630.00000 -90.00282 -87.88150
    vertex 685.00000 -90.00282 -87.88150
    vertex 705.00000 -24.39518 -22.27386
  endloop
endfacet
facet normal 0.00000 -0.70711 0.70711
  outer loop
    vertex 630.00000 -90.00282 -87.88150
    vertex 705.00000 -24.39518 -22.27386
    vertex 575.00000 -24.39518 -22.27386
  endloop
endfacet
facet normal 0.86022 0.36057 0.36057
  outer loop
    vertex 575.00000 -24.39518 -22.27386
    vertex 630.00000 -90.00282 -87.88150
    vertex 630.00000 -87.88150 -90.00282
  endloop
endfacet
facet normal 0.86022 0.36057 0.36057
  outer loop
    vertex 575.00000 -24.39518 -22.27386
    vertex 630.00000 -87.88150 -90.00282
    vertex 575.00000 -22.27386 -24.39518
  endloop
endfacet
facet normal -0.97755 0.14900 0.14900
  outer loop
    vertex 705.00000 -22.27386 -24.39518
    vertex 685.00000 -87.88150 -90.00282
    vertex 685.00000 -90.00282 -87.88150
  endloop
endfacet
facet normal -0.97755 0.14900 0.14900
  outer loop
    vertex 705.00000 -22.27386 -24.39518
    vertex 685.00000 -90.00282 -87.88150
    vertex 705.00000 -24.39518 -22.27386
  endloop
endfacet
facet normal -0.00000 0.70711 0.70711
  outer loop
    vertex 630.00000 -90.00282 -87.88150
    vertex 685.00000 -90.00282 -87.88150
    vertex 685.00000 -87.88150 -90.00282
  endloop
endfacet
facet normal 0.00000 0.70711 0.70711
  outer loop
    vertex 630.00000 -90.00282 -87.88150
    vertex 685.00000 -87.88150 -90.00282
    vertex 630.00000 -87.88150 -90.00282
  endloop
endfacet
facet normal 0.00000 -0.70711 -0.70711
  outer loop
    vertex 575.00000 -22.27386 -24.39518
    vertex 705.00000 -22.27386 -24.39518
    vertex 705.00000 -24.39518 -22.27386
  endloop
endfacet
facet normal 0.00000 -0.70711 -0.70711
  outer loop
    vertex 575.00000 -22.27386 -24.39518
    vertex 705.00000 -24.39518 -22.27386
    vertex 575.00000 -24.39518 -22.27386
  endloop
endfacet
facet normal -0.00000 0.70711 0.70711
  outer loop
    vertex 575.00000 24.39518 -22.27386
    vertex 705.00000 24.39518 -22.27386
    vertex 685.00000 90.00282 -87.88150
  endloop
endfacet
facet normal 0.00000 0.70711 0.70711
  outer loop
    vertex 575.00000 24.39518 -22.27386
    vertex 685.00000 90.00282 -87.88150
    vertex 630.00000 90.00282 -87.88150
  endloop
endfacet
facet normal 0.00000 -0.70711 -0.70711
  outer loop
    vertex 630.00000 87.88150 -90.00282
    vertex 685.00000 87.88150 -90.00282
    vertex 705.00000 22.27386 -24.39518
  endloop
endfacet
facet normal 0.00000 -0.70711 -0.70711
  outer loop
    vertex 630.00000 87.88150 -90.00282
    vertex 705.00000 22.27386 -24.39518
    vertex 575.00000 22.27386 -24.39518
  endloop
endfacet
facet normal 0.86022 -0.36057 0.36057
  outer loop
    vertex 575.00000 22.27386 -24.39518
    vertex 630.00000 87.88150 -90.00282
    vertex 630.00000 90.00282 -87.88150
  endloop
endfacet
facet normal 0.86022 -0.36057 0.36057
  outer loop
    vertex 575.00000 22.27386 -24.39518
    vertex 630.00000 90.00282 -87.88150
    vertex 575.00000 24.39518 -22.27386
  endloop
endfacet
facet normal -0.97755 -0.14900 0.14900
  outer loop
    vertex 705.00000 24.39518 -22.27386
    vertex 685.00000 90.00282 -87.88150
    vertex 685.00000 87.88150 -90.00282
  endloop
endfacet
facet normal -0.97755 -0.14900 0.14900
  outer loop
    vertex 705.00000 24.39518 -22.27386
    vertex 685.00000 87.88150 -90.00282
    vertex 705.00000 22.27386 -24.39518
  endloop
endfacet
facet normal 0.00000 -0.70711 0.70711
  outer loop
    vertex 630.00000 87.88150 -90.00282
    vertex 685.00000 87.88150 -90.00282
    vertex 685.00000 90.00282 -87.88150
  endloop
endfacet
facet normal 0.00000 -0.70711 0.70711
  outer loop
    vertex 630.00000 87.88150 -90.00282
    vertex 685.00000 90.00282 -87.88150
    vertex 630.00000 90.00282 -87.88150
  endloop
endfacet
facet normal 0.00000 0.70711 -0.70711
  outer loop
    vertex 575.00000 24.39518 -22.27386
    vertex 705.00000 24.39518 -22.27386
    vertex 705.00000 22.27386 -24.39518
  endloop
endfacet
facet normal 0.00000 0.70711 -0.70711
  outer loop
    vertex 575.00000 24.39518 -22.27386
    vertex 705.00000 22.27386 -24.39518
    vertex 575.00000 22.27386 -24.39518
  endloop
endfacet
endsolid CSWARCMOD1E.ork_finset_wind1_41ms
