solid CSWARCMOD1E.ork_finset_wind1_97ms
facet normal 0.00000 -0.70711 0.70711
  outer loop
    vertex 575.00000 22.27386 24.39518
    vertex 705.00000 22.27386 24.39518
    vertex 685.00000 116.64224 118.76356
  endloop
endfacet
facet normal 0.00000 -0.70711 0.70711
  outer loop
    vertex 575.00000 22.27386 24.39518
    vertex 685.00000 116.64224 118.76356
    vertex 630.00000 116.64224 118.76356
  endloop
endfacet
facet normal 0.00000 0.70711 -0.70711
  outer loop
    vertex 630.00000 118.76356 116.64224
    vertex 685.00000 118.76356 116.64224
    vertex 705.00000 24.39518 22.27386
  endloop
endfacet
facet normal 0.00000 0.70711 -0.70711
  outer loop
    vertex 630.00000 118.76356 116.64224
    vertex 705.00000 24.39518 22.27386
    vertex 575.00000 24.39518 22.27386
  endloop
endfacet
facet normal 0.92456 -0.26943 -0.26943
  outer loop
    vertex 575.00000 24.39518 22.27386
    vertex 630.00000 118.76356 116.64224
    vertex 630.00000 116.64224 118.76356
  endloop
endfacet
facet normal 0.92456 -0.26943 -0.26943
  outer loop
    vertex 575.00000 24.39518 22.27386
    vertex 630.00000 116.64224 118.76356
    vertex 575.00000 22.27386 24.39518
  endloop
endfacet
facet normal -0.98896 -0.10480 -0.10480
  outer loop
    vertex 705.00000 22.27386 24.39518
    vertex 685.00000 116.64224 118.76356
    vertex 685.00000 118.76356 116.64224
  endloop
endfacet
facet normal -0.98896 -0.10480 -0.10480
  outer loop
    vertex 705.00000 22.27386 24.39518
    vertex 685.00000 118.76356 116.64224
    vertex 705.00000 24.39518 22.27386
  endloop
endfacet
facet normal 0.00000 -0.70711 -0.70711
  outer loop
    vertex 630.00000 118.76356 116.64224
    vertex 685.00000 118.76356 116.64224
    vertex 685.00000 116.64224 118.76356
  endloop
endfacet
facet normal 0.00000 -0.70711 -0.70711
  outer loop
    vertex 630.00000 118.76356 116.64224
    vertex 685.00000 116.64224 118.76356
    vertex 630.00000 116.64224 118.76356
  endloop
endfacet
facet normal -0.00000 0.70711 0.70711
  outer loop
    vertex 575.00000 22.27386 24.39518
    vertex 705.00000 22.27386 24.39518
    vertex 705.00000 24.39518 22.27386
  endloop
endfacet
facet normal 0.00000 0.70711 0.70711
  outer loop
    vertex 575.00000 22.27386 24.39518
    vertex 705.00000 24.39518 22.27386
    vertex 575.00000 24.39518 22.27386
  endloop
endfacet
facet normal 0.00000 -0.70711 -0.70711
  outer loop
    vertex 575.00000 -24.39518 22.27386
    vertex 705.00000 -24.39518 22.27386
    vertex 685.00000 -118.76356 116.64224
  endloop
endfacet
facet normal 0.00000 -0.70711 -0.70711
  outer loop
    vertex 575.00000 -24.39518 22.27386
    vertex 685.00000 -118.76356 116.64224
    vertex 630.00000 -118.76356 116.64224
  endloop
endfacet
facet normal -0.00000 0.70711 0.70711
  outer loop
    vertex 630.00000 -116.64224 118.76356
    vertex 685.00000 -116.64224 118.76356
    vertex 705.00000 -22.27386 24.39518
  endloop
endfacet
facet normal 0.00000 0.70711 0.70711
  outer loop
    vertex 630.00000 -116.64224 118.76356
    vertex 705.00000 -22.27386 24.39518
    vertex 575.00000 -22.27386 24.39518
  endloop
endfacet
facet normal 0.92456 0.26943 -0.26943
  outer loop
    vertex 575.00000 -22.27386 24.39518
    vertex 630.00000 -116.64224 118.76356
    vertex 630.00000 -118.76356 116.64224
  endloop
endfacet
facet normal 0.92456 0.26943 -0.26943
  outer loop
    vertex 575.00000 -22.27386 24.39518
    vertex 630.00000 -118.76356 116.64224
    vertex 575.00000 -24.39518 22.27386
  endloop
endfacet
facet normal -0.98896 0.10480 -0.10480
  outer loop
    vertex 705.00000 -24.39518 22.27386
    vertex 685.00000 -118.76356 116.64224
    vertex 685.00000 -116.64224 118.76356
  endloop
endfacet
facet normal -0.98896 0.10480 -0.10480
  outer loop
    vertex 705.00000 -24.39518 22.27386
    vertex 685.00000 -116.64224 118.76356
    vertex 705.00000 -22.27386 24.39518
  endloop
endfacet
facet normal 0.00000 0.70711 -0.70711
  outer loop
    vertex 630.00000 -116.64224 118.76356
    vertex 685.00000 -116.64224 118.76356
    vertex 685.00000 -118.76356 116.64224
  endloop
endfacet
facet normal 0.00000 0.70711 -0.70711
  outer loop
    vertex 630.00000 -116.64224 118.76356
    vertex 685.00000 -118.76356 116.64224
    vertex 630.00000 -118.76356 116.64224
  endloop
endfacet
facet normal 0.00000 -0.70711 0.70711
  outer loop
    vertex 575.00000 -24.39518 22.27386
    vertex 705.00000 -24.39518 22.27386
    vertex 705.00000 -22.27386 24.39518
  endloop
endfacet
facet normal 0.00000 -0.70711 0.70711
  outer loop
    vertex 575.00000 -24.39518 22.27386
    vertex 705.00000 -22.27386 24.39518
    vertex 575.00000 -22.27386 24.39518
  endloop
endfacet
facet normal 0.00000 0.70711 -0.70711
  outer loop
    vertex 575.00000 -22.27386 -24.39518
    vertex 705.00000 -22.27386 -24.39518
    vertex 685.00000 -116.64224 -118.76356
  endloop
endfacet
facet normal 0.00000 0.70711 -0.70711
  outer loop
    vertex 575.00000 -22.27386 -24.39518
    vertex 685.00000 -116.64224 -118.76356
    vertex 630.00000 -116.64224 -118.76356
  endloop
endfacet
facet normal 0.00000 -0.70711 0.70711
  outer loop
    vertex 630.00000 -118.76356 -116.64224
    vertex 685.00000 -118.76356 -116.64224
    vertex 705.00000 -24.39518 -22.27386
  endloop
endfacet
facet normal 0.00000 -0.70711 0.70711
  outer loop
    vertex 630.00000 -118.76356 -116.64224
    vertex 705.00000 -24.39518 -22.27386
    vertex 575.00000 -24.39518 -22.27386
  endloop
endfacet
facet normal 0.92456 0.26943 0.26943
  outer loop
    vertex 575.00000 -24.39518 -22.27386
    vertex 630.00000 -118.76356 -116.64224
    vertex 630.00000 -116.64224 -118.76356
  endloop
endfacet
facet normal 0.92456 0.26943 0.26943
  outer loop
    vertex 575.00000 -24.39518 -22.27386
    vertex 630.00000 -116.64224 -118.76356
    vertex 575.00000 -22.27386 -24.39518
  endloop
endfacet
facet normal -0.98896 0.10480 0.10480
  outer loop
    vertex 705.00000 -22.27386 -24.39518
    vertex 685.00000 -116.64224 -118.76356
    vertex 685.00000 -118.76356 -116.64224
  endloop
endfacet
facet normal -0.98896 0.10480 0.10480
  outer loop
    vertex 705.00000 -22.27386 -24.39518
    vertex 685.00000 -118.76356 -116.64224
    vertex 705.00000 -24.39518 -22.27386
  endloop
endfacet
facet normal -0.00000 0.70711 0.70711
  outer loop
    vertex 630.00000 -118.76356 -116.64224
    vertex 685.00000 -118.76356 -116.64224
    vertex 685.00000 -116.64224 -118.76356
  endloop
endfacet
facet normal 0.00000 0.70711 0.70711
  outer loop
    vertex 630.00000 -118.76356 -116.64224
    vertex 685.00000 -116.64224 -118.76356
    vertex 630.00000 -116.64224 -118.76356
  endloop
endfacet
facet normal 0.00000 -0.70711 -0.70711
  outer loop
    vertex 575.00000 -22.27386 -24.39518
    vertex 705.00000 -22.27386 -24.39518
    vertex 705.00000 -24.39518 -22.27386
  endloop
endfacet
facet normal 0.00000 -0.70711 -0.70711
  outer loop
    vertex 575.00000 -22.27386 -24.39518
    vertex 705.00000 -24.39518 -22.27386
    vertex 575.00000 -24.39518 -22.27386
  endloop
endfacet
facet normal -0.00000 0.70711 0.70711
  outer loop
    vertex 575.00000 24.39518 -22.27386
    vertex 705.00000 24.39518 -22.27386
    vertex 685.00000 118.76356 -116.64224
  endloop
endfacet
facet normal 0.00000 0.70711 0.70711
  outer loop
    vertex 575.00000 24.39518 -22.27386
    vertex 685.00000 118.76356 -116.64224
    vertex 630.00000 118.76356 -116.64224
  endloop
endfacet
facet normal 0.00000 -0.70711 -0.70711
  outer loop
    vertex 630.00000 116.64224 -118.76356
    vertex 685.00000 116.64224 -118.76356
    vertex 705.00000 22.27386 -24.39518
  endloop
endfacet
facet normal 0.00000 -0.70711 -0.70711
  outer loop
    vertex 630.00000 116.64224 -118.76356
    vertex 705.00000 22.27386 -24.39518
    vertex 575.00000 22.27386 -24.39518
  endloop
endfacet
facet normal 0.92456 -0.26943 0.26943
  outer loop
    vertex 575.00000 22.27386 -24.39518
    vertex 630.00000 116.64224 -118.76356
    vertex 630.00000 118.76356 -116.64224
  endloop
endfacet
facet normal 0.92456 -0.26943 0.26943
  outer loop
    vertex 575.00000 22.27386 -24.39518
    vertex 630.00000 118.76356 -116.64224
    vertex 575.00000 24.39518 -22.27386
  endloop
endfacet
facet normal -0.98896 -0.10480 0.10480
  outer loop
    vertex 705.00000 24.39518 -22.27386
    vertex 685.00000 118.76356 -116.64224
    vertex 685.00000 116.64224 -118.76356
  endloop
endfacet
facet normal -0.98896 -0.10480 0.10480
  outer loop
    vertex 705.00000 24.39518 -22.27386
    vertex 685.00000 116.64224 -118.76356
    vertex 705.00000 22.27386 -24.39518
  endloop
endfacet
facet normal 0.00000 -0.70711 0.70711
  outer loop
    vertex 630.00000 116.64224 -118.76356
    vertex 685.00000 116.64224 -118.76356
    vertex 685.00000 118.76356 -116.64224
  endloop
endfacet
facet normal 0.00000 -0.70711 0.70711
  outer loop
    vertex 630.00000 116.64224 -118.76356
    vertex 685.00000 118.76356 -116.64224
    vertex 630.00000 118.76356 -116.64224
  endloop
endfacet
facet normal 0.00000 0.70711 -0.70711
  outer loop
    vertex 575.00000 24.39518 -22.27386
    vertex 705.00000 24.39518 -22.27386
    vertex 705.00000 22.27386 -24.39518
  endloop
endfacet
facet normal 0.00000 0.70711 -0.70711
  outer loop
    vertex 575.00000 24.39518 -22.27386
    vertex 705.00000 22.27386 -24.39518
    vertex 575.00000 22.27386 -24.39518
  endloop
endfacet
endsolid CSWARCMOD1E.ork_finset_wind1_97ms
