solid CSWARCMOD1E.ork_finset_wind2_26ms
facet normal 0.00000 -0.70711 0.70711
  outer loop
    vertex 575.00000 22.27386 24.39518
    vertex 705.00000 22.27386 24.39518
    vertex 685.00000 111.56681 113.68813
  endloop
endfacet
facet normal 0.00000 -0.70711 0.70711
  outer loop
    vertex 575.00000 22.27386 24.39518
    vertex 685.00000 111.56681 113.68813
    vertex 630.00000 111.56681 113.68813
  endloop
endfacet
facet normal 0.00000 0.70711 -0.70711
  outer loop
    vertex 630.00000 113.68813 111.56681
    vertex 685.00000 113.68813 111.56681
    vertex 705.00000 24.39518 22.27386
  endloop
endfacet
facet normal 0.00000 0.70711 -0.70711
  outer loop
    vertex 630.00000 113.68813 111.56681
    vertex 705.00000 24.39518 22.27386
    vertex 575.00000 24.39518 22.27386
  endloop
endfacet
facet normal 0.91682 -0.28236 -0.28236
  outer loop
    vertex 575.00000 24.39518 22.27386
    vertex 630.00000 113.68813 111.56681
    vertex 630.00000 111.56681 113.68813
  endloop
endfacet
facet normal 0.91682 -0.28236 -0.28236
  outer loop
    vertex 575.00000 24.39518 22.27386
    vertex 630.00000 111.56681 113.68813
    vertex 575.00000 22.27386 24.39518
  endloop
endfacet
facet normal -0.98769 -0.11061 -0.11061
  outer loop
    vertex 705.00000 22.27386 24.39518
    vertex 685.00000 111.56681 113.68813
    vertex 685.00000 113.68813 111.56681
  endloop
endfacet
facet normal -0.98769 -0.11061 -0.11061
  outer loop
    vertex 705.00000 22.27386 24.39518
    vertex 685.00000 113.68813 111.56681
    vertex 705.00000 24.39518 22.27386
  endloop
endfacet
facet normal 0.00000 -0.70711 -0.70711
  outer loop
    vertex 630.00000 113.68813 111.56681
    vertex 685.00000 113.68813 111.56681
    vertex 685.00000 111.56681 113.68813
  endloop
endfacet
facet normal 0.00000 -0.70711 -0.70711
  outer loop
    vertex 630.00000 113.68813 111.56681
    vertex 685.00000 111.56681 113.68813
    vertex 630.00000 111.56681 113.68813
  endloop
endfacet
facet normal -0.00000 0.70711 0.70711
  outer loop
    vertex 575.00000 22.27386 24.39518
    vertex 705.00000 22.27386 24.39518
    vertex 705.00000 24.39518 22.27386
  endloop
endfacet
facet normal 0.00000 0.70711 0.70711
  outer loop
    vertex 575.00000 22.27386 24.39518
    vertex 705.00000 24.39518 22.27386
    vertex 575.00000 24.39518 22.27386
  endloop
endfacet
facet normal 0.00000 -0.70711 -0.70711
  outer loop
    vertex 575.00000 -24.39518 22.27386
    vertex 705.00000 -24.39518 22.27386
    vertex 685.00000 -113.68813 111.56681
  endloop
endfacet
facet normal 0.00000 -0.70711 -0.70711
  outer loop
    vertex 575.00000 -24.39518 22.27386
    vertex 685.00000 -113.68813 111.56681
    vertex 630.00000 -113.68813 111.56681
  endloop
endfacet
facet normal -0.00000 0.70711 0.70711
  outer loop
    vertex 630.00000 -111.56681 113.68813
    vertex 685.00000 -111.56681 113.68813
    vertex 705.00000 -22.27386 24.39518
  endloop
endfacet
facet normal 0.00000 0.70711 0.70711
  outer loop
    vertex 630.00000 -111.56681 113.68813
    vertex 705.00000 -22.27386 24.39518
    vertex 575.00000 -22.27386 24.39518
  endloop
endfacet
facet normal 0.91682 0.28236 -0.28236
  outer loop
    vertex 575.00000 -22.27386 24.39518
    vertex 630.00000 -111.56681 113.68813
    vertex 630.00000 -113.68813 111.56681
  endloop
endfacet
facet normal 0.91682 0.28236 -0.28236
  outer loop
    vertex 575.00000 -22.27386 24.39518
    vertex 630.00000 -113.68813 111.56681
    vertex 575.00000 -24.39518 22.27386
  endloop
endfacet
facet normal -0.98769 0.11061 -0.11061
  outer loop
    vertex 705.00000 -24.39518 22.27386
    vertex 685.00000 -113.68813 111.56681
    vertex 685.00000 -111.56681 113.68813
  endloop
endfacet
facet normal -0.98769 0.11061 -0.11061
  outer loop
    vertex 705.00000 -24.39518 22.27386
    vertex 685.00000 -111.56681 113.68813
    vertex 705.00000 -22.27386 24.39518
  endloop
endfacet
facet normal 0.00000 0.70711 -0.70711
  outer loop
    vertex 630.00000 -111.56681 113.68813
    vertex 685.00000 -111.56681 113.68813
    vertex 685.00000 -113.68813 111.56681
  endloop
endfacet
facet normal 0.00000 0.70711 -0.70711
  outer loop
    vertex 630.00000 -111.56681 113.68813
    vertex 685.00000 -113.68813 111.56681
    vertex 630.00000 -113.68813 111.56681
  endloop
endfacet
facet normal 0.00000 -0.70711 0.70711
  outer loop
    vertex 575.00000 -24.39518 22.27386
    vertex 705.00000 -24.39518 22.27386
    vertex 705.00000 -22.27386 24.39518
  endloop
endfacet
facet normal 0.00000 -0.70711 0.70711
  outer loop
    vertex 575.00000 -24.39518 22.27386
    vertex 705.00000 -22.27386 24.39518
    vertex 575.00000 -22.27386 24.39518
  endloop
endfacet
facet normal 0.00000 0.70711 -0.70711
  outer loop
    vertex 575.00000 -22.27386 -24.39518
    vertex 705.00000 -22.27386 -24.39518
    vertex 685.00000 -111.56681 -113.68813
  endloop
endfacet
facet normal 0.00000 0.70711 -0.70711
  outer loop
    vertex 575.00000 -22.27386 -24.39518
    vertex 685.00000 -111.56681 -113.68813
    vertex 630.00000 -111.56681 -113.68813
  endloop
endfacet
facet normal 0.00000 -0.70711 0.70711
  outer loop
    vertex 630.00000 -113.68813 -111.56681
    vertex 685.00000 -113.68813 -111.56681
    vertex 705.00000 -24.39518 -22.27386
  endloop
endfacet
facet normal 0.00000 -0.70711 0.70711
  outer loop
    vertex 630.00000 -113.68813 -111.56681
    vertex 705.00000 -24.39518 -22.27386
    vertex 575.00000 -24.39518 -22.27386
  endloop
endfacet
facet normal 0.91682 0.28236 0.28236
  outer loop
    vertex 575.00000 -24.39518 -22.27386
    vertex 630.00000 -113.68813 -111.56681
    vertex 630.00000 -111.56681 -113.68813
  endloop
endfacet
facet normal 0.91682 0.28236 0.28236
  outer loop
    vertex 575.00000 -24.39518 -22.27386
    vertex 630.00000 -111.56681 -113.68813
    vertex 575.00000 -22.27386 -24.39518
  endloop
endfacet
facet normal -0.98769 0.11061 0.11061
  outer loop
    vertex 705.00000 -22.27386 -24.39518
    vertex 685.00000 -111.56681 -113.68813
    vertex 685.00000 -113.68813 -111.56681
  endloop
endfacet
facet normal -0.98769 0.11061 0.11061
  outer loop
    vertex 705.00000 -22.27386 -24.39518
    vertex 685.00000 -113.68813 -111.56681
    vertex 705.00000 -24.39518 -22.27386
  endloop
endfacet
facet normal -0.00000 0.70711 0.70711
  outer loop
    vertex 630.00000 -113.68813 -111.56681
    vertex 685.00000 -113.68813 -111.56681
    vertex 685.00000 -111.56681 -113.68813
  endloop
endfacet
facet normal 0.00000 0.70711 0.70711
  outer loop
    vertex 630.00000 -113.68813 -111.56681
    vertex 685.00000 -111.56681 -113.68813
    vertex 630.00000 -111.56681 -113.68813
  endloop
endfacet
facet normal 0.00000 -0.70711 -0.70711
  outer loop
    vertex 575.00000 -22.27386 -24.39518
    vertex 705.00000 -22.27386 -24.39518
    vertex 705.00000 -24.39518 -22.27386
  endloop
endfacet
facet normal 0.00000 -0.70711 -0.70711
  outer loop
    vertex 575.00000 -22.27386 -24.39518
    vertex 705.00000 -24.39518 -22.27386
    vertex 575.00000 -24.39518 -22.27386
  endloop
endfacet
facet normal -0.00000 0.70711 0.70711
  outer loop
    vertex 575.00000 24.39518 -22.27386
    vertex 705.00000 24.39518 -22.27386
    vertex 685.00000 113.68813 -111.56681
  endloop
endfacet
facet normal 0.00000 0.70711 0.70711
  outer loop
    vertex 575.00000 24.39518 -22.27386
    vertex 685.00000 113.68813 -111.56681
    vertex 630.00000 113.68813 -111.56681
  endloop
endfacet
facet normal 0.00000 -0.70711 -0.70711
  outer loop
    vertex 630.00000 111.56681 -113.68813
    vertex 685.00000 111.56681 -113.68813
    vertex 705.00000 22.27386 -24.39518
  endloop
endfacet
facet normal 0.00000 -0.70711 -0.70711
  outer loop
    vertex 630.00000 111.56681 -113.68813
    vertex 705.00000 22.27386 -24.39518
    vertex 575.00000 22.27386 -24.39518
  endloop
endfacet
facet normal 0.91682 -0.28236 0.28236
  outer loop
    vertex 575.00000 22.27386 -24.39518
    vertex 630.00000 111.56681 -113.68813
    vertex 630.00000 113.68813 -111.56681
  endloop
endfacet
facet normal 0.91682 -0.28236 0.28236
  outer loop
    vertex 575.00000 22.27386 -24.39518
    vertex 630.00000 113.68813 -111.56681
    vertex 575.00000 24.39518 -22.27386
  endloop
endfacet
facet normal -0.98769 -0.11061 0.11061
  outer loop
    vertex 705.00000 24.39518 -22.27386
    vertex 685.00000 113.68813 -111.56681
    vertex 685.00000 111.56681 -113.68813
  endloop
endfacet
facet normal -0.98769 -0.11061 0.11061
  outer loop
    vertex 705.00000 24.39518 -22.27386
    vertex 685.00000 111.56681 -113.68813
    vertex 705.00000 22.27386 -24.39518
  endloop
endfacet
facet normal 0.00000 -0.70711 0.70711
  outer loop
    vertex 630.00000 111.56681 -113.68813
    vertex 685.00000 111.56681 -113.68813
    vertex 685.00000 113.68813 -111.56681
  endloop
endfacet
facet normal 0.00000 -0.70711 0.70711
  outer loop
    vertex 630.00000 111.56681 -113.68813
    vertex 685.00000 113.68813 -111.56681
    vertex 630.00000 113.68813 -111.56681
  endloop
endfacet
facet normal 0.00000 0.70711 -0.70711
  outer loop
    vertex 575.00000 24.39518 -22.27386
    vertex 705.00000 24.39518 -22.27386
    vertex 705.00000 22.27386 -24.39518
  endloop
endfacet
facet normal 0.00000 0.70711 -0.70711
  outer loop
    vertex 575.00000 24.39518 -22.27386
    vertex 705.00000 22.27386 -24.39518
    vertex 575.00000 22.27386 -24.39518
  endloop
endfacet
endsolid CSWARCMOD1E.ork_finset_wind2_26ms
