solid CSWARCMOD1E.ork_finset_wind1_82ms
facet normal 0.00000 -0.70711 0.70711
  outer loop
    vertex 575.00000 22.27386 24.39518
    vertex 705.00000 22.27386 24.39518
    vertex 685.00000 119.01077 121.13209
  endloop
endfacet
facet normal 0.00000 -0.70711 0.70711
  outer loop
    vertex 575.00000 22.27386 24.39518
    vertex 685.00000 119.01077 121.13209
    vertex 630.00000 119.01077 121.13209
  endloop
endfacet
facet normal 0.00000 0.70711 -0.70711
  outer loop
    vertex 630.00000 121.13209 119.01077
    vertex 685.00000 121.13209 119.01077
    vertex 705.00000 24.39518 22.27386
  endloop
endfacet
facet normal 0.00000 0.70711 -0.70711
  outer loop
    vertex 630.00000 121.13209 119.01077
    vertex 705.00000 24.39518 22.27386
    vertex 575.00000 24.39518 22.27386
  endloop
endfacet
facet normal 0.92783 -0.26376 -0.26376
  outer loop
    vertex 575.00000 24.39518 22.27386
    vertex 630.00000 121.13209 119.01077
    vertex 630.00000 119.01077 121.13209
  endloop
endfacet
facet normal 0.92783 -0.26376 -0.26376
  outer loop
    vertex 575.00000 24.39518 22.27386
    vertex 630.00000 119.01077 121.13209
    vertex 575.00000 22.27386 24.39518
  endloop
endfacet
facet normal -0.98948 -0.10229 -0.10229
  outer loop
    vertex 705.00000 22.27386 24.39518
    vertex 685.00000 119.01077 121.13209
    vertex 685.00000 121.13209 119.01077
  endloop
endfacet
facet normal -0.98948 -0.10229 -0.10229
  outer loop
    vertex 705.00000 22.27386 24.39518
    vertex 685.00000 121.13209 119.01077
    vertex 705.00000 24.39518 22.27386
  endloop
endfacet
facet normal 0.00000 -0.70711 -0.70711
  outer loop
    vertex 630.00000 121.13209 119.01077
    vertex 685.00000 121.13209 119.01077
    vertex 685.00000 119.01077 121.13209
  endloop
endfacet
facet normal 0.00000 -0.70711 -0.70711
  outer loop
    vertex 630.00000 121.13209 119.01077
    vertex 685.00000 119.01077 121.13209
    vertex 630.00000 119.01077 121.13209
  endloop
endfacet
facet normal -0.00000 0.70711 0.70711
  outer loop
    vertex 575.00000 22.27386 24.39518
    vertex 705.00000 22.27386 24.39518
    vertex 705.00000 24.39518 22.27386
  endloop
endfacet
facet normal 0.00000 0.70711 0.70711
  outer loop
    vertex 575.00000 22.27386 24.39518
    vertex 705.00000 24.39518 22.27386
    vertex 575.00000 24.39518 22.27386
  endloop
endfacet
facet normal 0.00000 -0.70711 -0.70711
  outer loop
    vertex 575.00000 -24.39518 22.27386
    vertex 705.00000 -24.39518 22.27386
    vertex 685.00000 -121.13209 119.01077
  endloop
endfacet
facet normal 0.00000 -0.70711 -0.70711
  outer loop
    vertex 575.00000 -24.39518 22.27386
    vertex 685.00000 -121.13209 119.01077
    vertex 630.00000 -121.13209 119.01077
  endloop
endfacet
facet normal -0.00000 0.70711 0.70711
  outer loop
    vertex 630.00000 -119.01077 121.13209
    vertex 685.00000 -119.01077 121.13209
    vertex 705.00000 -22.27386 24.39518
  endloop
endfacet
facet normal 0.00000 0.70711 0.70711
  outer loop
    vertex 630.00000 -119.01077 121.13209
    vertex 705.00000 -22.27386 24.39518
    vertex 575.00000 -22.27386 24.39518
  endloop
endfacet
facet normal 0.92783 0.26376 -0.26376
  outer loop
    vertex 575.00000 -22.27386 24.39518
    vertex 630.00000 -119.01077 121.13209
    vertex 630.00000 -121.13209 119.01077
  endloop
endfacet
facet normal 0.92783 0.26376 -0.26376
  outer loop
    vertex 575.00000 -22.27386 24.39518
    vertex 630.00000 -121.13209 119.01077
    vertex 575.00000 -24.39518 22.27386
  endloop
endfacet
facet normal -0.98948 0.10229 -0.10229
  outer loop
    vertex 705.00000 -24.39518 22.27386
    vertex 685.00000 -121.13209 119.01077
    vertex 685.00000 -119.01077 121.13209
  endloop
endfacet
facet normal -0.98948 0.10229 -0.10229
  outer loop
    vertex 705.00000 -24.39518 22.27386
    vertex 685.00000 -119.01077 121.13209
    vertex 705.00000 -22.27386 24.39518
  endloop
endfacet
facet normal 0.00000 0.70711 -0.70711
  outer loop
    vertex 630.00000 -119.01077 121.13209
    vertex 685.00000 -119.01077 121.13209
    vertex 685.00000 -121.13209 119.01077
  endloop
endfacet
facet normal 0.00000 0.70711 -0.70711
  outer loop
    vertex 630.00000 -119.01077 121.13209
    vertex 685.00000 -121.13209 119.01077
    vertex 630.00000 -121.13209 119.01077
  endloop
endfacet
facet normal 0.00000 -0.70711 0.70711
  outer loop
    vertex 575.00000 -24.39518 22.27386
    vertex 705.00000 -24.39518 22.27386
    vertex 705.00000 -22.27386 24.39518
  endloop
endfacet
facet normal 0.00000 -0.70711 0.70711
  outer loop
    vertex 575.00000 -24.39518 22.27386
    vertex 705.00000 -22.27386 24.39518
    vertex 575.00000 -22.27386 24.39518
  endloop
endfacet
facet normal 0.00000 0.70711 -0.70711
  outer loop
    vertex 575.00000 -22.27386 -24.39518
    vertex 705.00000 -22.27386 -24.39518
    vertex 685.00000 -119.01077 -121.13209
  endloop
endfacet
facet normal 0.00000 0.70711 -0.70711
  outer loop
    vertex 575.00000 -22.27386 -24.39518
    vertex 685.00000 -119.01077 -121.13209
    vertex 630.00000 -119.01077 -121.13209
  endloop
endfacet
facet normal 0.00000 -0.70711 0.70711
  outer loop
    vertex 630.00000 -121.13209 -119.01077
    vertex 685.00000 -121.13209 -119.01077
    vertex 705.00000 -24.39518 -22.27386
  endloop
endfacet
facet normal 0.00000 -0.70711 0.70711
  outer loop
    vertex 630.00000 -121.13209 -119.01077
    vertex 705.00000 -24.39518 -22.27386
    vertex 575.00000 -24.39518 -22.27386
  endloop
endfacet
facet normal 0.92783 0.26376 0.26376
  outer loop
    vertex 575.00000 -24.39518 -22.27386
    vertex 630.00000 -121.13209 -119.01077
    vertex 630.00000 -119.01077 -121.13209
  endloop
endfacet
facet normal 0.92783 0.26376 0.26376
  outer loop
    vertex 575.00000 -24.39518 -22.27386
    vertex 630.00000 -119.01077 -121.13209
    vertex 575.00000 -22.27386 -24.39518
  endloop
endfacet
facet normal -0.98948 0.10229 0.10229
  outer loop
    vertex 705.00000 -22.27386 -24.39518
    vertex 685.00000 -119.01077 -121.13209
    vertex 685.00000 -121.13209 -119.01077
  endloop
endfacet
facet normal -0.98948 0.10229 0.10229
  outer loop
    vertex 705.00000 -22.27386 -24.39518
    vertex 685.00000 -121.13209 -119.01077
    vertex 705.00000 -24.39518 -22.27386
  endloop
endfacet
facet normal -0.00000 0.70711 0.70711
  outer loop
    vertex 630.00000 -121.13209 -119.01077
    vertex 685.00000 -121.13209 -119.01077
    vertex 685.00000 -119.01077 -121.13209
  endloop
endfacet
facet normal 0.00000 0.70711 0.70711
  outer loop
    vertex 630.00000 -121.13209 -119.01077
    vertex 685.00000 -119.01077 -121.13209
    vertex 630.00000 -119.01077 -121.13209
  endloop
endfacet
facet normal 0.00000 -0.70711 -0.70711
  outer loop
    vertex 575.00000 -22.27386 -24.39518
    vertex 705.00000 -22.27386 -24.39518
    vertex 705.00000 -24.39518 -22.27386
  endloop
endfacet
facet normal 0.00000 -0.70711 -0.70711
  outer loop
    vertex 575.00000 -22.27386 -24.39518
    vertex 705.00000 -24.39518 -22.27386
    vertex 575.00000 -24.39518 -22.27386
  endloop
endfacet
facet normal -0.00000 0.70711 0.70711
  outer loop
    vertex 575.00000 24.39518 -22.27386
    vertex 705.00000 24.39518 -22.27386
    vertex 685.00000 121.13209 -119.01077
  endloop
endfacet
facet normal 0.00000 0.70711 0.70711
  outer loop
    vertex 575.00000 24.39518 -22.27386
    vertex 685.00000 121.13209 -119.01077
    vertex 630.00000 121.13209 -119.01077
  endloop
endfacet
facet normal 0.00000 -0.70711 -0.70711
  outer loop
    vertex 630.00000 119.01077 -121.13209
    vertex 685.00000 119.01077 -121.13209
    vertex 705.00000 22.27386 -24.39518
  endloop
endfacet
facet normal 0.00000 -0.70711 -0.70711
  outer loop
    vertex 630.00000 119.01077 -121.13209
    vertex 705.00000 22.27386 -24.39518
    vertex 575.00000 22.27386 -24.39518
  endloop
endfacet
facet normal 0.92783 -0.26376 0.26376
  outer loop
    vertex 575.00000 22.27386 -24.39518
    vertex 630.00000 119.01077 -121.13209
    vertex 630.00000 121.13209 -119.01077
  endloop
endfacet
facet normal 0.92783 -0.26376 0.26376
  outer loop
    vertex 575.00000 22.27386 -24.39518
    vertex 630.00000 121.13209 -119.01077
    vertex 575.00000 24.39518 -22.27386
  endloop
endfacet
facet normal -0.98948 -0.10229 0.10229
  outer loop
    vertex 705.00000 24.39518 -22.27386
    vertex 685.00000 121.13209 -119.01077
    vertex 685.00000 119.01077 -121.13209
  endloop
endfacet
facet normal -0.98948 -0.10229 0.10229
  outer loop
    vertex 705.00000 24.39518 -22.27386
    vertex 685.00000 119.01077 -121.13209
    vertex 705.00000 22.27386 -24.39518
  endloop
endfacet
facet normal 0.00000 -0.70711 0.70711
  outer loop
    vertex 630.00000 119.01077 -121.13209
    vertex 685.00000 119.01077 -121.13209
    vertex 685.00000 121.13209 -119.01077
  endloop
endfacet
facet normal 0.00000 -0.70711 0.70711
  outer loop
    vertex 630.00000 119.01077 -121.13209
    vertex 685.00000 121.13209 -119.01077
    vertex 630.00000 121.13209 -119.01077
  endloop
endfacet
facet normal 0.00000 0.70711 -0.70711
  outer loop
    vertex 575.00000 24.39518 -22.27386
    vertex 705.00000 24.39518 -22.27386
    vertex 705.00000 22.27386 -24.39518
  endloop
endfacet
facet normal 0.00000 0.70711 -0.70711
  outer loop
    vertex 575.00000 24.39518 -22.27386
    vertex 705.00000 22.27386 -24.39518
    vertex 575.00000 22.27386 -24.39518
  endloop
endfacet
endsolid CSWARCMOD1E.ork_finset_wind1_82ms
