solid CSWARCMOD1E.ork_finset_wind6_69ms
facet normal 0.00000 -0.70711 0.70711
  outer loop
    vertex 575.00000 22.27386 24.39518
    vertex 705.00000 22.27386 24.39518
    vertex 685.00000 48.48653 50.60785
  endloop
endfacet
facet normal 0.00000 -0.70711 0.70711
  outer loop
    vertex 575.00000 22.27386 24.39518
    vertex 685.00000 48.48653 50.60785
    vertex 630.00000 48.48653 50.60785
  endloop
endfacet
facet normal 0.00000 0.70711 -0.70711
  outer loop
    vertex 630.00000 50.60785 48.48653
    vertex 685.00000 50.60785 48.48653
    vertex 705.00000 24.39518 22.27386
  endloop
endfacet
facet normal 0.00000 0.70711 -0.70711
  outer loop
    vertex 630.00000 50.60785 48.48653
    vertex 705.00000 24.39518 22.27386
    vertex 575.00000 24.39518 22.27386
  endloop
endfacet
facet normal 0.55891 -0.58635 -0.58635
  outer loop
    vertex 575.00000 24.39518 22.27386
    vertex 630.00000 50.60785 48.48653
    vertex 630.00000 48.48653 50.60785
  endloop
endfacet
facet normal 0.55891 -0.58635 -0.58635
  outer loop
    vertex 575.00000 24.39518 22.27386
    vertex 630.00000 48.48653 50.60785
    vertex 575.00000 22.27386 24.39518
  endloop
endfacet
facet normal -0.88008 -0.33575 -0.33575
  outer loop
    vertex 705.00000 22.27386 24.39518
    vertex 685.00000 48.48653 50.60785
    vertex 685.00000 50.60785 48.48653
  endloop
endfacet
facet normal -0.88008 -0.33575 -0.33575
  outer loop
    vertex 705.00000 22.27386 24.39518
    vertex 685.00000 50.60785 48.48653
    vertex 705.00000 24.39518 22.27386
  endloop
endfacet
facet normal 0.00000 -0.70711 -0.70711
  outer loop
    vertex 630.00000 50.60785 48.48653
    vertex 685.00000 50.60785 48.48653
    vertex 685.00000 48.48653 50.60785
  endloop
endfacet
facet normal 0.00000 -0.70711 -0.70711
  outer loop
    vertex 630.00000 50.60785 48.48653
    vertex 685.00000 48.48653 50.60785
    vertex 630.00000 48.48653 50.60785
  endloop
endfacet
facet normal -0.00000 0.70711 0.70711
  outer loop
    vertex 575.00000 22.27386 24.39518
    vertex 705.00000 22.27386 24.39518
    vertex 705.00000 24.39518 22.27386
  endloop
endfacet
facet normal 0.00000 0.70711 0.70711
  outer loop
    vertex 575.00000 22.27386 24.39518
    vertex 705.00000 24.39518 22.27386
    vertex 575.00000 24.39518 22.27386
  endloop
endfacet
facet normal 0.00000 -0.70711 -0.70711
  outer loop
    vertex 575.00000 -24.39518 22.27386
    vertex 705.00000 -24.39518 22.27386
    vertex 685.00000 -50.60785 48.48653
  endloop
endfacet
facet normal 0.00000 -0.70711 -0.70711
  outer loop
    vertex 575.00000 -24.39518 22.27386
    vertex 685.00000 -50.60785 48.48653
    vertex 630.00000 -50.60785 48.48653
  endloop
endfacet
facet normal -0.00000 0.70711 0.70711
  outer loop
    vertex 630.00000 -48.48653 50.60785
    vertex 685.00000 -48.48653 50.60785
    vertex 705.00000 -22.27386 24.39518
  endloop
endfacet
facet normal 0.00000 0.70711 0.70711
  outer loop
    vertex 630.00000 -48.48653 50.60785
    vertex 705.00000 -22.27386 24.39518
    vertex 575.00000 -22.27386 24.39518
  endloop
endfacet
facet normal 0.55891 0.58635 -0.58635
  outer loop
    vertex 575.00000 -22.27386 24.39518
    vertex 630.00000 -48.48653 50.60785
    vertex 630.00000 -50.60785 48.48653
  endloop
endfacet
facet normal 0.55891 0.58635 -0.58635
  outer loop
    vertex 575.00000 -22.27386 24.39518
    vertex 630.00000 -50.60785 48.48653
    vertex 575.00000 -24.39518 22.27386
  endloop
endfacet
facet normal -0.88008 0.33575 -0.33575
  outer loop
    vertex 705.00000 -24.39518 22.27386
    vertex 685.00000 -50.60785 48.48653
    vertex 685.00000 -48.48653 50.60785
  endloop
endfacet
facet normal -0.88008 0.33575 -0.33575
  outer loop
    vertex 705.00000 -24.39518 22.27386
    vertex 685.00000 -48.48653 50.60785
    vertex 705.00000 -22.27386 24.39518
  endloop
endfacet
facet normal 0.00000 0.70711 -0.70711
  outer loop
    vertex 630.00000 -48.48653 50.60785
    vertex 685.00000 -48.48653 50.60785
    vertex 685.00000 -50.60785 48.48653
  endloop
endfacet
facet normal 0.00000 0.70711 -0.70711
  outer loop
    vertex 630.00000 -48.48653 50.60785
    vertex 685.00000 -50.60785 48.48653
    vertex 630.00000 -50.60785 48.48653
  endloop
endfacet
facet normal 0.00000 -0.70711 0.70711
  outer loop
    vertex 575.00000 -24.39518 22.27386
    vertex 705.00000 -24.39518 22.27386
    vertex 705.00000 -22.27386 24.39518
  endloop
endfacet
facet normal 0.00000 -0.70711 0.70711
  outer loop
    vertex 575.00000 -24.39518 22.27386
    vertex 705.00000 -22.27386 24.39518
    vertex 575.00000 -22.27386 24.39518
  endloop
endfacet
facet normal 0.00000 0.70711 -0.70711
  outer loop
    vertex 575.00000 -22.27386 -24.39518
    vertex 705.00000 -22.27386 -24.39518
    vertex 685.00000 -48.48653 -50.60785
  endloop
endfacet
facet normal 0.00000 0.70711 -0.70711
  outer loop
    vertex 575.00000 -22.27386 -24.39518
    vertex 685.00000 -48.48653 -50.60785
    vertex 630.00000 -48.48653 -50.60785
  endloop
endfacet
facet normal 0.00000 -0.70711 0.70711
  outer loop
    vertex 630.00000 -50.60785 -48.48653
    vertex 685.00000 -50.60785 -48.48653
    vertex 705.00000 -24.39518 -22.27386
  endloop
endfacet
facet normal 0.00000 -0.70711 0.70711
  outer loop
    vertex 630.00000 -50.60785 -48.48653
    vertex 705.00000 -24.39518 -22.27386
    vertex 575.00000 -24.39518 -22.27386
  endloop
endfacet
facet normal 0.55891 0.58635 0.58635
  outer loop
    vertex 575.00000 -24.39518 -22.27386
    vertex 630.00000 -50.60785 -48.48653
    vertex 630.00000 -48.48653 -50.60785
  endloop
endfacet
facet normal 0.55891 0.58635 0.58635
  outer loop
    vertex 575.00000 -24.39518 -22.27386
    vertex 630.00000 -48.48653 -50.60785
    vertex 575.00000 -22.27386 -24.39518
  endloop
endfacet
facet normal -0.88008 0.33575 0.33575
  outer loop
    vertex 705.00000 -22.27386 -24.39518
    vertex 685.00000 -48.48653 -50.60785
    vertex 685.00000 -50.60785 -48.48653
  endloop
endfacet
facet normal -0.88008 0.33575 0.33575
  outer loop
    vertex 705.00000 -22.27386 -24.39518
    vertex 685.00000 -50.60785 -48.48653
    vertex 705.00000 -24.39518 -22.27386
  endloop
endfacet
facet normal -0.00000 0.70711 0.70711
  outer loop
    vertex 630.00000 -50.60785 -48.48653
    vertex 685.00000 -50.60785 -48.48653
    vertex 685.00000 -48.48653 -50.60785
  endloop
endfacet
facet normal 0.00000 0.70711 0.70711
  outer loop
    vertex 630.00000 -50.60785 -48.48653
    vertex 685.00000 -48.48653 -50.60785
    vertex 630.00000 -48.48653 -50.60785
  endloop
endfacet
facet normal 0.00000 -0.70711 -0.70711
  outer loop
    vertex 575.00000 -22.27386 -24.39518
    vertex 705.00000 -22.27386 -24.39518
    vertex 705.00000 -24.39518 -22.27386
  endloop
endfacet
facet normal 0.00000 -0.70711 -0.70711
  outer loop
    vertex 575.00000 -22.27386 -24.39518
    vertex 705.00000 -24.39518 -22.27386
    vertex 575.00000 -24.39518 -22.27386
  endloop
endfacet
facet normal -0.00000 0.70711 0.70711
  outer loop
    vertex 575.00000 24.39518 -22.27386
    vertex 705.00000 24.39518 -22.27386
    vertex 685.00000 50.60785 -48.48653
  endloop
endfacet
facet normal 0.00000 0.70711 0.70711
  outer loop
    vertex 575.00000 24.39518 -22.27386
    vertex 685.00000 50.60785 -48.48653
    vertex 630.00000 50.60785 -48.48653
  endloop
endfacet
facet normal 0.00000 -0.70711 -0.70711
  outer loop
    vertex 630.00000 48.48653 -50.60785
    vertex 685.00000 48.48653 -50.60785
    vertex 705.00000 22.27386 -24.39518
  endloop
endfacet
facet normal 0.00000 -0.70711 -0.70711
  outer loop
    vertex 630.00000 48.48653 -50.60785
    vertex 705.00000 22.27386 -24.39518
    vertex 575.00000 22.27386 -24.39518
  endloop
endfacet
facet normal 0.55891 -0.58635 0.58635
  outer loop
    vertex 575.00000 22.27386 -24.39518
    vertex 630.00000 48.48653 -50.60785
    vertex 630.00000 50.60785 -48.48653
  endloop
endfacet
facet normal 0.55891 -0.58635 0.58635
  outer loop
    vertex 575.00000 22.27386 -24.39518
    vertex 630.00000 50.60785 -48.48653
    vertex 575.00000 24.39518 -22.27386
  endloop
endfacet
facet normal -0.88008 -0.33575 0.33575
  outer loop
    vertex 705.00000 24.39518 -22.27386
    vertex 685.00000 50.60785 -48.48653
    vertex 685.00000 48.48653 -50.60785
  endloop
endfacet
facet normal -0.88008 -0.33575 0.33575
  outer loop
    vertex 705.00000 24.39518 -22.27386
    vertex 685.00000 48.48653 -50.60785
    vertex 705.00000 22.27386 -24.39518
  endloop
endfacet
facet normal 0.00000 -0.70711 0.70711
  outer loop
    vertex 630.00000 48.48653 -50.60785
    vertex 685.00000 48.48653 -50.60785
    vertex 685.00000 50.60785 -48.48653
  endloop
endfacet
facet normal 0.00000 -0.70711 0.70711
  outer loop
    vertex 630.00000 48.48653 -50.60785
    vertex 685.00000 50.60785 -48.48653
    vertex 630.00000 50.60785 -48.48653
  endloop
endfacet
facet normal 0.00000 0.70711 -0.70711
  outer loop
    vertex 575.00000 24.39518 -22.27386
    vertex 705.00000 24.39518 -22.27386
    vertex 705.00000 22.27386 -24.39518
  endloop
endfacet
facet normal 0.00000 0.70711 -0.70711
  outer loop
    vertex 575.00000 24.39518 -22.27386
    vertex 705.00000 22.27386 -24.39518
    vertex 575.00000 22.27386 -24.39518
  endloop
endfacet
endsolid CSWARCMOD1E.ork_finset_wind6_69ms
