solid CSWARCMOD1E.ork_finset_wind7_53ms
facet normal 0.00000 -0.70711 0.70711
  outer loop
    vertex 575.00000 22.27386 24.39518
    vertex 705.00000 22.27386 24.39518
    vertex 685.00000 46.58519 48.70651
  endloop
endfacet
facet normal 0.00000 -0.70711 0.70711
  outer loop
    vertex 575.00000 22.27386 24.39518
    vertex 685.00000 46.58519 48.70651
    vertex 630.00000 46.58519 48.70651
  endloop
endfacet
facet normal 0.00000 0.70711 -0.70711
  outer loop
    vertex 630.00000 48.70651 46.58519
    vertex 685.00000 48.70651 46.58519
    vertex 705.00000 24.39518 22.27386
  endloop
endfacet
facet normal 0.00000 0.70711 -0.70711
  outer loop
    vertex 630.00000 48.70651 46.58519
    vertex 705.00000 24.39518 22.27386
    vertex 575.00000 24.39518 22.27386
  endloop
endfacet
facet normal 0.53007 -0.59959 -0.59959
  outer loop
    vertex 575.00000 24.39518 22.27386
    vertex 630.00000 48.70651 46.58519
    vertex 630.00000 46.58519 48.70651
  endloop
endfacet
facet normal 0.53007 -0.59959 -0.59959
  outer loop
    vertex 575.00000 24.39518 22.27386
    vertex 630.00000 46.58519 48.70651
    vertex 575.00000 22.27386 24.39518
  endloop
endfacet
facet normal -0.86439 -0.35555 -0.35555
  outer loop
    vertex 705.00000 22.27386 24.39518
    vertex 685.00000 46.58519 48.70651
    vertex 685.00000 48.70651 46.58519
  endloop
endfacet
facet normal -0.86439 -0.35555 -0.35555
  outer loop
    vertex 705.00000 22.27386 24.39518
    vertex 685.00000 48.70651 46.58519
    vertex 705.00000 24.39518 22.27386
  endloop
endfacet
facet normal 0.00000 -0.70711 -0.70711
  outer loop
    vertex 630.00000 48.70651 46.58519
    vertex 685.00000 48.70651 46.58519
    vertex 685.00000 46.58519 48.70651
  endloop
endfacet
facet normal 0.00000 -0.70711 -0.70711
  outer loop
    vertex 630.00000 48.70651 46.58519
    vertex 685.00000 46.58519 48.70651
    vertex 630.00000 46.58519 48.70651
  endloop
endfacet
facet normal -0.00000 0.70711 0.70711
  outer loop
    vertex 575.00000 22.27386 24.39518
    vertex 705.00000 22.27386 24.39518
    vertex 705.00000 24.39518 22.27386
  endloop
endfacet
facet normal 0.00000 0.70711 0.70711
  outer loop
    vertex 575.00000 22.27386 24.39518
    vertex 705.00000 24.39518 22.27386
    vertex 575.00000 24.39518 22.27386
  endloop
endfacet
facet normal 0.00000 -0.70711 -0.70711
  outer loop
    vertex 575.00000 -24.39518 22.27386
    vertex 705.00000 -24.39518 22.27386
    vertex 685.00000 -48.70651 46.58519
  endloop
endfacet
facet normal 0.00000 -0.70711 -0.70711
  outer loop
    vertex 575.00000 -24.39518 22.27386
    vertex 685.00000 -48.70651 46.58519
    vertex 630.00000 -48.70651 46.58519
  endloop
endfacet
facet normal -0.00000 0.70711 0.70711
  outer loop
    vertex 630.00000 -46.58519 48.70651
    vertex 685.00000 -46.58519 48.70651
    vertex 705.00000 -22.27386 24.39518
  endloop
endfacet
facet normal 0.00000 0.70711 0.70711
  outer loop
    vertex 630.00000 -46.58519 48.70651
    vertex 705.00000 -22.27386 24.39518
    vertex 575.00000 -22.27386 24.39518
  endloop
endfacet
facet normal 0.53007 0.59959 -0.59959
  outer loop
    vertex 575.00000 -22.27386 24.39518
    vertex 630.00000 -46.58519 48.70651
    vertex 630.00000 -48.70651 46.58519
  endloop
endfacet
facet normal 0.53007 0.59959 -0.59959
  outer loop
    vertex 575.00000 -22.27386 24.39518
    vertex 630.00000 -48.70651 46.58519
    vertex 575.00000 -24.39518 22.27386
  endloop
endfacet
facet normal -0.86439 0.35555 -0.35555
  outer loop
    vertex 705.00000 -24.39518 22.27386
    vertex 685.00000 -48.70651 46.58519
    vertex 685.00000 -46.58519 48.70651
  endloop
endfacet
facet normal -0.86439 0.35555 -0.35555
  outer loop
    vertex 705.00000 -24.39518 22.27386
    vertex 685.00000 -46.58519 48.70651
    vertex 705.00000 -22.27386 24.39518
  endloop
endfacet
facet normal 0.00000 0.70711 -0.70711
  outer loop
    vertex 630.00000 -46.58519 48.70651
    vertex 685.00000 -46.58519 48.70651
    vertex 685.00000 -48.70651 46.58519
  endloop
endfacet
facet normal 0.00000 0.70711 -0.70711
  outer loop
    vertex 630.00000 -46.58519 48.70651
    vertex 685.00000 -48.70651 46.58519
    vertex 630.00000 -48.70651 46.58519
  endloop
endfacet
facet normal 0.00000 -0.70711 0.70711
  outer loop
    vertex 575.00000 -24.39518 22.27386
    vertex 705.00000 -24.39518 22.27386
    vertex 705.00000 -22.27386 24.39518
  endloop
endfacet
facet normal 0.00000 -0.70711 0.70711
  outer loop
    vertex 575.00000 -24.39518 22.27386
    vertex 705.00000 -22.27386 24.39518
    vertex 575.00000 -22.27386 24.39518
  endloop
endfacet
facet normal 0.00000 0.70711 -0.70711
  outer loop
    vertex 575.00000 -22.27386 -24.39518
    vertex 705.00000 -22.27386 -24.39518
    vertex 685.00000 -46.58519 -48.70651
  endloop
endfacet
facet normal 0.00000 0.70711 -0.70711
  outer loop
    vertex 575.00000 -22.27386 -24.39518
    vertex 685.00000 -46.58519 -48.70651
    vertex 630.00000 -46.58519 -48.70651
  endloop
endfacet
facet normal 0.00000 -0.70711 0.70711
  outer loop
    vertex 630.00000 -48.70651 -46.58519
    vertex 685.00000 -48.70651 -46.58519
    vertex 705.00000 -24.39518 -22.27386
  endloop
endfacet
facet normal 0.00000 -0.70711 0.70711
  outer loop
    vertex 630.00000 -48.70651 -46.58519
    vertex 705.00000 -24.39518 -22.27386
    vertex 575.00000 -24.39518 -22.27386
  endloop
endfacet
facet normal 0.53007 0.59959 0.59959
  outer loop
    vertex 575.00000 -24.39518 -22.27386
    vertex 630.00000 -48.70651 -46.58519
    vertex 630.00000 -46.58519 -48.70651
  endloop
endfacet
facet normal 0.53007 0.59959 0.59959
  outer loop
    vertex 575.00000 -24.39518 -22.27386
    vertex 630.00000 -46.58519 -48.70651
    vertex 575.00000 -22.27386 -24.39518
  endloop
endfacet
facet normal -0.86439 0.35555 0.35555
  outer loop
    vertex 705.00000 -22.27386 -24.39518
    vertex 685.00000 -46.58519 -48.70651
    vertex 685.00000 -48.70651 -46.58519
  endloop
endfacet
facet normal -0.86439 0.35555 0.35555
  outer loop
    vertex 705.00000 -22.27386 -24.39518
    vertex 685.00000 -48.70651 -46.58519
    vertex 705.00000 -24.39518 -22.27386
  endloop
endfacet
facet normal -0.00000 0.70711 0.70711
  outer loop
    vertex 630.00000 -48.70651 -46.58519
    vertex 685.00000 -48.70651 -46.58519
    vertex 685.00000 -46.58519 -48.70651
  endloop
endfacet
facet normal 0.00000 0.70711 0.70711
  outer loop
    vertex 630.00000 -48.70651 -46.58519
    vertex 685.00000 -46.58519 -48.70651
    vertex 630.00000 -46.58519 -48.70651
  endloop
endfacet
facet normal 0.00000 -0.70711 -0.70711
  outer loop
    vertex 575.00000 -22.27386 -24.39518
    vertex 705.00000 -22.27386 -24.39518
    vertex 705.00000 -24.39518 -22.27386
  endloop
endfacet
facet normal 0.00000 -0.70711 -0.70711
  outer loop
    vertex 575.00000 -22.27386 -24.39518
    vertex 705.00000 -24.39518 -22.27386
    vertex 575.00000 -24.39518 -22.27386
  endloop
endfacet
facet normal -0.00000 0.70711 0.70711
  outer loop
    vertex 575.00000 24.39518 -22.27386
    vertex 705.00000 24.39518 -22.27386
    vertex 685.00000 48.70651 -46.58519
  endloop
endfacet
facet normal 0.00000 0.70711 0.70711
  outer loop
    vertex 575.00000 24.39518 -22.27386
    vertex 685.00000 48.70651 -46.58519
    vertex 630.00000 48.70651 -46.58519
  endloop
endfacet
facet normal 0.00000 -0.70711 -0.70711
  outer loop
    vertex 630.00000 46.58519 -48.70651
    vertex 685.00000 46.58519 -48.70651
    vertex 705.00000 22.27386 -24.39518
  endloop
endfacet
facet normal 0.00000 -0.70711 -0.70711
  outer loop
    vertex 630.00000 46.58519 -48.70651
    vertex 705.00000 22.27386 -24.39518
    vertex 575.00000 22.27386 -24.39518
  endloop
endfacet
facet normal 0.53007 -0.59959 0.59959
  outer loop
    vertex 575.00000 22.27386 -24.39518
    vertex 630.00000 46.58519 -48.70651
    vertex 630.00000 48.70651 -46.58519
  endloop
endfacet
facet normal 0.53007 -0.59959 0.59959
  outer loop
    vertex 575.00000 22.27386 -24.39518
    vertex 630.00000 48.70651 -46.58519
    vertex 575.00000 24.39518 -22.27386
  endloop
endfacet
facet normal -0.86439 -0.35555 0.35555
  outer loop
    vertex 705.00000 24.39518 -22.27386
    vertex 685.00000 48.70651 -46.58519
    vertex 685.00000 46.58519 -48.70651
  endloop
endfacet
facet normal -0.86439 -0.35555 0.35555
  outer loop
    vertex 705.00000 24.39518 -22.27386
    vertex 685.00000 46.58519 -48.70651
    vertex 705.00000 22.27386 -24.39518
  endloop
endfacet
facet normal 0.00000 -0.70711 0.70711
  outer loop
    vertex 630.00000 46.58519 -48.70651
    vertex 685.00000 46.58519 -48.70651
    vertex 685.00000 48.70651 -46.58519
  endloop
endfacet
facet normal 0.00000 -0.70711 0.70711
  outer loop
    vertex 630.00000 46.58519 -48.70651
    vertex 685.00000 48.70651 -46.58519
    vertex 630.00000 48.70651 -46.58519
  endloop
endfacet
facet normal 0.00000 0.70711 -0.70711
  outer loop
    vertex 575.00000 24.39518 -22.27386
    vertex 705.00000 24.39518 -22.27386
    vertex 705.00000 22.27386 -24.39518
  endloop
endfacet
facet normal 0.00000 0.70711 -0.70711
  outer loop
    vertex 575.00000 24.39518 -22.27386
    vertex 705.00000 22.27386 -24.39518
    vertex 575.00000 22.27386 -24.39518
  endloop
endfacet
endsolid CSWARCMOD1E.ork_finset_wind7_53ms
