solid CSWARCMOD1E.ork_finset_wind6_90ms
facet normal 0.00000 -0.70711 0.70711
  outer loop
    vertex 575.00000 22.27386 24.39518
    vertex 705.00000 22.27386 24.39518
    vertex 685.00000 47.88836 50.00968
  endloop
endfacet
facet normal 0.00000 -0.70711 0.70711
  outer loop
    vertex 575.00000 22.27386 24.39518
    vertex 685.00000 47.88836 50.00968
    vertex 630.00000 47.88836 50.00968
  endloop
endfacet
facet normal 0.00000 0.70711 -0.70711
  outer loop
    vertex 630.00000 50.00968 47.88836
    vertex 685.00000 50.00968 47.88836
    vertex 705.00000 24.39518 22.27386
  endloop
endfacet
facet normal 0.00000 0.70711 -0.70711
  outer loop
    vertex 630.00000 50.00968 47.88836
    vertex 705.00000 24.39518 22.27386
    vertex 575.00000 24.39518 22.27386
  endloop
endfacet
facet normal 0.55004 -0.59053 -0.59053
  outer loop
    vertex 575.00000 24.39518 22.27386
    vertex 630.00000 50.00968 47.88836
    vertex 630.00000 47.88836 50.00968
  endloop
endfacet
facet normal 0.55004 -0.59053 -0.59053
  outer loop
    vertex 575.00000 24.39518 22.27386
    vertex 630.00000 47.88836 50.00968
    vertex 575.00000 22.27386 24.39518
  endloop
endfacet
facet normal -0.87543 -0.34177 -0.34177
  outer loop
    vertex 705.00000 22.27386 24.39518
    vertex 685.00000 47.88836 50.00968
    vertex 685.00000 50.00968 47.88836
  endloop
endfacet
facet normal -0.87543 -0.34177 -0.34177
  outer loop
    vertex 705.00000 22.27386 24.39518
    vertex 685.00000 50.00968 47.88836
    vertex 705.00000 24.39518 22.27386
  endloop
endfacet
facet normal 0.00000 -0.70711 -0.70711
  outer loop
    vertex 630.00000 50.00968 47.88836
    vertex 685.00000 50.00968 47.88836
    vertex 685.00000 47.88836 50.00968
  endloop
endfacet
facet normal 0.00000 -0.70711 -0.70711
  outer loop
    vertex 630.00000 50.00968 47.88836
    vertex 685.00000 47.88836 50.00968
    vertex 630.00000 47.88836 50.00968
  endloop
endfacet
facet normal -0.00000 0.70711 0.70711
  outer loop
    vertex 575.00000 22.27386 24.39518
    vertex 705.00000 22.27386 24.39518
    vertex 705.00000 24.39518 22.27386
  endloop
endfacet
facet normal 0.00000 0.70711 0.70711
  outer loop
    vertex 575.00000 22.27386 24.39518
    vertex 705.00000 24.39518 22.27386
    vertex 575.00000 24.39518 22.27386
  endloop
endfacet
facet normal 0.00000 -0.70711 -0.70711
  outer loop
    vertex 575.00000 -24.39518 22.27386
    vertex 705.00000 -24.39518 22.27386
    vertex 685.00000 -50.00968 47.88836
  endloop
endfacet
facet normal 0.00000 -0.70711 -0.70711
  outer loop
    vertex 575.00000 -24.39518 22.27386
    vertex 685.00000 -50.00968 47.88836
    vertex 630.00000 -50.00968 47.88836
  endloop
endfacet
facet normal -0.00000 0.70711 0.70711
  outer loop
    vertex 630.00000 -47.88836 50.00968
    vertex 685.00000 -47.88836 50.00968
    vertex 705.00000 -22.27386 24.39518
  endloop
endfacet
facet normal 0.00000 0.70711 0.70711
  outer loop
    vertex 630.00000 -47.88836 50.00968
    vertex 705.00000 -22.27386 24.39518
    vertex 575.00000 -22.27386 24.39518
  endloop
endfacet
facet normal 0.55004 0.59053 -0.59053
  outer loop
    vertex 575.00000 -22.27386 24.39518
    vertex 630.00000 -47.88836 50.00968
    vertex 630.00000 -50.00968 47.88836
  endloop
endfacet
facet normal 0.55004 0.59053 -0.59053
  outer loop
    vertex 575.00000 -22.27386 24.39518
    vertex 630.00000 -50.00968 47.88836
    vertex 575.00000 -24.39518 22.27386
  endloop
endfacet
facet normal -0.87543 0.34177 -0.34177
  outer loop
    vertex 705.00000 -24.39518 22.27386
    vertex 685.00000 -50.00968 47.88836
    vertex 685.00000 -47.88836 50.00968
  endloop
endfacet
facet normal -0.87543 0.34177 -0.34177
  outer loop
    vertex 705.00000 -24.39518 22.27386
    vertex 685.00000 -47.88836 50.00968
    vertex 705.00000 -22.27386 24.39518
  endloop
endfacet
facet normal 0.00000 0.70711 -0.70711
  outer loop
    vertex 630.00000 -47.88836 50.00968
    vertex 685.00000 -47.88836 50.00968
    vertex 685.00000 -50.00968 47.88836
  endloop
endfacet
facet normal 0.00000 0.70711 -0.70711
  outer loop
    vertex 630.00000 -47.88836 50.00968
    vertex 685.00000 -50.00968 47.88836
    vertex 630.00000 -50.00968 47.88836
  endloop
endfacet
facet normal 0.00000 -0.70711 0.70711
  outer loop
    vertex 575.00000 -24.39518 22.27386
    vertex 705.00000 -24.39518 22.27386
    vertex 705.00000 -22.27386 24.39518
  endloop
endfacet
facet normal 0.00000 -0.70711 0.70711
  outer loop
    vertex 575.00000 -24.39518 22.27386
    vertex 705.00000 -22.27386 24.39518
    vertex 575.00000 -22.27386 24.39518
  endloop
endfacet
facet normal 0.00000 0.70711 -0.70711
  outer loop
    vertex 575.00000 -22.27386 -24.39518
    vertex 705.00000 -22.27386 -24.39518
    vertex 685.00000 -47.88836 -50.00968
  endloop
endfacet
facet normal 0.00000 0.70711 -0.70711
  outer loop
    vertex 575.00000 -22.27386 -24.39518
    vertex 685.00000 -47.88836 -50.00968
    vertex 630.00000 -47.88836 -50.00968
  endloop
endfacet
facet normal 0.00000 -0.70711 0.70711
  outer loop
    vertex 630.00000 -50.00968 -47.88836
    vertex 685.00000 -50.00968 -47.88836
    vertex 705.00000 -24.39518 -22.27386
  endloop
endfacet
facet normal 0.00000 -0.70711 0.70711
  outer loop
    vertex 630.00000 -50.00968 -47.88836
    vertex 705.00000 -24.39518 -22.27386
    vertex 575.00000 -24.39518 -22.27386
  endloop
endfacet
facet normal 0.55004 0.59053 0.59053
  outer loop
    vertex 575.00000 -24.39518 -22.27386
    vertex 630.00000 -50.00968 -47.88836
    vertex 630.00000 -47.88836 -50.00968
  endloop
endfacet
facet normal 0.55004 0.59053 0.59053
  outer loop
    vertex 575.00000 -24.39518 -22.27386
    vertex 630.00000 -47.88836 -50.00968
    vertex 575.00000 -22.27386 -24.39518
  endloop
endfacet
facet normal -0.87543 0.34177 0.34177
  outer loop
    vertex 705.00000 -22.27386 -24.39518
    vertex 685.00000 -47.88836 -50.00968
    vertex 685.00000 -50.00968 -47.88836
  endloop
endfacet
facet normal -0.87543 0.34177 0.34177
  outer loop
    vertex 705.00000 -22.27386 -24.39518
    vertex 685.00000 -50.00968 -47.88836
    vertex 705.00000 -24.39518 -22.27386
  endloop
endfacet
facet normal -0.00000 0.70711 0.70711
  outer loop
    vertex 630.00000 -50.00968 -47.88836
    vertex 685.00000 -50.00968 -47.88836
    vertex 685.00000 -47.88836 -50.00968
  endloop
endfacet
facet normal 0.00000 0.70711 0.70711
  outer loop
    vertex 630.00000 -50.00968 -47.88836
    vertex 685.00000 -47.88836 -50.00968
    vertex 630.00000 -47.88836 -50.00968
  endloop
endfacet
facet normal 0.00000 -0.70711 -0.70711
  outer loop
    vertex 575.00000 -22.27386 -24.39518
    vertex 705.00000 -22.27386 -24.39518
    vertex 705.00000 -24.39518 -22.27386
  endloop
endfacet
facet normal 0.00000 -0.70711 -0.70711
  outer loop
    vertex 575.00000 -22.27386 -24.39518
    vertex 705.00000 -24.39518 -22.27386
    vertex 575.00000 -24.39518 -22.27386
  endloop
endfacet
facet normal -0.00000 0.70711 0.70711
  outer loop
    vertex 575.00000 24.39518 -22.27386
    vertex 705.00000 24.39518 -22.27386
    vertex 685.00000 50.00968 -47.88836
  endloop
endfacet
facet normal 0.00000 0.70711 0.70711
  outer loop
    vertex 575.00000 24.39518 -22.27386
    vertex 685.00000 50.00968 -47.88836
    vertex 630.00000 50.00968 -47.88836
  endloop
endfacet
facet normal 0.00000 -0.70711 -0.70711
  outer loop
    vertex 630.00000 47.88836 -50.00968
    vertex 685.00000 47.88836 -50.00968
    vertex 705.00000 22.27386 -24.39518
  endloop
endfacet
facet normal 0.00000 -0.70711 -0.70711
  outer loop
    vertex 630.00000 47.88836 -50.00968
    vertex 705.00000 22.27386 -24.39518
    vertex 575.00000 22.27386 -24.39518
  endloop
endfacet
facet normal 0.55004 -0.59053 0.59053
  outer loop
    vertex 575.00000 22.27386 -24.39518
    vertex 630.00000 47.88836 -50.00968
    vertex 630.00000 50.00968 -47.88836
  endloop
endfacet
facet normal 0.55004 -0.59053 0.59053
  outer loop
    vertex 575.00000 22.27386 -24.39518
    vertex 630.00000 50.00968 -47.88836
    vertex 575.00000 24.39518 -22.27386
  endloop
endfacet
facet normal -0.87543 -0.34177 0.34177
  outer loop
    vertex 705.00000 24.39518 -22.27386
    vertex 685.00000 50.00968 -47.88836
    vertex 685.00000 47.88836 -50.00968
  endloop
endfacet
facet normal -0.87543 -0.34177 0.34177
  outer loop
    vertex 705.00000 24.39518 -22.27386
    vertex 685.00000 47.88836 -50.00968
    vertex 705.00000 22.27386 -24.39518
  endloop
endfacet
facet normal 0.00000 -0.70711 0.70711
  outer loop
    vertex 630.00000 47.88836 -50.00968
    vertex 685.00000 47.88836 -50.00968
    vertex 685.00000 50.00968 -47.88836
  endloop
endfacet
facet normal 0.00000 -0.70711 0.70711
  outer loop
    vertex 630.00000 47.88836 -50.00968
    vertex 685.00000 50.00968 -47.88836
    vertex 630.00000 50.00968 -47.88836
  endloop
endfacet
facet normal 0.00000 0.70711 -0.70711
  outer loop
    vertex 575.00000 24.39518 -22.27386
    vertex 705.00000 24.39518 -22.27386
    vertex 705.00000 22.27386 -24.39518
  endloop
endfacet
facet normal 0.00000 0.70711 -0.70711
  outer loop
    vertex 575.00000 24.39518 -22.27386
    vertex 705.00000 22.27386 -24.39518
    vertex 575.00000 22.27386 -24.39518
  endloop
endfacet
endsolid CSWARCMOD1E.ork_finset_wind6_90ms
