solid CSWARCMOD1E.ork_finset_wind4_69ms
facet normal 0.00000 -0.70711 0.70711
  outer loop
    vertex 575.00000 22.27386 24.39518
    vertex 705.00000 22.27386 24.39518
    vertex 685.00000 49.18781 51.30913
  endloop
endfacet
facet normal 0.00000 -0.70711 0.70711
  outer loop
    vertex 575.00000 22.27386 24.39518
    vertex 685.00000 49.18781 51.30913
    vertex 630.00000 49.18781 51.30913
  endloop
endfacet
facet normal 0.00000 0.70711 -0.70711
  outer loop
    vertex 630.00000 51.30913 49.18781
    vertex 685.00000 51.30913 49.18781
    vertex 705.00000 24.39518 22.27386
  endloop
endfacet
facet normal 0.00000 0.70711 -0.70711
  outer loop
    vertex 630.00000 51.30913 49.18781
    vertex 705.00000 24.39518 22.27386
    vertex 575.00000 24.39518 22.27386
  endloop
endfacet
facet normal 0.56906 -0.58145 -0.58145
  outer loop
    vertex 575.00000 24.39518 22.27386
    vertex 630.00000 51.30913 49.18781
    vertex 630.00000 49.18781 51.30913
  endloop
endfacet
facet normal 0.56906 -0.58145 -0.58145
  outer loop
    vertex 575.00000 24.39518 22.27386
    vertex 630.00000 49.18781 51.30913
    vertex 575.00000 22.27386 24.39518
  endloop
endfacet
facet normal -0.88523 -0.32891 -0.32891
  outer loop
    vertex 705.00000 22.27386 24.39518
    vertex 685.00000 49.18781 51.30913
    vertex 685.00000 51.30913 49.18781
  endloop
endfacet
facet normal -0.88523 -0.32891 -0.32891
  outer loop
    vertex 705.00000 22.27386 24.39518
    vertex 685.00000 51.30913 49.18781
    vertex 705.00000 24.39518 22.27386
  endloop
endfacet
facet normal 0.00000 -0.70711 -0.70711
  outer loop
    vertex 630.00000 51.30913 49.18781
    vertex 685.00000 51.30913 49.18781
    vertex 685.00000 49.18781 51.30913
  endloop
endfacet
facet normal 0.00000 -0.70711 -0.70711
  outer loop
    vertex 630.00000 51.30913 49.18781
    vertex 685.00000 49.18781 51.30913
    vertex 630.00000 49.18781 51.30913
  endloop
endfacet
facet normal -0.00000 0.70711 0.70711
  outer loop
    vertex 575.00000 22.27386 24.39518
    vertex 705.00000 22.27386 24.39518
    vertex 705.00000 24.39518 22.27386
  endloop
endfacet
facet normal 0.00000 0.70711 0.70711
  outer loop
    vertex 575.00000 22.27386 24.39518
    vertex 705.00000 24.39518 22.27386
    vertex 575.00000 24.39518 22.27386
  endloop
endfacet
facet normal 0.00000 -0.70711 -0.70711
  outer loop
    vertex 575.00000 -24.39518 22.27386
    vertex 705.00000 -24.39518 22.27386
    vertex 685.00000 -51.30913 49.18781
  endloop
endfacet
facet normal 0.00000 -0.70711 -0.70711
  outer loop
    vertex 575.00000 -24.39518 22.27386
    vertex 685.00000 -51.30913 49.18781
    vertex 630.00000 -51.30913 49.18781
  endloop
endfacet
facet normal -0.00000 0.70711 0.70711
  outer loop
    vertex 630.00000 -49.18781 51.30913
    vertex 685.00000 -49.18781 51.30913
    vertex 705.00000 -22.27386 24.39518
  endloop
endfacet
facet normal 0.00000 0.70711 0.70711
  outer loop
    vertex 630.00000 -49.18781 51.30913
    vertex 705.00000 -22.27386 24.39518
    vertex 575.00000 -22.27386 24.39518
  endloop
endfacet
facet normal 0.56906 0.58145 -0.58145
  outer loop
    vertex 575.00000 -22.27386 24.39518
    vertex 630.00000 -49.18781 51.30913
    vertex 630.00000 -51.30913 49.18781
  endloop
endfacet
facet normal 0.56906 0.58145 -0.58145
  outer loop
    vertex 575.00000 -22.27386 24.39518
    vertex 630.00000 -51.30913 49.18781
    vertex 575.00000 -24.39518 22.27386
  endloop
endfacet
facet normal -0.88523 0.32891 -0.32891
  outer loop
    vertex 705.00000 -24.39518 22.27386
    vertex 685.00000 -51.30913 49.18781
    vertex 685.00000 -49.18781 51.30913
  endloop
endfacet
facet normal -0.88523 0.32891 -0.32891
  outer loop
    vertex 705.00000 -24.39518 22.27386
    vertex 685.00000 -49.18781 51.30913
    vertex 705.00000 -22.27386 24.39518
  endloop
endfacet
facet normal 0.00000 0.70711 -0.70711
  outer loop
    vertex 630.00000 -49.18781 51.30913
    vertex 685.00000 -49.18781 51.30913
    vertex 685.00000 -51.30913 49.18781
  endloop
endfacet
facet normal 0.00000 0.70711 -0.70711
  outer loop
    vertex 630.00000 -49.18781 51.30913
    vertex 685.00000 -51.30913 49.18781
    vertex 630.00000 -51.30913 49.18781
  endloop
endfacet
facet normal 0.00000 -0.70711 0.70711
  outer loop
    vertex 575.00000 -24.39518 22.27386
    vertex 705.00000 -24.39518 22.27386
    vertex 705.00000 -22.27386 24.39518
  endloop
endfacet
facet normal 0.00000 -0.70711 0.70711
  outer loop
    vertex 575.00000 -24.39518 22.27386
    vertex 705.00000 -22.27386 24.39518
    vertex 575.00000 -22.27386 24.39518
  endloop
endfacet
facet normal 0.00000 0.70711 -0.70711
  outer loop
    vertex 575.00000 -22.27386 -24.39518
    vertex 705.00000 -22.27386 -24.39518
    vertex 685.00000 -49.18781 -51.30913
  endloop
endfacet
facet normal 0.00000 0.70711 -0.70711
  outer loop
    vertex 575.00000 -22.27386 -24.39518
    vertex 685.00000 -49.18781 -51.30913
    vertex 630.00000 -49.18781 -51.30913
  endloop
endfacet
facet normal 0.00000 -0.70711 0.70711
  outer loop
    vertex 630.00000 -51.30913 -49.18781
    vertex 685.00000 -51.30913 -49.18781
    vertex 705.00000 -24.39518 -22.27386
  endloop
endfacet
facet normal 0.00000 -0.70711 0.70711
  outer loop
    vertex 630.00000 -51.30913 -49.18781
    vertex 705.00000 -24.39518 -22.27386
    vertex 575.00000 -24.39518 -22.27386
  endloop
endfacet
facet normal 0.56906 0.58145 0.58145
  outer loop
    vertex 575.00000 -24.39518 -22.27386
    vertex 630.00000 -51.30913 -49.18781
    vertex 630.00000 -49.18781 -51.30913
  endloop
endfacet
facet normal 0.56906 0.58145 0.58145
  outer loop
    vertex 575.00000 -24.39518 -22.27386
    vertex 630.00000 -49.18781 -51.30913
    vertex 575.00000 -22.27386 -24.39518
  endloop
endfacet
facet normal -0.88523 0.32891 0.32891
  outer loop
    vertex 705.00000 -22.27386 -24.39518
    vertex 685.00000 -49.18781 -51.30913
    vertex 685.00000 -51.30913 -49.18781
  endloop
endfacet
facet normal -0.88523 0.32891 0.32891
  outer loop
    vertex 705.00000 -22.27386 -24.39518
    vertex 685.00000 -51.30913 -49.18781
    vertex 705.00000 -24.39518 -22.27386
  endloop
endfacet
facet normal -0.00000 0.70711 0.70711
  outer loop
    vertex 630.00000 -51.30913 -49.18781
    vertex 685.00000 -51.30913 -49.18781
    vertex 685.00000 -49.18781 -51.30913
  endloop
endfacet
facet normal 0.00000 0.70711 0.70711
  outer loop
    vertex 630.00000 -51.30913 -49.18781
    vertex 685.00000 -49.18781 -51.30913
    vertex 630.00000 -49.18781 -51.30913
  endloop
endfacet
facet normal 0.00000 -0.70711 -0.70711
  outer loop
    vertex 575.00000 -22.27386 -24.39518
    vertex 705.00000 -22.27386 -24.39518
    vertex 705.00000 -24.39518 -22.27386
  endloop
endfacet
facet normal 0.00000 -0.70711 -0.70711
  outer loop
    vertex 575.00000 -22.27386 -24.39518
    vertex 705.00000 -24.39518 -22.27386
    vertex 575.00000 -24.39518 -22.27386
  endloop
endfacet
facet normal -0.00000 0.70711 0.70711
  outer loop
    vertex 575.00000 24.39518 -22.27386
    vertex 705.00000 24.39518 -22.27386
    vertex 685.00000 51.30913 -49.18781
  endloop
endfacet
facet normal 0.00000 0.70711 0.70711
  outer loop
    vertex 575.00000 24.39518 -22.27386
    vertex 685.00000 51.30913 -49.18781
    vertex 630.00000 51.30913 -49.18781
  endloop
endfacet
facet normal 0.00000 -0.70711 -0.70711
  outer loop
    vertex 630.00000 49.18781 -51.30913
    vertex 685.00000 49.18781 -51.30913
    vertex 705.00000 22.27386 -24.39518
  endloop
endfacet
facet normal 0.00000 -0.70711 -0.70711
  outer loop
    vertex 630.00000 49.18781 -51.30913
    vertex 705.00000 22.27386 -24.39518
    vertex 575.00000 22.27386 -24.39518
  endloop
endfacet
facet normal 0.56906 -0.58145 0.58145
  outer loop
    vertex 575.00000 22.27386 -24.39518
    vertex 630.00000 49.18781 -51.30913
    vertex 630.00000 51.30913 -49.18781
  endloop
endfacet
facet normal 0.56906 -0.58145 0.58145
  outer loop
    vertex 575.00000 22.27386 -24.39518
    vertex 630.00000 51.30913 -49.18781
    vertex 575.00000 24.39518 -22.27386
  endloop
endfacet
facet normal -0.88523 -0.32891 0.32891
  outer loop
    vertex 705.00000 24.39518 -22.27386
    vertex 685.00000 51.30913 -49.18781
    vertex 685.00000 49.18781 -51.30913
  endloop
endfacet
facet normal -0.88523 -0.32891 0.32891
  outer loop
    vertex 705.00000 24.39518 -22.27386
    vertex 685.00000 49.18781 -51.30913
    vertex 705.00000 22.27386 -24.39518
  endloop
endfacet
facet normal 0.00000 -0.70711 0.70711
  outer loop
    vertex 630.00000 49.18781 -51.30913
    vertex 685.00000 49.18781 -51.30913
    vertex 685.00000 51.30913 -49.18781
  endloop
endfacet
facet normal 0.00000 -0.70711 0.70711
  outer loop
    vertex 630.00000 49.18781 -51.30913
    vertex 685.00000 51.30913 -49.18781
    vertex 630.00000 51.30913 -49.18781
  endloop
endfacet
facet normal 0.00000 0.70711 -0.70711
  outer loop
    vertex 575.00000 24.39518 -22.27386
    vertex 705.00000 24.39518 -22.27386
    vertex 705.00000 22.27386 -24.39518
  endloop
endfacet
facet normal 0.00000 0.70711 -0.70711
  outer loop
    vertex 575.00000 24.39518 -22.27386
    vertex 705.00000 22.27386 -24.39518
    vertex 575.00000 22.27386 -24.39518
  endloop
endfacet
endsolid CSWARCMOD1E.ork_finset_wind4_69ms
