solid CSWARCMOD1E.ork_finset_wind6_31ms
facet normal 0.00000 -0.70711 0.70711
  outer loop
    vertex 575.00000 22.27386 24.39518
    vertex 705.00000 22.27386 24.39518
    vertex 685.00000 51.30792 53.42924
  endloop
endfacet
facet normal 0.00000 -0.70711 0.70711
  outer loop
    vertex 575.00000 22.27386 24.39518
    vertex 685.00000 51.30792 53.42924
    vertex 630.00000 51.30792 53.42924
  endloop
endfacet
facet normal 0.00000 0.70711 -0.70711
  outer loop
    vertex 630.00000 53.42924 51.30792
    vertex 685.00000 53.42924 51.30792
    vertex 705.00000 24.39518 22.27386
  endloop
endfacet
facet normal 0.00000 0.70711 -0.70711
  outer loop
    vertex 630.00000 53.42924 51.30792
    vertex 705.00000 24.39518 22.27386
    vertex 575.00000 24.39518 22.27386
  endloop
endfacet
facet normal 0.59823 -0.56662 -0.56662
  outer loop
    vertex 575.00000 24.39518 22.27386
    vertex 630.00000 53.42924 51.30792
    vertex 630.00000 51.30792 53.42924
  endloop
endfacet
facet normal 0.59823 -0.56662 -0.56662
  outer loop
    vertex 575.00000 24.39518 22.27386
    vertex 630.00000 51.30792 53.42924
    vertex 575.00000 22.27386 24.39518
  endloop
endfacet
facet normal -0.89902 -0.30964 -0.30964
  outer loop
    vertex 705.00000 22.27386 24.39518
    vertex 685.00000 51.30792 53.42924
    vertex 685.00000 53.42924 51.30792
  endloop
endfacet
facet normal -0.89902 -0.30964 -0.30964
  outer loop
    vertex 705.00000 22.27386 24.39518
    vertex 685.00000 53.42924 51.30792
    vertex 705.00000 24.39518 22.27386
  endloop
endfacet
facet normal 0.00000 -0.70711 -0.70711
  outer loop
    vertex 630.00000 53.42924 51.30792
    vertex 685.00000 53.42924 51.30792
    vertex 685.00000 51.30792 53.42924
  endloop
endfacet
facet normal 0.00000 -0.70711 -0.70711
  outer loop
    vertex 630.00000 53.42924 51.30792
    vertex 685.00000 51.30792 53.42924
    vertex 630.00000 51.30792 53.42924
  endloop
endfacet
facet normal -0.00000 0.70711 0.70711
  outer loop
    vertex 575.00000 22.27386 24.39518
    vertex 705.00000 22.27386 24.39518
    vertex 705.00000 24.39518 22.27386
  endloop
endfacet
facet normal 0.00000 0.70711 0.70711
  outer loop
    vertex 575.00000 22.27386 24.39518
    vertex 705.00000 24.39518 22.27386
    vertex 575.00000 24.39518 22.27386
  endloop
endfacet
facet normal 0.00000 -0.70711 -0.70711
  outer loop
    vertex 575.00000 -24.39518 22.27386
    vertex 705.00000 -24.39518 22.27386
    vertex 685.00000 -53.42924 51.30792
  endloop
endfacet
facet normal 0.00000 -0.70711 -0.70711
  outer loop
    vertex 575.00000 -24.39518 22.27386
    vertex 685.00000 -53.42924 51.30792
    vertex 630.00000 -53.42924 51.30792
  endloop
endfacet
facet normal -0.00000 0.70711 0.70711
  outer loop
    vertex 630.00000 -51.30792 53.42924
    vertex 685.00000 -51.30792 53.42924
    vertex 705.00000 -22.27386 24.39518
  endloop
endfacet
facet normal 0.00000 0.70711 0.70711
  outer loop
    vertex 630.00000 -51.30792 53.42924
    vertex 705.00000 -22.27386 24.39518
    vertex 575.00000 -22.27386 24.39518
  endloop
endfacet
facet normal 0.59823 0.56662 -0.56662
  outer loop
    vertex 575.00000 -22.27386 24.39518
    vertex 630.00000 -51.30792 53.42924
    vertex 630.00000 -53.42924 51.30792
  endloop
endfacet
facet normal 0.59823 0.56662 -0.56662
  outer loop
    vertex 575.00000 -22.27386 24.39518
    vertex 630.00000 -53.42924 51.30792
    vertex 575.00000 -24.39518 22.27386
  endloop
endfacet
facet normal -0.89902 0.30964 -0.30964
  outer loop
    vertex 705.00000 -24.39518 22.27386
    vertex 685.00000 -53.42924 51.30792
    vertex 685.00000 -51.30792 53.42924
  endloop
endfacet
facet normal -0.89902 0.30964 -0.30964
  outer loop
    vertex 705.00000 -24.39518 22.27386
    vertex 685.00000 -51.30792 53.42924
    vertex 705.00000 -22.27386 24.39518
  endloop
endfacet
facet normal 0.00000 0.70711 -0.70711
  outer loop
    vertex 630.00000 -51.30792 53.42924
    vertex 685.00000 -51.30792 53.42924
    vertex 685.00000 -53.42924 51.30792
  endloop
endfacet
facet normal 0.00000 0.70711 -0.70711
  outer loop
    vertex 630.00000 -51.30792 53.42924
    vertex 685.00000 -53.42924 51.30792
    vertex 630.00000 -53.42924 51.30792
  endloop
endfacet
facet normal 0.00000 -0.70711 0.70711
  outer loop
    vertex 575.00000 -24.39518 22.27386
    vertex 705.00000 -24.39518 22.27386
    vertex 705.00000 -22.27386 24.39518
  endloop
endfacet
facet normal 0.00000 -0.70711 0.70711
  outer loop
    vertex 575.00000 -24.39518 22.27386
    vertex 705.00000 -22.27386 24.39518
    vertex 575.00000 -22.27386 24.39518
  endloop
endfacet
facet normal 0.00000 0.70711 -0.70711
  outer loop
    vertex 575.00000 -22.27386 -24.39518
    vertex 705.00000 -22.27386 -24.39518
    vertex 685.00000 -51.30792 -53.42924
  endloop
endfacet
facet normal 0.00000 0.70711 -0.70711
  outer loop
    vertex 575.00000 -22.27386 -24.39518
    vertex 685.00000 -51.30792 -53.42924
    vertex 630.00000 -51.30792 -53.42924
  endloop
endfacet
facet normal 0.00000 -0.70711 0.70711
  outer loop
    vertex 630.00000 -53.42924 -51.30792
    vertex 685.00000 -53.42924 -51.30792
    vertex 705.00000 -24.39518 -22.27386
  endloop
endfacet
facet normal 0.00000 -0.70711 0.70711
  outer loop
    vertex 630.00000 -53.42924 -51.30792
    vertex 705.00000 -24.39518 -22.27386
    vertex 575.00000 -24.39518 -22.27386
  endloop
endfacet
facet normal 0.59823 0.56662 0.56662
  outer loop
    vertex 575.00000 -24.39518 -22.27386
    vertex 630.00000 -53.42924 -51.30792
    vertex 630.00000 -51.30792 -53.42924
  endloop
endfacet
facet normal 0.59823 0.56662 0.56662
  outer loop
    vertex 575.00000 -24.39518 -22.27386
    vertex 630.00000 -51.30792 -53.42924
    vertex 575.00000 -22.27386 -24.39518
  endloop
endfacet
facet normal -0.89902 0.30964 0.30964
  outer loop
    vertex 705.00000 -22.27386 -24.39518
    vertex 685.00000 -51.30792 -53.42924
    vertex 685.00000 -53.42924 -51.30792
  endloop
endfacet
facet normal -0.89902 0.30964 0.30964
  outer loop
    vertex 705.00000 -22.27386 -24.39518
    vertex 685.00000 -53.42924 -51.30792
    vertex 705.00000 -24.39518 -22.27386
  endloop
endfacet
facet normal -0.00000 0.70711 0.70711
  outer loop
    vertex 630.00000 -53.42924 -51.30792
    vertex 685.00000 -53.42924 -51.30792
    vertex 685.00000 -51.30792 -53.42924
  endloop
endfacet
facet normal 0.00000 0.70711 0.70711
  outer loop
    vertex 630.00000 -53.42924 -51.30792
    vertex 685.00000 -51.30792 -53.42924
    vertex 630.00000 -51.30792 -53.42924
  endloop
endfacet
facet normal 0.00000 -0.70711 -0.70711
  outer loop
    vertex 575.00000 -22.27386 -24.39518
    vertex 705.00000 -22.27386 -24.39518
    vertex 705.00000 -24.39518 -22.27386
  endloop
endfacet
facet normal 0.00000 -0.70711 -0.70711
  outer loop
    vertex 575.00000 -22.27386 -24.39518
    vertex 705.00000 -24.39518 -22.27386
    vertex 575.00000 -24.39518 -22.27386
  endloop
endfacet
facet normal -0.00000 0.70711 0.70711
  outer loop
    vertex 575.00000 24.39518 -22.27386
    vertex 705.00000 24.39518 -22.27386
    vertex 685.00000 53.42924 -51.30792
  endloop
endfacet
facet normal 0.00000 0.70711 0.70711
  outer loop
    vertex 575.00000 24.39518 -22.27386
    vertex 685.00000 53.42924 -51.30792
    vertex 630.00000 53.42924 -51.30792
  endloop
endfacet
facet normal 0.00000 -0.70711 -0.70711
  outer loop
    vertex 630.00000 51.30792 -53.42924
    vertex 685.00000 51.30792 -53.42924
    vertex 705.00000 22.27386 -24.39518
  endloop
endfacet
facet normal 0.00000 -0.70711 -0.70711
  outer loop
    vertex 630.00000 51.30792 -53.42924
    vertex 705.00000 22.27386 -24.39518
    vertex 575.00000 22.27386 -24.39518
  endloop
endfacet
facet normal 0.59823 -0.56662 0.56662
  outer loop
    vertex 575.00000 22.27386 -24.39518
    vertex 630.00000 51.30792 -53.42924
    vertex 630.00000 53.42924 -51.30792
  endloop
endfacet
facet normal 0.59823 -0.56662 0.56662
  outer loop
    vertex 575.00000 22.27386 -24.39518
    vertex 630.00000 53.42924 -51.30792
    vertex 575.00000 24.39518 -22.27386
  endloop
endfacet
facet normal -0.89902 -0.30964 0.30964
  outer loop
    vertex 705.00000 24.39518 -22.27386
    vertex 685.00000 53.42924 -51.30792
    vertex 685.00000 51.30792 -53.42924
  endloop
endfacet
facet normal -0.89902 -0.30964 0.30964
  outer loop
    vertex 705.00000 24.39518 -22.27386
    vertex 685.00000 51.30792 -53.42924
    vertex 705.00000 22.27386 -24.39518
  endloop
endfacet
facet normal 0.00000 -0.70711 0.70711
  outer loop
    vertex 630.00000 51.30792 -53.42924
    vertex 685.00000 51.30792 -53.42924
    vertex 685.00000 53.42924 -51.30792
  endloop
endfacet
facet normal 0.00000 -0.70711 0.70711
  outer loop
    vertex 630.00000 51.30792 -53.42924
    vertex 685.00000 53.42924 -51.30792
    vertex 630.00000 53.42924 -51.30792
  endloop
endfacet
facet normal 0.00000 0.70711 -0.70711
  outer loop
    vertex 575.00000 24.39518 -22.27386
    vertex 705.00000 24.39518 -22.27386
    vertex 705.00000 22.27386 -24.39518
  endloop
endfacet
facet normal 0.00000 0.70711 -0.70711
  outer loop
    vertex 575.00000 24.39518 -22.27386
    vertex 705.00000 22.27386 -24.39518
    vertex 575.00000 22.27386 -24.39518
  endloop
endfacet
endsolid CSWARCMOD1E.ork_finset_wind6_31ms
