solid CSWARCMOD1E.ork_finset_wind5_91ms
facet normal 0.00000 -0.70711 0.70711
  outer loop
    vertex 575.00000 22.27386 24.39518
    vertex 705.00000 22.27386 24.39518
    vertex 685.00000 50.10955 52.23088
  endloop
endfacet
facet normal 0.00000 -0.70711 0.70711
  outer loop
    vertex 575.00000 22.27386 24.39518
    vertex 685.00000 50.10955 52.23088
    vertex 630.00000 50.10955 52.23088
  endloop
endfacet
facet normal 0.00000 0.70711 -0.70711
  outer loop
    vertex 630.00000 52.23088 50.10955
    vertex 685.00000 52.23088 50.10955
    vertex 705.00000 24.39518 22.27386
  endloop
endfacet
facet normal 0.00000 0.70711 -0.70711
  outer loop
    vertex 630.00000 52.23088 50.10955
    vertex 705.00000 24.39518 22.27386
    vertex 575.00000 24.39518 22.27386
  endloop
endfacet
facet normal 0.58202 -0.57500 -0.57500
  outer loop
    vertex 575.00000 24.39518 22.27386
    vertex 630.00000 52.23088 50.10955
    vertex 630.00000 50.10955 52.23088
  endloop
endfacet
facet normal 0.58202 -0.57500 -0.57500
  outer loop
    vertex 575.00000 24.39518 22.27386
    vertex 630.00000 50.10955 52.23088
    vertex 575.00000 22.27386 24.39518
  endloop
endfacet
facet normal -0.89154 -0.32028 -0.32028
  outer loop
    vertex 705.00000 22.27386 24.39518
    vertex 685.00000 50.10955 52.23088
    vertex 685.00000 52.23088 50.10955
  endloop
endfacet
facet normal -0.89154 -0.32028 -0.32028
  outer loop
    vertex 705.00000 22.27386 24.39518
    vertex 685.00000 52.23088 50.10955
    vertex 705.00000 24.39518 22.27386
  endloop
endfacet
facet normal 0.00000 -0.70711 -0.70711
  outer loop
    vertex 630.00000 52.23088 50.10955
    vertex 685.00000 52.23088 50.10955
    vertex 685.00000 50.10955 52.23088
  endloop
endfacet
facet normal 0.00000 -0.70711 -0.70711
  outer loop
    vertex 630.00000 52.23088 50.10955
    vertex 685.00000 50.10955 52.23088
    vertex 630.00000 50.10955 52.23088
  endloop
endfacet
facet normal -0.00000 0.70711 0.70711
  outer loop
    vertex 575.00000 22.27386 24.39518
    vertex 705.00000 22.27386 24.39518
    vertex 705.00000 24.39518 22.27386
  endloop
endfacet
facet normal 0.00000 0.70711 0.70711
  outer loop
    vertex 575.00000 22.27386 24.39518
    vertex 705.00000 24.39518 22.27386
    vertex 575.00000 24.39518 22.27386
  endloop
endfacet
facet normal 0.00000 -0.70711 -0.70711
  outer loop
    vertex 575.00000 -24.39518 22.27386
    vertex 705.00000 -24.39518 22.27386
    vertex 685.00000 -52.23088 50.10955
  endloop
endfacet
facet normal 0.00000 -0.70711 -0.70711
  outer loop
    vertex 575.00000 -24.39518 22.27386
    vertex 685.00000 -52.23088 50.10955
    vertex 630.00000 -52.23088 50.10955
  endloop
endfacet
facet normal -0.00000 0.70711 0.70711
  outer loop
    vertex 630.00000 -50.10955 52.23088
    vertex 685.00000 -50.10955 52.23088
    vertex 705.00000 -22.27386 24.39518
  endloop
endfacet
facet normal 0.00000 0.70711 0.70711
  outer loop
    vertex 630.00000 -50.10955 52.23088
    vertex 705.00000 -22.27386 24.39518
    vertex 575.00000 -22.27386 24.39518
  endloop
endfacet
facet normal 0.58202 0.57500 -0.57500
  outer loop
    vertex 575.00000 -22.27386 24.39518
    vertex 630.00000 -50.10955 52.23088
    vertex 630.00000 -52.23088 50.10955
  endloop
endfacet
facet normal 0.58202 0.57500 -0.57500
  outer loop
    vertex 575.00000 -22.27386 24.39518
    vertex 630.00000 -52.23088 50.10955
    vertex 575.00000 -24.39518 22.27386
  endloop
endfacet
facet normal -0.89154 0.32028 -0.32028
  outer loop
    vertex 705.00000 -24.39518 22.27386
    vertex 685.00000 -52.23088 50.10955
    vertex 685.00000 -50.10955 52.23088
  endloop
endfacet
facet normal -0.89154 0.32028 -0.32028
  outer loop
    vertex 705.00000 -24.39518 22.27386
    vertex 685.00000 -50.10955 52.23088
    vertex 705.00000 -22.27386 24.39518
  endloop
endfacet
facet normal 0.00000 0.70711 -0.70711
  outer loop
    vertex 630.00000 -50.10955 52.23088
    vertex 685.00000 -50.10955 52.23088
    vertex 685.00000 -52.23088 50.10955
  endloop
endfacet
facet normal 0.00000 0.70711 -0.70711
  outer loop
    vertex 630.00000 -50.10955 52.23088
    vertex 685.00000 -52.23088 50.10955
    vertex 630.00000 -52.23088 50.10955
  endloop
endfacet
facet normal 0.00000 -0.70711 0.70711
  outer loop
    vertex 575.00000 -24.39518 22.27386
    vertex 705.00000 -24.39518 22.27386
    vertex 705.00000 -22.27386 24.39518
  endloop
endfacet
facet normal 0.00000 -0.70711 0.70711
  outer loop
    vertex 575.00000 -24.39518 22.27386
    vertex 705.00000 -22.27386 24.39518
    vertex 575.00000 -22.27386 24.39518
  endloop
endfacet
facet normal 0.00000 0.70711 -0.70711
  outer loop
    vertex 575.00000 -22.27386 -24.39518
    vertex 705.00000 -22.27386 -24.39518
    vertex 685.00000 -50.10955 -52.23088
  endloop
endfacet
facet normal 0.00000 0.70711 -0.70711
  outer loop
    vertex 575.00000 -22.27386 -24.39518
    vertex 685.00000 -50.10955 -52.23088
    vertex 630.00000 -50.10955 -52.23088
  endloop
endfacet
facet normal 0.00000 -0.70711 0.70711
  outer loop
    vertex 630.00000 -52.23088 -50.10955
    vertex 685.00000 -52.23088 -50.10955
    vertex 705.00000 -24.39518 -22.27386
  endloop
endfacet
facet normal 0.00000 -0.70711 0.70711
  outer loop
    vertex 630.00000 -52.23088 -50.10955
    vertex 705.00000 -24.39518 -22.27386
    vertex 575.00000 -24.39518 -22.27386
  endloop
endfacet
facet normal 0.58202 0.57500 0.57500
  outer loop
    vertex 575.00000 -24.39518 -22.27386
    vertex 630.00000 -52.23088 -50.10955
    vertex 630.00000 -50.10955 -52.23088
  endloop
endfacet
facet normal 0.58202 0.57500 0.57500
  outer loop
    vertex 575.00000 -24.39518 -22.27386
    vertex 630.00000 -50.10955 -52.23088
    vertex 575.00000 -22.27386 -24.39518
  endloop
endfacet
facet normal -0.89154 0.32028 0.32028
  outer loop
    vertex 705.00000 -22.27386 -24.39518
    vertex 685.00000 -50.10955 -52.23088
    vertex 685.00000 -52.23088 -50.10955
  endloop
endfacet
facet normal -0.89154 0.32028 0.32028
  outer loop
    vertex 705.00000 -22.27386 -24.39518
    vertex 685.00000 -52.23088 -50.10955
    vertex 705.00000 -24.39518 -22.27386
  endloop
endfacet
facet normal -0.00000 0.70711 0.70711
  outer loop
    vertex 630.00000 -52.23088 -50.10955
    vertex 685.00000 -52.23088 -50.10955
    vertex 685.00000 -50.10955 -52.23088
  endloop
endfacet
facet normal 0.00000 0.70711 0.70711
  outer loop
    vertex 630.00000 -52.23088 -50.10955
    vertex 685.00000 -50.10955 -52.23088
    vertex 630.00000 -50.10955 -52.23088
  endloop
endfacet
facet normal 0.00000 -0.70711 -0.70711
  outer loop
    vertex 575.00000 -22.27386 -24.39518
    vertex 705.00000 -22.27386 -24.39518
    vertex 705.00000 -24.39518 -22.27386
  endloop
endfacet
facet normal 0.00000 -0.70711 -0.70711
  outer loop
    vertex 575.00000 -22.27386 -24.39518
    vertex 705.00000 -24.39518 -22.27386
    vertex 575.00000 -24.39518 -22.27386
  endloop
endfacet
facet normal -0.00000 0.70711 0.70711
  outer loop
    vertex 575.00000 24.39518 -22.27386
    vertex 705.00000 24.39518 -22.27386
    vertex 685.00000 52.23088 -50.10955
  endloop
endfacet
facet normal 0.00000 0.70711 0.70711
  outer loop
    vertex 575.00000 24.39518 -22.27386
    vertex 685.00000 52.23088 -50.10955
    vertex 630.00000 52.23088 -50.10955
  endloop
endfacet
facet normal 0.00000 -0.70711 -0.70711
  outer loop
    vertex 630.00000 50.10955 -52.23088
    vertex 685.00000 50.10955 -52.23088
    vertex 705.00000 22.27386 -24.39518
  endloop
endfacet
facet normal 0.00000 -0.70711 -0.70711
  outer loop
    vertex 630.00000 50.10955 -52.23088
    vertex 705.00000 22.27386 -24.39518
    vertex 575.00000 22.27386 -24.39518
  endloop
endfacet
facet normal 0.58202 -0.57500 0.57500
  outer loop
    vertex 575.00000 22.27386 -24.39518
    vertex 630.00000 50.10955 -52.23088
    vertex 630.00000 52.23088 -50.10955
  endloop
endfacet
facet normal 0.58202 -0.57500 0.57500
  outer loop
    vertex 575.00000 22.27386 -24.39518
    vertex 630.00000 52.23088 -50.10955
    vertex 575.00000 24.39518 -22.27386
  endloop
endfacet
facet normal -0.89154 -0.32028 0.32028
  outer loop
    vertex 705.00000 24.39518 -22.27386
    vertex 685.00000 52.23088 -50.10955
    vertex 685.00000 50.10955 -52.23088
  endloop
endfacet
facet normal -0.89154 -0.32028 0.32028
  outer loop
    vertex 705.00000 24.39518 -22.27386
    vertex 685.00000 50.10955 -52.23088
    vertex 705.00000 22.27386 -24.39518
  endloop
endfacet
facet normal 0.00000 -0.70711 0.70711
  outer loop
    vertex 630.00000 50.10955 -52.23088
    vertex 685.00000 50.10955 -52.23088
    vertex 685.00000 52.23088 -50.10955
  endloop
endfacet
facet normal 0.00000 -0.70711 0.70711
  outer loop
    vertex 630.00000 50.10955 -52.23088
    vertex 685.00000 52.23088 -50.10955
    vertex 630.00000 52.23088 -50.10955
  endloop
endfacet
facet normal 0.00000 0.70711 -0.70711
  outer loop
    vertex 575.00000 24.39518 -22.27386
    vertex 705.00000 24.39518 -22.27386
    vertex 705.00000 22.27386 -24.39518
  endloop
endfacet
facet normal 0.00000 0.70711 -0.70711
  outer loop
    vertex 575.00000 24.39518 -22.27386
    vertex 705.00000 22.27386 -24.39518
    vertex 575.00000 22.27386 -24.39518
  endloop
endfacet
endsolid CSWARCMOD1E.ork_finset_wind5_91ms
