solid CSWARCMOD1E.ork_finset_wind2_80ms
facet normal 0.00000 -0.70711 0.70711
  outer loop
    vertex 575.00000 22.27386 24.39518
    vertex 705.00000 22.27386 24.39518
    vertex 685.00000 79.08409 81.20541
  endloop
endfacet
facet normal 0.00000 -0.70711 0.70711
  outer loop
    vertex 575.00000 22.27386 24.39518
    vertex 685.00000 79.08409 81.20541
    vertex 630.00000 79.08409 81.20541
  endloop
endfacet
facet normal 0.00000 0.70711 -0.70711
  outer loop
    vertex 630.00000 81.20541 79.08409
    vertex 685.00000 81.20541 79.08409
    vertex 705.00000 24.39518 22.27386
  endloop
endfacet
facet normal 0.00000 0.70711 -0.70711
  outer loop
    vertex 630.00000 81.20541 79.08409
    vertex 705.00000 24.39518 22.27386
    vertex 575.00000 24.39518 22.27386
  endloop
endfacet
facet normal 0.82517 -0.39944 -0.39944
  outer loop
    vertex 575.00000 24.39518 22.27386
    vertex 630.00000 81.20541 79.08409
    vertex 630.00000 79.08409 81.20541
  endloop
endfacet
facet normal 0.82517 -0.39944 -0.39944
  outer loop
    vertex 575.00000 24.39518 22.27386
    vertex 630.00000 79.08409 81.20541
    vertex 575.00000 22.27386 24.39518
  endloop
endfacet
facet normal -0.97038 -0.17081 -0.17081
  outer loop
    vertex 705.00000 22.27386 24.39518
    vertex 685.00000 79.08409 81.20541
    vertex 685.00000 81.20541 79.08409
  endloop
endfacet
facet normal -0.97038 -0.17081 -0.17081
  outer loop
    vertex 705.00000 22.27386 24.39518
    vertex 685.00000 81.20541 79.08409
    vertex 705.00000 24.39518 22.27386
  endloop
endfacet
facet normal 0.00000 -0.70711 -0.70711
  outer loop
    vertex 630.00000 81.20541 79.08409
    vertex 685.00000 81.20541 79.08409
    vertex 685.00000 79.08409 81.20541
  endloop
endfacet
facet normal 0.00000 -0.70711 -0.70711
  outer loop
    vertex 630.00000 81.20541 79.08409
    vertex 685.00000 79.08409 81.20541
    vertex 630.00000 79.08409 81.20541
  endloop
endfacet
facet normal -0.00000 0.70711 0.70711
  outer loop
    vertex 575.00000 22.27386 24.39518
    vertex 705.00000 22.27386 24.39518
    vertex 705.00000 24.39518 22.27386
  endloop
endfacet
facet normal 0.00000 0.70711 0.70711
  outer loop
    vertex 575.00000 22.27386 24.39518
    vertex 705.00000 24.39518 22.27386
    vertex 575.00000 24.39518 22.27386
  endloop
endfacet
facet normal 0.00000 -0.70711 -0.70711
  outer loop
    vertex 575.00000 -24.39518 22.27386
    vertex 705.00000 -24.39518 22.27386
    vertex 685.00000 -81.20541 79.08409
  endloop
endfacet
facet normal 0.00000 -0.70711 -0.70711
  outer loop
    vertex 575.00000 -24.39518 22.27386
    vertex 685.00000 -81.20541 79.08409
    vertex 630.00000 -81.20541 79.08409
  endloop
endfacet
facet normal -0.00000 0.70711 0.70711
  outer loop
    vertex 630.00000 -79.08409 81.20541
    vertex 685.00000 -79.08409 81.20541
    vertex 705.00000 -22.27386 24.39518
  endloop
endfacet
facet normal 0.00000 0.70711 0.70711
  outer loop
    vertex 630.00000 -79.08409 81.20541
    vertex 705.00000 -22.27386 24.39518
    vertex 575.00000 -22.27386 24.39518
  endloop
endfacet
facet normal 0.82517 0.39944 -0.39944
  outer loop
    vertex 575.00000 -22.27386 24.39518
    vertex 630.00000 -79.08409 81.20541
    vertex 630.00000 -81.20541 79.08409
  endloop
endfacet
facet normal 0.82517 0.39944 -0.39944
  outer loop
    vertex 575.00000 -22.27386 24.39518
    vertex 630.00000 -81.20541 79.08409
    vertex 575.00000 -24.39518 22.27386
  endloop
endfacet
facet normal -0.97038 0.17081 -0.17081
  outer loop
    vertex 705.00000 -24.39518 22.27386
    vertex 685.00000 -81.20541 79.08409
    vertex 685.00000 -79.08409 81.20541
  endloop
endfacet
facet normal -0.97038 0.17081 -0.17081
  outer loop
    vertex 705.00000 -24.39518 22.27386
    vertex 685.00000 -79.08409 81.20541
    vertex 705.00000 -22.27386 24.39518
  endloop
endfacet
facet normal 0.00000 0.70711 -0.70711
  outer loop
    vertex 630.00000 -79.08409 81.20541
    vertex 685.00000 -79.08409 81.20541
    vertex 685.00000 -81.20541 79.08409
  endloop
endfacet
facet normal 0.00000 0.70711 -0.70711
  outer loop
    vertex 630.00000 -79.08409 81.20541
    vertex 685.00000 -81.20541 79.08409
    vertex 630.00000 -81.20541 79.08409
  endloop
endfacet
facet normal 0.00000 -0.70711 0.70711
  outer loop
    vertex 575.00000 -24.39518 22.27386
    vertex 705.00000 -24.39518 22.27386
    vertex 705.00000 -22.27386 24.39518
  endloop
endfacet
facet normal 0.00000 -0.70711 0.70711
  outer loop
    vertex 575.00000 -24.39518 22.27386
    vertex 705.00000 -22.27386 24.39518
    vertex 575.00000 -22.27386 24.39518
  endloop
endfacet
facet normal 0.00000 0.70711 -0.70711
  outer loop
    vertex 575.00000 -22.27386 -24.39518
    vertex 705.00000 -22.27386 -24.39518
    vertex 685.00000 -79.08409 -81.20541
  endloop
endfacet
facet normal 0.00000 0.70711 -0.70711
  outer loop
    vertex 575.00000 -22.27386 -24.39518
    vertex 685.00000 -79.08409 -81.20541
    vertex 630.00000 -79.08409 -81.20541
  endloop
endfacet
facet normal 0.00000 -0.70711 0.70711
  outer loop
    vertex 630.00000 -81.20541 -79.08409
    vertex 685.00000 -81.20541 -79.08409
    vertex 705.00000 -24.39518 -22.27386
  endloop
endfacet
facet normal 0.00000 -0.70711 0.70711
  outer loop
    vertex 630.00000 -81.20541 -79.08409
    vertex 705.00000 -24.39518 -22.27386
    vertex 575.00000 -24.39518 -22.27386
  endloop
endfacet
facet normal 0.82517 0.39944 0.39944
  outer loop
    vertex 575.00000 -24.39518 -22.27386
    vertex 630.00000 -81.20541 -79.08409
    vertex 630.00000 -79.08409 -81.20541
  endloop
endfacet
facet normal 0.82517 0.39944 0.39944
  outer loop
    vertex 575.00000 -24.39518 -22.27386
    vertex 630.00000 -79.08409 -81.20541
    vertex 575.00000 -22.27386 -24.39518
  endloop
endfacet
facet normal -0.97038 0.17081 0.17081
  outer loop
    vertex 705.00000 -22.27386 -24.39518
    vertex 685.00000 -79.08409 -81.20541
    vertex 685.00000 -81.20541 -79.08409
  endloop
endfacet
facet normal -0.97038 0.17081 0.17081
  outer loop
    vertex 705.00000 -22.27386 -24.39518
    vertex 685.00000 -81.20541 -79.08409
    vertex 705.00000 -24.39518 -22.27386
  endloop
endfacet
facet normal -0.00000 0.70711 0.70711
  outer loop
    vertex 630.00000 -81.20541 -79.08409
    vertex 685.00000 -81.20541 -79.08409
    vertex 685.00000 -79.08409 -81.20541
  endloop
endfacet
facet normal 0.00000 0.70711 0.70711
  outer loop
    vertex 630.00000 -81.20541 -79.08409
    vertex 685.00000 -79.08409 -81.20541
    vertex 630.00000 -79.08409 -81.20541
  endloop
endfacet
facet normal 0.00000 -0.70711 -0.70711
  outer loop
    vertex 575.00000 -22.27386 -24.39518
    vertex 705.00000 -22.27386 -24.39518
    vertex 705.00000 -24.39518 -22.27386
  endloop
endfacet
facet normal 0.00000 -0.70711 -0.70711
  outer loop
    vertex 575.00000 -22.27386 -24.39518
    vertex 705.00000 -24.39518 -22.27386
    vertex 575.00000 -24.39518 -22.27386
  endloop
endfacet
facet normal -0.00000 0.70711 0.70711
  outer loop
    vertex 575.00000 24.39518 -22.27386
    vertex 705.00000 24.39518 -22.27386
    vertex 685.00000 81.20541 -79.08409
  endloop
endfacet
facet normal 0.00000 0.70711 0.70711
  outer loop
    vertex 575.00000 24.39518 -22.27386
    vertex 685.00000 81.20541 -79.08409
    vertex 630.00000 81.20541 -79.08409
  endloop
endfacet
facet normal 0.00000 -0.70711 -0.70711
  outer loop
    vertex 630.00000 79.08409 -81.20541
    vertex 685.00000 79.08409 -81.20541
    vertex 705.00000 22.27386 -24.39518
  endloop
endfacet
facet normal 0.00000 -0.70711 -0.70711
  outer loop
    vertex 630.00000 79.08409 -81.20541
    vertex 705.00000 22.27386 -24.39518
    vertex 575.00000 22.27386 -24.39518
  endloop
endfacet
facet normal 0.82517 -0.39944 0.39944
  outer loop
    vertex 575.00000 22.27386 -24.39518
    vertex 630.00000 79.08409 -81.20541
    vertex 630.00000 81.20541 -79.08409
  endloop
endfacet
facet normal 0.82517 -0.39944 0.39944
  outer loop
    vertex 575.00000 22.27386 -24.39518
    vertex 630.00000 81.20541 -79.08409
    vertex 575.00000 24.39518 -22.27386
  endloop
endfacet
facet normal -0.97038 -0.17081 0.17081
  outer loop
    vertex 705.00000 24.39518 -22.27386
    vertex 685.00000 81.20541 -79.08409
    vertex 685.00000 79.08409 -81.20541
  endloop
endfacet
facet normal -0.97038 -0.17081 0.17081
  outer loop
    vertex 705.00000 24.39518 -22.27386
    vertex 685.00000 79.08409 -81.20541
    vertex 705.00000 22.27386 -24.39518
  endloop
endfacet
facet normal 0.00000 -0.70711 0.70711
  outer loop
    vertex 630.00000 79.08409 -81.20541
    vertex 685.00000 79.08409 -81.20541
    vertex 685.00000 81.20541 -79.08409
  endloop
endfacet
facet normal 0.00000 -0.70711 0.70711
  outer loop
    vertex 630.00000 79.08409 -81.20541
    vertex 685.00000 81.20541 -79.08409
    vertex 630.00000 81.20541 -79.08409
  endloop
endfacet
facet normal 0.00000 0.70711 -0.70711
  outer loop
    vertex 575.00000 24.39518 -22.27386
    vertex 705.00000 24.39518 -22.27386
    vertex 705.00000 22.27386 -24.39518
  endloop
endfacet
facet normal 0.00000 0.70711 -0.70711
  outer loop
    vertex 575.00000 24.39518 -22.27386
    vertex 705.00000 22.27386 -24.39518
    vertex 575.00000 22.27386 -24.39518
  endloop
endfacet
endsolid CSWARCMOD1E.ork_finset_wind2_80ms
