solid CSWARCMOD1E.ork_finset_wind2_71ms
facet normal 0.00000 -0.70711 0.70711
  outer loop
    vertex 575.00000 22.27386 24.39518
    vertex 705.00000 22.27386 24.39518
    vertex 685.00000 80.43754 82.55886
  endloop
endfacet
facet normal 0.00000 -0.70711 0.70711
  outer loop
    vertex 575.00000 22.27386 24.39518
    vertex 685.00000 80.43754 82.55886
    vertex 630.00000 80.43754 82.55886
  endloop
endfacet
facet normal 0.00000 0.70711 -0.70711
  outer loop
    vertex 630.00000 82.55886 80.43754
    vertex 685.00000 82.55886 80.43754
    vertex 705.00000 24.39518 22.27386
  endloop
endfacet
facet normal 0.00000 0.70711 -0.70711
  outer loop
    vertex 630.00000 82.55886 80.43754
    vertex 705.00000 24.39518 22.27386
    vertex 575.00000 24.39518 22.27386
  endloop
endfacet
facet normal 0.83129 -0.39304 -0.39304
  outer loop
    vertex 575.00000 24.39518 22.27386
    vertex 630.00000 82.55886 80.43754
    vertex 630.00000 80.43754 82.55886
  endloop
endfacet
facet normal 0.83129 -0.39304 -0.39304
  outer loop
    vertex 575.00000 24.39518 22.27386
    vertex 630.00000 80.43754 82.55886
    vertex 575.00000 22.27386 24.39518
  endloop
endfacet
facet normal -0.97169 -0.16706 -0.16706
  outer loop
    vertex 705.00000 22.27386 24.39518
    vertex 685.00000 80.43754 82.55886
    vertex 685.00000 82.55886 80.43754
  endloop
endfacet
facet normal -0.97169 -0.16706 -0.16706
  outer loop
    vertex 705.00000 22.27386 24.39518
    vertex 685.00000 82.55886 80.43754
    vertex 705.00000 24.39518 22.27386
  endloop
endfacet
facet normal 0.00000 -0.70711 -0.70711
  outer loop
    vertex 630.00000 82.55886 80.43754
    vertex 685.00000 82.55886 80.43754
    vertex 685.00000 80.43754 82.55886
  endloop
endfacet
facet normal 0.00000 -0.70711 -0.70711
  outer loop
    vertex 630.00000 82.55886 80.43754
    vertex 685.00000 80.43754 82.55886
    vertex 630.00000 80.43754 82.55886
  endloop
endfacet
facet normal -0.00000 0.70711 0.70711
  outer loop
    vertex 575.00000 22.27386 24.39518
    vertex 705.00000 22.27386 24.39518
    vertex 705.00000 24.39518 22.27386
  endloop
endfacet
facet normal 0.00000 0.70711 0.70711
  outer loop
    vertex 575.00000 22.27386 24.39518
    vertex 705.00000 24.39518 22.27386
    vertex 575.00000 24.39518 22.27386
  endloop
endfacet
facet normal 0.00000 -0.70711 -0.70711
  outer loop
    vertex 575.00000 -24.39518 22.27386
    vertex 705.00000 -24.39518 22.27386
    vertex 685.00000 -82.55886 80.43754
  endloop
endfacet
facet normal 0.00000 -0.70711 -0.70711
  outer loop
    vertex 575.00000 -24.39518 22.27386
    vertex 685.00000 -82.55886 80.43754
    vertex 630.00000 -82.55886 80.43754
  endloop
endfacet
facet normal -0.00000 0.70711 0.70711
  outer loop
    vertex 630.00000 -80.43754 82.55886
    vertex 685.00000 -80.43754 82.55886
    vertex 705.00000 -22.27386 24.39518
  endloop
endfacet
facet normal 0.00000 0.70711 0.70711
  outer loop
    vertex 630.00000 -80.43754 82.55886
    vertex 705.00000 -22.27386 24.39518
    vertex 575.00000 -22.27386 24.39518
  endloop
endfacet
facet normal 0.83129 0.39304 -0.39304
  outer loop
    vertex 575.00000 -22.27386 24.39518
    vertex 630.00000 -80.43754 82.55886
    vertex 630.00000 -82.55886 80.43754
  endloop
endfacet
facet normal 0.83129 0.39304 -0.39304
  outer loop
    vertex 575.00000 -22.27386 24.39518
    vertex 630.00000 -82.55886 80.43754
    vertex 575.00000 -24.39518 22.27386
  endloop
endfacet
facet normal -0.97169 0.16706 -0.16706
  outer loop
    vertex 705.00000 -24.39518 22.27386
    vertex 685.00000 -82.55886 80.43754
    vertex 685.00000 -80.43754 82.55886
  endloop
endfacet
facet normal -0.97169 0.16706 -0.16706
  outer loop
    vertex 705.00000 -24.39518 22.27386
    vertex 685.00000 -80.43754 82.55886
    vertex 705.00000 -22.27386 24.39518
  endloop
endfacet
facet normal 0.00000 0.70711 -0.70711
  outer loop
    vertex 630.00000 -80.43754 82.55886
    vertex 685.00000 -80.43754 82.55886
    vertex 685.00000 -82.55886 80.43754
  endloop
endfacet
facet normal 0.00000 0.70711 -0.70711
  outer loop
    vertex 630.00000 -80.43754 82.55886
    vertex 685.00000 -82.55886 80.43754
    vertex 630.00000 -82.55886 80.43754
  endloop
endfacet
facet normal 0.00000 -0.70711 0.70711
  outer loop
    vertex 575.00000 -24.39518 22.27386
    vertex 705.00000 -24.39518 22.27386
    vertex 705.00000 -22.27386 24.39518
  endloop
endfacet
facet normal 0.00000 -0.70711 0.70711
  outer loop
    vertex 575.00000 -24.39518 22.27386
    vertex 705.00000 -22.27386 24.39518
    vertex 575.00000 -22.27386 24.39518
  endloop
endfacet
facet normal 0.00000 0.70711 -0.70711
  outer loop
    vertex 575.00000 -22.27386 -24.39518
    vertex 705.00000 -22.27386 -24.39518
    vertex 685.00000 -80.43754 -82.55886
  endloop
endfacet
facet normal 0.00000 0.70711 -0.70711
  outer loop
    vertex 575.00000 -22.27386 -24.39518
    vertex 685.00000 -80.43754 -82.55886
    vertex 630.00000 -80.43754 -82.55886
  endloop
endfacet
facet normal 0.00000 -0.70711 0.70711
  outer loop
    vertex 630.00000 -82.55886 -80.43754
    vertex 685.00000 -82.55886 -80.43754
    vertex 705.00000 -24.39518 -22.27386
  endloop
endfacet
facet normal 0.00000 -0.70711 0.70711
  outer loop
    vertex 630.00000 -82.55886 -80.43754
    vertex 705.00000 -24.39518 -22.27386
    vertex 575.00000 -24.39518 -22.27386
  endloop
endfacet
facet normal 0.83129 0.39304 0.39304
  outer loop
    vertex 575.00000 -24.39518 -22.27386
    vertex 630.00000 -82.55886 -80.43754
    vertex 630.00000 -80.43754 -82.55886
  endloop
endfacet
facet normal 0.83129 0.39304 0.39304
  outer loop
    vertex 575.00000 -24.39518 -22.27386
    vertex 630.00000 -80.43754 -82.55886
    vertex 575.00000 -22.27386 -24.39518
  endloop
endfacet
facet normal -0.97169 0.16706 0.16706
  outer loop
    vertex 705.00000 -22.27386 -24.39518
    vertex 685.00000 -80.43754 -82.55886
    vertex 685.00000 -82.55886 -80.43754
  endloop
endfacet
facet normal -0.97169 0.16706 0.16706
  outer loop
    vertex 705.00000 -22.27386 -24.39518
    vertex 685.00000 -82.55886 -80.43754
    vertex 705.00000 -24.39518 -22.27386
  endloop
endfacet
facet normal -0.00000 0.70711 0.70711
  outer loop
    vertex 630.00000 -82.55886 -80.43754
    vertex 685.00000 -82.55886 -80.43754
    vertex 685.00000 -80.43754 -82.55886
  endloop
endfacet
facet normal 0.00000 0.70711 0.70711
  outer loop
    vertex 630.00000 -82.55886 -80.43754
    vertex 685.00000 -80.43754 -82.55886
    vertex 630.00000 -80.43754 -82.55886
  endloop
endfacet
facet normal 0.00000 -0.70711 -0.70711
  outer loop
    vertex 575.00000 -22.27386 -24.39518
    vertex 705.00000 -22.27386 -24.39518
    vertex 705.00000 -24.39518 -22.27386
  endloop
endfacet
facet normal 0.00000 -0.70711 -0.70711
  outer loop
    vertex 575.00000 -22.27386 -24.39518
    vertex 705.00000 -24.39518 -22.27386
    vertex 575.00000 -24.39518 -22.27386
  endloop
endfacet
facet normal -0.00000 0.70711 0.70711
  outer loop
    vertex 575.00000 24.39518 -22.27386
    vertex 705.00000 24.39518 -22.27386
    vertex 685.00000 82.55886 -80.43754
  endloop
endfacet
facet normal 0.00000 0.70711 0.70711
  outer loop
    vertex 575.00000 24.39518 -22.27386
    vertex 685.00000 82.55886 -80.43754
    vertex 630.00000 82.55886 -80.43754
  endloop
endfacet
facet normal 0.00000 -0.70711 -0.70711
  outer loop
    vertex 630.00000 80.43754 -82.55886
    vertex 685.00000 80.43754 -82.55886
    vertex 705.00000 22.27386 -24.39518
  endloop
endfacet
facet normal 0.00000 -0.70711 -0.70711
  outer loop
    vertex 630.00000 80.43754 -82.55886
    vertex 705.00000 22.27386 -24.39518
    vertex 575.00000 22.27386 -24.39518
  endloop
endfacet
facet normal 0.83129 -0.39304 0.39304
  outer loop
    vertex 575.00000 22.27386 -24.39518
    vertex 630.00000 80.43754 -82.55886
    vertex 630.00000 82.55886 -80.43754
  endloop
endfacet
facet normal 0.83129 -0.39304 0.39304
  outer loop
    vertex 575.00000 22.27386 -24.39518
    vertex 630.00000 82.55886 -80.43754
    vertex 575.00000 24.39518 -22.27386
  endloop
endfacet
facet normal -0.97169 -0.16706 0.16706
  outer loop
    vertex 705.00000 24.39518 -22.27386
    vertex 685.00000 82.55886 -80.43754
    vertex 685.00000 80.43754 -82.55886
  endloop
endfacet
facet normal -0.97169 -0.16706 0.16706
  outer loop
    vertex 705.00000 24.39518 -22.27386
    vertex 685.00000 80.43754 -82.55886
    vertex 705.00000 22.27386 -24.39518
  endloop
endfacet
facet normal 0.00000 -0.70711 0.70711
  outer loop
    vertex 630.00000 80.43754 -82.55886
    vertex 685.00000 80.43754 -82.55886
    vertex 685.00000 82.55886 -80.43754
  endloop
endfacet
facet normal 0.00000 -0.70711 0.70711
  outer loop
    vertex 630.00000 80.43754 -82.55886
    vertex 685.00000 82.55886 -80.43754
    vertex 630.00000 82.55886 -80.43754
  endloop
endfacet
facet normal 0.00000 0.70711 -0.70711
  outer loop
    vertex 575.00000 24.39518 -22.27386
    vertex 705.00000 24.39518 -22.27386
    vertex 705.00000 22.27386 -24.39518
  endloop
endfacet
facet normal 0.00000 0.70711 -0.70711
  outer loop
    vertex 575.00000 24.39518 -22.27386
    vertex 705.00000 22.27386 -24.39518
    vertex 575.00000 22.27386 -24.39518
  endloop
endfacet
endsolid CSWARCMOD1E.ork_finset_wind2_71ms
