solid CSWARCMOD1E.ork_finset_wind2_40ms
facet normal 0.00000 -0.70711 0.70711
  outer loop
    vertex 575.00000 22.27386 24.39518
    vertex 705.00000 22.27386 24.39518
    vertex 685.00000 111.39763 113.51895
  endloop
endfacet
facet normal 0.00000 -0.70711 0.70711
  outer loop
    vertex 575.00000 22.27386 24.39518
    vertex 685.00000 111.39763 113.51895
    vertex 630.00000 111.39763 113.51895
  endloop
endfacet
facet normal 0.00000 0.70711 -0.70711
  outer loop
    vertex 630.00000 113.51895 111.39763
    vertex 685.00000 113.51895 111.39763
    vertex 705.00000 24.39518 22.27386
  endloop
endfacet
facet normal 0.00000 0.70711 -0.70711
  outer loop
    vertex 630.00000 113.51895 111.39763
    vertex 705.00000 24.39518 22.27386
    vertex 575.00000 24.39518 22.27386
  endloop
endfacet
facet normal 0.91654 -0.28281 -0.28281
  outer loop
    vertex 575.00000 24.39518 22.27386
    vertex 630.00000 113.51895 111.39763
    vertex 630.00000 111.39763 113.51895
  endloop
endfacet
facet normal 0.91654 -0.28281 -0.28281
  outer loop
    vertex 575.00000 24.39518 22.27386
    vertex 630.00000 111.39763 113.51895
    vertex 575.00000 22.27386 24.39518
  endloop
endfacet
facet normal -0.98764 -0.11082 -0.11082
  outer loop
    vertex 705.00000 22.27386 24.39518
    vertex 685.00000 111.39763 113.51895
    vertex 685.00000 113.51895 111.39763
  endloop
endfacet
facet normal -0.98764 -0.11082 -0.11082
  outer loop
    vertex 705.00000 22.27386 24.39518
    vertex 685.00000 113.51895 111.39763
    vertex 705.00000 24.39518 22.27386
  endloop
endfacet
facet normal 0.00000 -0.70711 -0.70711
  outer loop
    vertex 630.00000 113.51895 111.39763
    vertex 685.00000 113.51895 111.39763
    vertex 685.00000 111.39763 113.51895
  endloop
endfacet
facet normal 0.00000 -0.70711 -0.70711
  outer loop
    vertex 630.00000 113.51895 111.39763
    vertex 685.00000 111.39763 113.51895
    vertex 630.00000 111.39763 113.51895
  endloop
endfacet
facet normal -0.00000 0.70711 0.70711
  outer loop
    vertex 575.00000 22.27386 24.39518
    vertex 705.00000 22.27386 24.39518
    vertex 705.00000 24.39518 22.27386
  endloop
endfacet
facet normal 0.00000 0.70711 0.70711
  outer loop
    vertex 575.00000 22.27386 24.39518
    vertex 705.00000 24.39518 22.27386
    vertex 575.00000 24.39518 22.27386
  endloop
endfacet
facet normal 0.00000 -0.70711 -0.70711
  outer loop
    vertex 575.00000 -24.39518 22.27386
    vertex 705.00000 -24.39518 22.27386
    vertex 685.00000 -113.51895 111.39763
  endloop
endfacet
facet normal 0.00000 -0.70711 -0.70711
  outer loop
    vertex 575.00000 -24.39518 22.27386
    vertex 685.00000 -113.51895 111.39763
    vertex 630.00000 -113.51895 111.39763
  endloop
endfacet
facet normal -0.00000 0.70711 0.70711
  outer loop
    vertex 630.00000 -111.39763 113.51895
    vertex 685.00000 -111.39763 113.51895
    vertex 705.00000 -22.27386 24.39518
  endloop
endfacet
facet normal 0.00000 0.70711 0.70711
  outer loop
    vertex 630.00000 -111.39763 113.51895
    vertex 705.00000 -22.27386 24.39518
    vertex 575.00000 -22.27386 24.39518
  endloop
endfacet
facet normal 0.91654 0.28281 -0.28281
  outer loop
    vertex 575.00000 -22.27386 24.39518
    vertex 630.00000 -111.39763 113.51895
    vertex 630.00000 -113.51895 111.39763
  endloop
endfacet
facet normal 0.91654 0.28281 -0.28281
  outer loop
    vertex 575.00000 -22.27386 24.39518
    vertex 630.00000 -113.51895 111.39763
    vertex 575.00000 -24.39518 22.27386
  endloop
endfacet
facet normal -0.98764 0.11082 -0.11082
  outer loop
    vertex 705.00000 -24.39518 22.27386
    vertex 685.00000 -113.51895 111.39763
    vertex 685.00000 -111.39763 113.51895
  endloop
endfacet
facet normal -0.98764 0.11082 -0.11082
  outer loop
    vertex 705.00000 -24.39518 22.27386
    vertex 685.00000 -111.39763 113.51895
    vertex 705.00000 -22.27386 24.39518
  endloop
endfacet
facet normal 0.00000 0.70711 -0.70711
  outer loop
    vertex 630.00000 -111.39763 113.51895
    vertex 685.00000 -111.39763 113.51895
    vertex 685.00000 -113.51895 111.39763
  endloop
endfacet
facet normal 0.00000 0.70711 -0.70711
  outer loop
    vertex 630.00000 -111.39763 113.51895
    vertex 685.00000 -113.51895 111.39763
    vertex 630.00000 -113.51895 111.39763
  endloop
endfacet
facet normal 0.00000 -0.70711 0.70711
  outer loop
    vertex 575.00000 -24.39518 22.27386
    vertex 705.00000 -24.39518 22.27386
    vertex 705.00000 -22.27386 24.39518
  endloop
endfacet
facet normal 0.00000 -0.70711 0.70711
  outer loop
    vertex 575.00000 -24.39518 22.27386
    vertex 705.00000 -22.27386 24.39518
    vertex 575.00000 -22.27386 24.39518
  endloop
endfacet
facet normal 0.00000 0.70711 -0.70711
  outer loop
    vertex 575.00000 -22.27386 -24.39518
    vertex 705.00000 -22.27386 -24.39518
    vertex 685.00000 -111.39763 -113.51895
  endloop
endfacet
facet normal 0.00000 0.70711 -0.70711
  outer loop
    vertex 575.00000 -22.27386 -24.39518
    vertex 685.00000 -111.39763 -113.51895
    vertex 630.00000 -111.39763 -113.51895
  endloop
endfacet
facet normal 0.00000 -0.70711 0.70711
  outer loop
    vertex 630.00000 -113.51895 -111.39763
    vertex 685.00000 -113.51895 -111.39763
    vertex 705.00000 -24.39518 -22.27386
  endloop
endfacet
facet normal 0.00000 -0.70711 0.70711
  outer loop
    vertex 630.00000 -113.51895 -111.39763
    vertex 705.00000 -24.39518 -22.27386
    vertex 575.00000 -24.39518 -22.27386
  endloop
endfacet
facet normal 0.91654 0.28281 0.28281
  outer loop
    vertex 575.00000 -24.39518 -22.27386
    vertex 630.00000 -113.51895 -111.39763
    vertex 630.00000 -111.39763 -113.51895
  endloop
endfacet
facet normal 0.91654 0.28281 0.28281
  outer loop
    vertex 575.00000 -24.39518 -22.27386
    vertex 630.00000 -111.39763 -113.51895
    vertex 575.00000 -22.27386 -24.39518
  endloop
endfacet
facet normal -0.98764 0.11082 0.11082
  outer loop
    vertex 705.00000 -22.27386 -24.39518
    vertex 685.00000 -111.39763 -113.51895
    vertex 685.00000 -113.51895 -111.39763
  endloop
endfacet
facet normal -0.98764 0.11082 0.11082
  outer loop
    vertex 705.00000 -22.27386 -24.39518
    vertex 685.00000 -113.51895 -111.39763
    vertex 705.00000 -24.39518 -22.27386
  endloop
endfacet
facet normal -0.00000 0.70711 0.70711
  outer loop
    vertex 630.00000 -113.51895 -111.39763
    vertex 685.00000 -113.51895 -111.39763
    vertex 685.00000 -111.39763 -113.51895
  endloop
endfacet
facet normal 0.00000 0.70711 0.70711
  outer loop
    vertex 630.00000 -113.51895 -111.39763
    vertex 685.00000 -111.39763 -113.51895
    vertex 630.00000 -111.39763 -113.51895
  endloop
endfacet
facet normal 0.00000 -0.70711 -0.70711
  outer loop
    vertex 575.00000 -22.27386 -24.39518
    vertex 705.00000 -22.27386 -24.39518
    vertex 705.00000 -24.39518 -22.27386
  endloop
endfacet
facet normal 0.00000 -0.70711 -0.70711
  outer loop
    vertex 575.00000 -22.27386 -24.39518
    vertex 705.00000 -24.39518 -22.27386
    vertex 575.00000 -24.39518 -22.27386
  endloop
endfacet
facet normal -0.00000 0.70711 0.70711
  outer loop
    vertex 575.00000 24.39518 -22.27386
    vertex 705.00000 24.39518 -22.27386
    vertex 685.00000 113.51895 -111.39763
  endloop
endfacet
facet normal 0.00000 0.70711 0.70711
  outer loop
    vertex 575.00000 24.39518 -22.27386
    vertex 685.00000 113.51895 -111.39763
    vertex 630.00000 113.51895 -111.39763
  endloop
endfacet
facet normal 0.00000 -0.70711 -0.70711
  outer loop
    vertex 630.00000 111.39763 -113.51895
    vertex 685.00000 111.39763 -113.51895
    vertex 705.00000 22.27386 -24.39518
  endloop
endfacet
facet normal 0.00000 -0.70711 -0.70711
  outer loop
    vertex 630.00000 111.39763 -113.51895
    vertex 705.00000 22.27386 -24.39518
    vertex 575.00000 22.27386 -24.39518
  endloop
endfacet
facet normal 0.91654 -0.28281 0.28281
  outer loop
    vertex 575.00000 22.27386 -24.39518
    vertex 630.00000 111.39763 -113.51895
    vertex 630.00000 113.51895 -111.39763
  endloop
endfacet
facet normal 0.91654 -0.28281 0.28281
  outer loop
    vertex 575.00000 22.27386 -24.39518
    vertex 630.00000 113.51895 -111.39763
    vertex 575.00000 24.39518 -22.27386
  endloop
endfacet
facet normal -0.98764 -0.11082 0.11082
  outer loop
    vertex 705.00000 24.39518 -22.27386
    vertex 685.00000 113.51895 -111.39763
    vertex 685.00000 111.39763 -113.51895
  endloop
endfacet
facet normal -0.98764 -0.11082 0.11082
  outer loop
    vertex 705.00000 24.39518 -22.27386
    vertex 685.00000 111.39763 -113.51895
    vertex 705.00000 22.27386 -24.39518
  endloop
endfacet
facet normal 0.00000 -0.70711 0.70711
  outer loop
    vertex 630.00000 111.39763 -113.51895
    vertex 685.00000 111.39763 -113.51895
    vertex 685.00000 113.51895 -111.39763
  endloop
endfacet
facet normal 0.00000 -0.70711 0.70711
  outer loop
    vertex 630.00000 111.39763 -113.51895
    vertex 685.00000 113.51895 -111.39763
    vertex 630.00000 113.51895 -111.39763
  endloop
endfacet
facet normal 0.00000 0.70711 -0.70711
  outer loop
    vertex 575.00000 24.39518 -22.27386
    vertex 705.00000 24.39518 -22.27386
    vertex 705.00000 22.27386 -24.39518
  endloop
endfacet
facet normal 0.00000 0.70711 -0.70711
  outer loop
    vertex 575.00000 24.39518 -22.27386
    vertex 705.00000 22.27386 -24.39518
    vertex 575.00000 22.27386 -24.39518
  endloop
endfacet
endsolid CSWARCMOD1E.ork_finset_wind2_40ms
