solid CSWARCMOD1E.ork_finset_wind2_26ms
facet normal 0.00000 -0.70711 0.70711
  outer loop
    vertex 575.00000 22.27386 24.39518
    vertex 705.00000 22.27386 24.39518
    vertex 685.00000 113.76616 115.88748
  endloop
endfacet
facet normal 0.00000 -0.70711 0.70711
  outer loop
    vertex 575.00000 22.27386 24.39518
    vertex 685.00000 113.76616 115.88748
    vertex 630.00000 113.76616 115.88748
  endloop
endfacet
facet normal 0.00000 0.70711 -0.70711
  outer loop
    vertex 630.00000 115.88748 113.76616
    vertex 685.00000 115.88748 113.76616
    vertex 705.00000 24.39518 22.27386
  endloop
endfacet
facet normal 0.00000 0.70711 -0.70711
  outer loop
    vertex 630.00000 115.88748 113.76616
    vertex 705.00000 24.39518 22.27386
    vertex 575.00000 24.39518 22.27386
  endloop
endfacet
facet normal 0.92031 -0.27662 -0.27662
  outer loop
    vertex 575.00000 24.39518 22.27386
    vertex 630.00000 115.88748 113.76616
    vertex 630.00000 113.76616 115.88748
  endloop
endfacet
facet normal 0.92031 -0.27662 -0.27662
  outer loop
    vertex 575.00000 24.39518 22.27386
    vertex 630.00000 113.76616 115.88748
    vertex 575.00000 22.27386 24.39518
  endloop
endfacet
facet normal -0.98826 -0.10802 -0.10802
  outer loop
    vertex 705.00000 22.27386 24.39518
    vertex 685.00000 113.76616 115.88748
    vertex 685.00000 115.88748 113.76616
  endloop
endfacet
facet normal -0.98826 -0.10802 -0.10802
  outer loop
    vertex 705.00000 22.27386 24.39518
    vertex 685.00000 115.88748 113.76616
    vertex 705.00000 24.39518 22.27386
  endloop
endfacet
facet normal 0.00000 -0.70711 -0.70711
  outer loop
    vertex 630.00000 115.88748 113.76616
    vertex 685.00000 115.88748 113.76616
    vertex 685.00000 113.76616 115.88748
  endloop
endfacet
facet normal 0.00000 -0.70711 -0.70711
  outer loop
    vertex 630.00000 115.88748 113.76616
    vertex 685.00000 113.76616 115.88748
    vertex 630.00000 113.76616 115.88748
  endloop
endfacet
facet normal -0.00000 0.70711 0.70711
  outer loop
    vertex 575.00000 22.27386 24.39518
    vertex 705.00000 22.27386 24.39518
    vertex 705.00000 24.39518 22.27386
  endloop
endfacet
facet normal 0.00000 0.70711 0.70711
  outer loop
    vertex 575.00000 22.27386 24.39518
    vertex 705.00000 24.39518 22.27386
    vertex 575.00000 24.39518 22.27386
  endloop
endfacet
facet normal 0.00000 -0.70711 -0.70711
  outer loop
    vertex 575.00000 -24.39518 22.27386
    vertex 705.00000 -24.39518 22.27386
    vertex 685.00000 -115.88748 113.76616
  endloop
endfacet
facet normal 0.00000 -0.70711 -0.70711
  outer loop
    vertex 575.00000 -24.39518 22.27386
    vertex 685.00000 -115.88748 113.76616
    vertex 630.00000 -115.88748 113.76616
  endloop
endfacet
facet normal -0.00000 0.70711 0.70711
  outer loop
    vertex 630.00000 -113.76616 115.88748
    vertex 685.00000 -113.76616 115.88748
    vertex 705.00000 -22.27386 24.39518
  endloop
endfacet
facet normal 0.00000 0.70711 0.70711
  outer loop
    vertex 630.00000 -113.76616 115.88748
    vertex 705.00000 -22.27386 24.39518
    vertex 575.00000 -22.27386 24.39518
  endloop
endfacet
facet normal 0.92031 0.27662 -0.27662
  outer loop
    vertex 575.00000 -22.27386 24.39518
    vertex 630.00000 -113.76616 115.88748
    vertex 630.00000 -115.88748 113.76616
  endloop
endfacet
facet normal 0.92031 0.27662 -0.27662
  outer loop
    vertex 575.00000 -22.27386 24.39518
    vertex 630.00000 -115.88748 113.76616
    vertex 575.00000 -24.39518 22.27386
  endloop
endfacet
facet normal -0.98826 0.10802 -0.10802
  outer loop
    vertex 705.00000 -24.39518 22.27386
    vertex 685.00000 -115.88748 113.76616
    vertex 685.00000 -113.76616 115.88748
  endloop
endfacet
facet normal -0.98826 0.10802 -0.10802
  outer loop
    vertex 705.00000 -24.39518 22.27386
    vertex 685.00000 -113.76616 115.88748
    vertex 705.00000 -22.27386 24.39518
  endloop
endfacet
facet normal 0.00000 0.70711 -0.70711
  outer loop
    vertex 630.00000 -113.76616 115.88748
    vertex 685.00000 -113.76616 115.88748
    vertex 685.00000 -115.88748 113.76616
  endloop
endfacet
facet normal 0.00000 0.70711 -0.70711
  outer loop
    vertex 630.00000 -113.76616 115.88748
    vertex 685.00000 -115.88748 113.76616
    vertex 630.00000 -115.88748 113.76616
  endloop
endfacet
facet normal 0.00000 -0.70711 0.70711
  outer loop
    vertex 575.00000 -24.39518 22.27386
    vertex 705.00000 -24.39518 22.27386
    vertex 705.00000 -22.27386 24.39518
  endloop
endfacet
facet normal 0.00000 -0.70711 0.70711
  outer loop
    vertex 575.00000 -24.39518 22.27386
    vertex 705.00000 -22.27386 24.39518
    vertex 575.00000 -22.27386 24.39518
  endloop
endfacet
facet normal 0.00000 0.70711 -0.70711
  outer loop
    vertex 575.00000 -22.27386 -24.39518
    vertex 705.00000 -22.27386 -24.39518
    vertex 685.00000 -113.76616 -115.88748
  endloop
endfacet
facet normal 0.00000 0.70711 -0.70711
  outer loop
    vertex 575.00000 -22.27386 -24.39518
    vertex 685.00000 -113.76616 -115.88748
    vertex 630.00000 -113.76616 -115.88748
  endloop
endfacet
facet normal 0.00000 -0.70711 0.70711
  outer loop
    vertex 630.00000 -115.88748 -113.76616
    vertex 685.00000 -115.88748 -113.76616
    vertex 705.00000 -24.39518 -22.27386
  endloop
endfacet
facet normal 0.00000 -0.70711 0.70711
  outer loop
    vertex 630.00000 -115.88748 -113.76616
    vertex 705.00000 -24.39518 -22.27386
    vertex 575.00000 -24.39518 -22.27386
  endloop
endfacet
facet normal 0.92031 0.27662 0.27662
  outer loop
    vertex 575.00000 -24.39518 -22.27386
    vertex 630.00000 -115.88748 -113.76616
    vertex 630.00000 -113.76616 -115.88748
  endloop
endfacet
facet normal 0.92031 0.27662 0.27662
  outer loop
    vertex 575.00000 -24.39518 -22.27386
    vertex 630.00000 -113.76616 -115.88748
    vertex 575.00000 -22.27386 -24.39518
  endloop
endfacet
facet normal -0.98826 0.10802 0.10802
  outer loop
    vertex 705.00000 -22.27386 -24.39518
    vertex 685.00000 -113.76616 -115.88748
    vertex 685.00000 -115.88748 -113.76616
  endloop
endfacet
facet normal -0.98826 0.10802 0.10802
  outer loop
    vertex 705.00000 -22.27386 -24.39518
    vertex 685.00000 -115.88748 -113.76616
    vertex 705.00000 -24.39518 -22.27386
  endloop
endfacet
facet normal -0.00000 0.70711 0.70711
  outer loop
    vertex 630.00000 -115.88748 -113.76616
    vertex 685.00000 -115.88748 -113.76616
    vertex 685.00000 -113.76616 -115.88748
  endloop
endfacet
facet normal 0.00000 0.70711 0.70711
  outer loop
    vertex 630.00000 -115.88748 -113.76616
    vertex 685.00000 -113.76616 -115.88748
    vertex 630.00000 -113.76616 -115.88748
  endloop
endfacet
facet normal 0.00000 -0.70711 -0.70711
  outer loop
    vertex 575.00000 -22.27386 -24.39518
    vertex 705.00000 -22.27386 -24.39518
    vertex 705.00000 -24.39518 -22.27386
  endloop
endfacet
facet normal 0.00000 -0.70711 -0.70711
  outer loop
    vertex 575.00000 -22.27386 -24.39518
    vertex 705.00000 -24.39518 -22.27386
    vertex 575.00000 -24.39518 -22.27386
  endloop
endfacet
facet normal -0.00000 0.70711 0.70711
  outer loop
    vertex 575.00000 24.39518 -22.27386
    vertex 705.00000 24.39518 -22.27386
    vertex 685.00000 115.88748 -113.76616
  endloop
endfacet
facet normal 0.00000 0.70711 0.70711
  outer loop
    vertex 575.00000 24.39518 -22.27386
    vertex 685.00000 115.88748 -113.76616
    vertex 630.00000 115.88748 -113.76616
  endloop
endfacet
facet normal 0.00000 -0.70711 -0.70711
  outer loop
    vertex 630.00000 113.76616 -115.88748
    vertex 685.00000 113.76616 -115.88748
    vertex 705.00000 22.27386 -24.39518
  endloop
endfacet
facet normal 0.00000 -0.70711 -0.70711
  outer loop
    vertex 630.00000 113.76616 -115.88748
    vertex 705.00000 22.27386 -24.39518
    vertex 575.00000 22.27386 -24.39518
  endloop
endfacet
facet normal 0.92031 -0.27662 0.27662
  outer loop
    vertex 575.00000 22.27386 -24.39518
    vertex 630.00000 113.76616 -115.88748
    vertex 630.00000 115.88748 -113.76616
  endloop
endfacet
facet normal 0.92031 -0.27662 0.27662
  outer loop
    vertex 575.00000 22.27386 -24.39518
    vertex 630.00000 115.88748 -113.76616
    vertex 575.00000 24.39518 -22.27386
  endloop
endfacet
facet normal -0.98826 -0.10802 0.10802
  outer loop
    vertex 705.00000 24.39518 -22.27386
    vertex 685.00000 115.88748 -113.76616
    vertex 685.00000 113.76616 -115.88748
  endloop
endfacet
facet normal -0.98826 -0.10802 0.10802
  outer loop
    vertex 705.00000 24.39518 -22.27386
    vertex 685.00000 113.76616 -115.88748
    vertex 705.00000 22.27386 -24.39518
  endloop
endfacet
facet normal 0.00000 -0.70711 0.70711
  outer loop
    vertex 630.00000 113.76616 -115.88748
    vertex 685.00000 113.76616 -115.88748
    vertex 685.00000 115.88748 -113.76616
  endloop
endfacet
facet normal 0.00000 -0.70711 0.70711
  outer loop
    vertex 630.00000 113.76616 -115.88748
    vertex 685.00000 115.88748 -113.76616
    vertex 630.00000 115.88748 -113.76616
  endloop
endfacet
facet normal 0.00000 0.70711 -0.70711
  outer loop
    vertex 575.00000 24.39518 -22.27386
    vertex 705.00000 24.39518 -22.27386
    vertex 705.00000 22.27386 -24.39518
  endloop
endfacet
facet normal 0.00000 0.70711 -0.70711
  outer loop
    vertex 575.00000 24.39518 -22.27386
    vertex 705.00000 22.27386 -24.39518
    vertex 575.00000 22.27386 -24.39518
  endloop
endfacet
endsolid CSWARCMOD1E.ork_finset_wind2_26ms
