solid CSWARCMOD1E.ork_finset_wind1_97ms
facet normal 0.00000 -0.70711 0.70711
  outer loop
    vertex 575.00000 22.27386 24.39518
    vertex 705.00000 22.27386 24.39518
    vertex 685.00000 118.33404 120.45536
  endloop
endfacet
facet normal 0.00000 -0.70711 0.70711
  outer loop
    vertex 575.00000 22.27386 24.39518
    vertex 685.00000 118.33404 120.45536
    vertex 630.00000 118.33404 120.45536
  endloop
endfacet
facet normal 0.00000 0.70711 -0.70711
  outer loop
    vertex 630.00000 120.45536 118.33404
    vertex 685.00000 120.45536 118.33404
    vertex 705.00000 24.39518 22.27386
  endloop
endfacet
facet normal 0.00000 0.70711 -0.70711
  outer loop
    vertex 630.00000 120.45536 118.33404
    vertex 705.00000 24.39518 22.27386
    vertex 575.00000 24.39518 22.27386
  endloop
endfacet
facet normal 0.92692 -0.26536 -0.26536
  outer loop
    vertex 575.00000 24.39518 22.27386
    vertex 630.00000 120.45536 118.33404
    vertex 630.00000 118.33404 120.45536
  endloop
endfacet
facet normal 0.92692 -0.26536 -0.26536
  outer loop
    vertex 575.00000 24.39518 22.27386
    vertex 630.00000 118.33404 120.45536
    vertex 575.00000 22.27386 24.39518
  endloop
endfacet
facet normal -0.98934 -0.10299 -0.10299
  outer loop
    vertex 705.00000 22.27386 24.39518
    vertex 685.00000 118.33404 120.45536
    vertex 685.00000 120.45536 118.33404
  endloop
endfacet
facet normal -0.98934 -0.10299 -0.10299
  outer loop
    vertex 705.00000 22.27386 24.39518
    vertex 685.00000 120.45536 118.33404
    vertex 705.00000 24.39518 22.27386
  endloop
endfacet
facet normal 0.00000 -0.70711 -0.70711
  outer loop
    vertex 630.00000 120.45536 118.33404
    vertex 685.00000 120.45536 118.33404
    vertex 685.00000 118.33404 120.45536
  endloop
endfacet
facet normal 0.00000 -0.70711 -0.70711
  outer loop
    vertex 630.00000 120.45536 118.33404
    vertex 685.00000 118.33404 120.45536
    vertex 630.00000 118.33404 120.45536
  endloop
endfacet
facet normal -0.00000 0.70711 0.70711
  outer loop
    vertex 575.00000 22.27386 24.39518
    vertex 705.00000 22.27386 24.39518
    vertex 705.00000 24.39518 22.27386
  endloop
endfacet
facet normal 0.00000 0.70711 0.70711
  outer loop
    vertex 575.00000 22.27386 24.39518
    vertex 705.00000 24.39518 22.27386
    vertex 575.00000 24.39518 22.27386
  endloop
endfacet
facet normal 0.00000 -0.70711 -0.70711
  outer loop
    vertex 575.00000 -24.39518 22.27386
    vertex 705.00000 -24.39518 22.27386
    vertex 685.00000 -120.45536 118.33404
  endloop
endfacet
facet normal 0.00000 -0.70711 -0.70711
  outer loop
    vertex 575.00000 -24.39518 22.27386
    vertex 685.00000 -120.45536 118.33404
    vertex 630.00000 -120.45536 118.33404
  endloop
endfacet
facet normal -0.00000 0.70711 0.70711
  outer loop
    vertex 630.00000 -118.33404 120.45536
    vertex 685.00000 -118.33404 120.45536
    vertex 705.00000 -22.27386 24.39518
  endloop
endfacet
facet normal 0.00000 0.70711 0.70711
  outer loop
    vertex 630.00000 -118.33404 120.45536
    vertex 705.00000 -22.27386 24.39518
    vertex 575.00000 -22.27386 24.39518
  endloop
endfacet
facet normal 0.92692 0.26536 -0.26536
  outer loop
    vertex 575.00000 -22.27386 24.39518
    vertex 630.00000 -118.33404 120.45536
    vertex 630.00000 -120.45536 118.33404
  endloop
endfacet
facet normal 0.92692 0.26536 -0.26536
  outer loop
    vertex 575.00000 -22.27386 24.39518
    vertex 630.00000 -120.45536 118.33404
    vertex 575.00000 -24.39518 22.27386
  endloop
endfacet
facet normal -0.98934 0.10299 -0.10299
  outer loop
    vertex 705.00000 -24.39518 22.27386
    vertex 685.00000 -120.45536 118.33404
    vertex 685.00000 -118.33404 120.45536
  endloop
endfacet
facet normal -0.98934 0.10299 -0.10299
  outer loop
    vertex 705.00000 -24.39518 22.27386
    vertex 685.00000 -118.33404 120.45536
    vertex 705.00000 -22.27386 24.39518
  endloop
endfacet
facet normal 0.00000 0.70711 -0.70711
  outer loop
    vertex 630.00000 -118.33404 120.45536
    vertex 685.00000 -118.33404 120.45536
    vertex 685.00000 -120.45536 118.33404
  endloop
endfacet
facet normal 0.00000 0.70711 -0.70711
  outer loop
    vertex 630.00000 -118.33404 120.45536
    vertex 685.00000 -120.45536 118.33404
    vertex 630.00000 -120.45536 118.33404
  endloop
endfacet
facet normal 0.00000 -0.70711 0.70711
  outer loop
    vertex 575.00000 -24.39518 22.27386
    vertex 705.00000 -24.39518 22.27386
    vertex 705.00000 -22.27386 24.39518
  endloop
endfacet
facet normal 0.00000 -0.70711 0.70711
  outer loop
    vertex 575.00000 -24.39518 22.27386
    vertex 705.00000 -22.27386 24.39518
    vertex 575.00000 -22.27386 24.39518
  endloop
endfacet
facet normal 0.00000 0.70711 -0.70711
  outer loop
    vertex 575.00000 -22.27386 -24.39518
    vertex 705.00000 -22.27386 -24.39518
    vertex 685.00000 -118.33404 -120.45536
  endloop
endfacet
facet normal 0.00000 0.70711 -0.70711
  outer loop
    vertex 575.00000 -22.27386 -24.39518
    vertex 685.00000 -118.33404 -120.45536
    vertex 630.00000 -118.33404 -120.45536
  endloop
endfacet
facet normal 0.00000 -0.70711 0.70711
  outer loop
    vertex 630.00000 -120.45536 -118.33404
    vertex 685.00000 -120.45536 -118.33404
    vertex 705.00000 -24.39518 -22.27386
  endloop
endfacet
facet normal 0.00000 -0.70711 0.70711
  outer loop
    vertex 630.00000 -120.45536 -118.33404
    vertex 705.00000 -24.39518 -22.27386
    vertex 575.00000 -24.39518 -22.27386
  endloop
endfacet
facet normal 0.92692 0.26536 0.26536
  outer loop
    vertex 575.00000 -24.39518 -22.27386
    vertex 630.00000 -120.45536 -118.33404
    vertex 630.00000 -118.33404 -120.45536
  endloop
endfacet
facet normal 0.92692 0.26536 0.26536
  outer loop
    vertex 575.00000 -24.39518 -22.27386
    vertex 630.00000 -118.33404 -120.45536
    vertex 575.00000 -22.27386 -24.39518
  endloop
endfacet
facet normal -0.98934 0.10299 0.10299
  outer loop
    vertex 705.00000 -22.27386 -24.39518
    vertex 685.00000 -118.33404 -120.45536
    vertex 685.00000 -120.45536 -118.33404
  endloop
endfacet
facet normal -0.98934 0.10299 0.10299
  outer loop
    vertex 705.00000 -22.27386 -24.39518
    vertex 685.00000 -120.45536 -118.33404
    vertex 705.00000 -24.39518 -22.27386
  endloop
endfacet
facet normal -0.00000 0.70711 0.70711
  outer loop
    vertex 630.00000 -120.45536 -118.33404
    vertex 685.00000 -120.45536 -118.33404
    vertex 685.00000 -118.33404 -120.45536
  endloop
endfacet
facet normal 0.00000 0.70711 0.70711
  outer loop
    vertex 630.00000 -120.45536 -118.33404
    vertex 685.00000 -118.33404 -120.45536
    vertex 630.00000 -118.33404 -120.45536
  endloop
endfacet
facet normal 0.00000 -0.70711 -0.70711
  outer loop
    vertex 575.00000 -22.27386 -24.39518
    vertex 705.00000 -22.27386 -24.39518
    vertex 705.00000 -24.39518 -22.27386
  endloop
endfacet
facet normal 0.00000 -0.70711 -0.70711
  outer loop
    vertex 575.00000 -22.27386 -24.39518
    vertex 705.00000 -24.39518 -22.27386
    vertex 575.00000 -24.39518 -22.27386
  endloop
endfacet
facet normal -0.00000 0.70711 0.70711
  outer loop
    vertex 575.00000 24.39518 -22.27386
    vertex 705.00000 24.39518 -22.27386
    vertex 685.00000 120.45536 -118.33404
  endloop
endfacet
facet normal 0.00000 0.70711 0.70711
  outer loop
    vertex 575.00000 24.39518 -22.27386
    vertex 685.00000 120.45536 -118.33404
    vertex 630.00000 120.45536 -118.33404
  endloop
endfacet
facet normal 0.00000 -0.70711 -0.70711
  outer loop
    vertex 630.00000 118.33404 -120.45536
    vertex 685.00000 118.33404 -120.45536
    vertex 705.00000 22.27386 -24.39518
  endloop
endfacet
facet normal 0.00000 -0.70711 -0.70711
  outer loop
    vertex 630.00000 118.33404 -120.45536
    vertex 705.00000 22.27386 -24.39518
    vertex 575.00000 22.27386 -24.39518
  endloop
endfacet
facet normal 0.92692 -0.26536 0.26536
  outer loop
    vertex 575.00000 22.27386 -24.39518
    vertex 630.00000 118.33404 -120.45536
    vertex 630.00000 120.45536 -118.33404
  endloop
endfacet
facet normal 0.92692 -0.26536 0.26536
  outer loop
    vertex 575.00000 22.27386 -24.39518
    vertex 630.00000 120.45536 -118.33404
    vertex 575.00000 24.39518 -22.27386
  endloop
endfacet
facet normal -0.98934 -0.10299 0.10299
  outer loop
    vertex 705.00000 24.39518 -22.27386
    vertex 685.00000 120.45536 -118.33404
    vertex 685.00000 118.33404 -120.45536
  endloop
endfacet
facet normal -0.98934 -0.10299 0.10299
  outer loop
    vertex 705.00000 24.39518 -22.27386
    vertex 685.00000 118.33404 -120.45536
    vertex 705.00000 22.27386 -24.39518
  endloop
endfacet
facet normal 0.00000 -0.70711 0.70711
  outer loop
    vertex 630.00000 118.33404 -120.45536
    vertex 685.00000 118.33404 -120.45536
    vertex 685.00000 120.45536 -118.33404
  endloop
endfacet
facet normal 0.00000 -0.70711 0.70711
  outer loop
    vertex 630.00000 118.33404 -120.45536
    vertex 685.00000 120.45536 -118.33404
    vertex 630.00000 120.45536 -118.33404
  endloop
endfacet
facet normal 0.00000 0.70711 -0.70711
  outer loop
    vertex 575.00000 24.39518 -22.27386
    vertex 705.00000 24.39518 -22.27386
    vertex 705.00000 22.27386 -24.39518
  endloop
endfacet
facet normal 0.00000 0.70711 -0.70711
  outer loop
    vertex 575.00000 24.39518 -22.27386
    vertex 705.00000 22.27386 -24.39518
    vertex 575.00000 22.27386 -24.39518
  endloop
endfacet
endsolid CSWARCMOD1E.ork_finset_wind1_97ms
